STARTFONT 2.1
COMMENT
COMMENT Converted from OpenType font "JF-Dot-K12B.ttf" by "otf2bdf 3.0".
COMMENT
FONT -FreeType-JF Dot K12-Bold-R-Normal--17-120-100-100-P-123-ISO10646-1
SIZE 12 100 100
FONTBOUNDINGBOX 12 12 0 -2
STARTPROPERTIES 19
FOUNDRY "FreeType"
FAMILY_NAME "JF Dot K12"
WEIGHT_NAME "Bold"
SLANT "R"
SETWIDTH_NAME "Normal"
ADD_STYLE_NAME ""
PIXEL_SIZE 17
POINT_SIZE 120
RESOLUTION_X 100
RESOLUTION_Y 100
SPACING "P"
AVERAGE_WIDTH 123
CHARSET_REGISTRY "ISO10646"
CHARSET_ENCODING "1"
FONT_ASCENT 10
FONT_DESCENT 1
COPYRIGHT "-FreeType-JF Dot K12-Bold-R-Normal--17-120-100-100-P-123-ISO10646-1"
_OTF_FONTFILE "JF-Dot-K12B.ttf"
_OTF_PSNAME "JF-Dot-K12-Bold"
ENDPROPERTIES
CHARS 11077
STARTCHAR 0020
ENCODING 32
SWIDTH 360 0
DWIDTH 6 0
BBX 6 12 0 -2
BITMAP
00
00
00
00
00
00
00
00
00
00
00
00
ENDCHAR
STARTCHAR 0021
ENCODING 33
SWIDTH 360 0
DWIDTH 6 0
BBX 6 12 0 -2
BITMAP
00
30
30
30
30
30
30
30
00
30
00
00
ENDCHAR
STARTCHAR 0022
ENCODING 34
SWIDTH 360 0
DWIDTH 6 0
BBX 6 12 0 -2
BITMAP
00
68
68
68
00
00
00
00
00
00
00
00
ENDCHAR
STARTCHAR 0023
ENCODING 35
SWIDTH 360 0
DWIDTH 6 0
BBX 6 12 0 -2
BITMAP
00
68
68
FC
68
68
68
FC
68
68
00
00
ENDCHAR
STARTCHAR 0024
ENCODING 36
SWIDTH 360 0
DWIDTH 6 0
BBX 6 12 0 -2
BITMAP
00
30
78
D4
D4
70
38
34
D4
78
30
00
ENDCHAR
STARTCHAR 0025
ENCODING 37
SWIDTH 360 0
DWIDTH 6 0
BBX 6 12 0 -2
BITMAP
00
6C
D4
68
18
30
30
68
74
D8
C0
00
ENDCHAR
STARTCHAR 0026
ENCODING 38
SWIDTH 360 0
DWIDTH 6 0
BBX 6 12 0 -2
BITMAP
00
70
D8
D8
70
60
D4
D8
D8
74
00
00
ENDCHAR
STARTCHAR 0027
ENCODING 39
SWIDTH 360 0
DWIDTH 6 0
BBX 6 12 0 -2
BITMAP
00
38
18
30
00
00
00
00
00
00
00
00
ENDCHAR
STARTCHAR 0028
ENCODING 40
SWIDTH 360 0
DWIDTH 6 0
BBX 6 12 0 -2
BITMAP
00
0C
18
18
30
30
30
30
18
18
0C
00
ENDCHAR
STARTCHAR 0029
ENCODING 41
SWIDTH 360 0
DWIDTH 6 0
BBX 6 12 0 -2
BITMAP
00
C0
60
60
30
30
30
30
60
60
C0
00
ENDCHAR
STARTCHAR 002A
ENCODING 42
SWIDTH 360 0
DWIDTH 6 0
BBX 6 12 0 -2
BITMAP
00
00
00
30
D4
78
D4
30
00
00
00
00
ENDCHAR
STARTCHAR 002B
ENCODING 43
SWIDTH 360 0
DWIDTH 6 0
BBX 6 12 0 -2
BITMAP
00
00
00
30
30
FC
30
30
00
00
00
00
ENDCHAR
STARTCHAR 002C
ENCODING 44
SWIDTH 360 0
DWIDTH 6 0
BBX 6 12 0 -2
BITMAP
00
00
00
00
00
00
00
00
30
30
60
00
ENDCHAR
STARTCHAR 002D
ENCODING 45
SWIDTH 360 0
DWIDTH 6 0
BBX 6 12 0 -2
BITMAP
00
00
00
00
00
FC
00
00
00
00
00
00
ENDCHAR
STARTCHAR 002E
ENCODING 46
SWIDTH 360 0
DWIDTH 6 0
BBX 6 12 0 -2
BITMAP
00
00
00
00
00
00
00
00
30
00
00
00
ENDCHAR
STARTCHAR 002F
ENCODING 47
SWIDTH 360 0
DWIDTH 6 0
BBX 6 12 0 -2
BITMAP
00
0C
0C
18
18
30
30
60
60
C0
C0
00
ENDCHAR
STARTCHAR 0030
ENCODING 48
SWIDTH 360 0
DWIDTH 6 0
BBX 6 12 0 -2
BITMAP
00
38
6C
6C
6C
6C
6C
6C
6C
38
00
00
ENDCHAR
STARTCHAR 0031
ENCODING 49
SWIDTH 360 0
DWIDTH 6 0
BBX 6 12 0 -2
BITMAP
00
30
F0
30
30
30
30
30
30
30
00
00
ENDCHAR
STARTCHAR 0032
ENCODING 50
SWIDTH 360 0
DWIDTH 6 0
BBX 6 12 0 -2
BITMAP
00
78
CC
CC
0C
18
30
60
C0
FC
00
00
ENDCHAR
STARTCHAR 0033
ENCODING 51
SWIDTH 360 0
DWIDTH 6 0
BBX 6 12 0 -2
BITMAP
00
78
CC
0C
38
0C
0C
CC
CC
78
00
00
ENDCHAR
STARTCHAR 0034
ENCODING 52
SWIDTH 360 0
DWIDTH 6 0
BBX 6 12 0 -2
BITMAP
00
18
38
38
68
68
D8
FC
18
18
00
00
ENDCHAR
STARTCHAR 0035
ENCODING 53
SWIDTH 360 0
DWIDTH 6 0
BBX 6 12 0 -2
BITMAP
00
F8
C0
C0
F8
CC
0C
0C
CC
78
00
00
ENDCHAR
STARTCHAR 0036
ENCODING 54
SWIDTH 360 0
DWIDTH 6 0
BBX 6 12 0 -2
BITMAP
00
38
60
C0
F8
CC
CC
CC
CC
78
00
00
ENDCHAR
STARTCHAR 0037
ENCODING 55
SWIDTH 360 0
DWIDTH 6 0
BBX 6 12 0 -2
BITMAP
00
FC
0C
18
18
18
30
30
30
30
00
00
ENDCHAR
STARTCHAR 0038
ENCODING 56
SWIDTH 360 0
DWIDTH 6 0
BBX 6 12 0 -2
BITMAP
00
78
CC
CC
78
CC
CC
CC
CC
78
00
00
ENDCHAR
STARTCHAR 0039
ENCODING 57
SWIDTH 360 0
DWIDTH 6 0
BBX 6 12 0 -2
BITMAP
00
78
CC
CC
CC
7C
0C
0C
18
70
00
00
ENDCHAR
STARTCHAR 003A
ENCODING 58
SWIDTH 360 0
DWIDTH 6 0
BBX 6 12 0 -2
BITMAP
00
00
00
00
30
00
00
30
00
00
00
00
ENDCHAR
STARTCHAR 003B
ENCODING 59
SWIDTH 360 0
DWIDTH 6 0
BBX 6 12 0 -2
BITMAP
00
00
00
30
00
00
30
30
60
00
00
00
ENDCHAR
STARTCHAR 003C
ENCODING 60
SWIDTH 360 0
DWIDTH 6 0
BBX 6 12 0 -2
BITMAP
00
00
0C
18
30
60
30
18
0C
00
00
00
ENDCHAR
STARTCHAR 003D
ENCODING 61
SWIDTH 360 0
DWIDTH 6 0
BBX 6 12 0 -2
BITMAP
00
00
00
00
FC
00
FC
00
00
00
00
00
ENDCHAR
STARTCHAR 003E
ENCODING 62
SWIDTH 360 0
DWIDTH 6 0
BBX 6 12 0 -2
BITMAP
00
00
60
30
18
0C
18
30
60
00
00
00
ENDCHAR
STARTCHAR 003F
ENCODING 63
SWIDTH 360 0
DWIDTH 6 0
BBX 6 12 0 -2
BITMAP
00
78
CC
CC
18
18
30
30
00
30
00
00
ENDCHAR
STARTCHAR 0040
ENCODING 64
SWIDTH 360 0
DWIDTH 6 0
BBX 6 12 0 -2
BITMAP
00
78
CC
DC
D4
D4
D4
D8
CC
78
00
00
ENDCHAR
STARTCHAR 0041
ENCODING 65
SWIDTH 360 0
DWIDTH 6 0
BBX 6 12 0 -2
BITMAP
00
30
30
68
68
68
FC
CC
CC
CC
00
00
ENDCHAR
STARTCHAR 0042
ENCODING 66
SWIDTH 360 0
DWIDTH 6 0
BBX 6 12 0 -2
BITMAP
00
F8
CC
CC
D8
F8
CC
CC
CC
F8
00
00
ENDCHAR
STARTCHAR 0043
ENCODING 67
SWIDTH 360 0
DWIDTH 6 0
BBX 6 12 0 -2
BITMAP
00
38
6C
CC
C0
C0
C0
CC
6C
38
00
00
ENDCHAR
STARTCHAR 0044
ENCODING 68
SWIDTH 360 0
DWIDTH 6 0
BBX 6 12 0 -2
BITMAP
00
F0
D8
CC
CC
CC
CC
CC
D8
F0
00
00
ENDCHAR
STARTCHAR 0045
ENCODING 69
SWIDTH 360 0
DWIDTH 6 0
BBX 6 12 0 -2
BITMAP
00
FC
C0
C0
C0
F8
C0
C0
C0
FC
00
00
ENDCHAR
STARTCHAR 0046
ENCODING 70
SWIDTH 360 0
DWIDTH 6 0
BBX 6 12 0 -2
BITMAP
00
FC
C0
C0
C0
F8
C0
C0
C0
C0
00
00
ENDCHAR
STARTCHAR 0047
ENCODING 71
SWIDTH 360 0
DWIDTH 6 0
BBX 6 12 0 -2
BITMAP
00
38
6C
C0
C0
DC
CC
CC
6C
3C
00
00
ENDCHAR
STARTCHAR 0048
ENCODING 72
SWIDTH 360 0
DWIDTH 6 0
BBX 6 12 0 -2
BITMAP
00
CC
CC
CC
CC
FC
CC
CC
CC
CC
00
00
ENDCHAR
STARTCHAR 0049
ENCODING 73
SWIDTH 360 0
DWIDTH 6 0
BBX 6 12 0 -2
BITMAP
00
78
30
30
30
30
30
30
30
78
00
00
ENDCHAR
STARTCHAR 004A
ENCODING 74
SWIDTH 360 0
DWIDTH 6 0
BBX 6 12 0 -2
BITMAP
00
18
18
18
18
18
18
D8
D8
70
00
00
ENDCHAR
STARTCHAR 004B
ENCODING 75
SWIDTH 360 0
DWIDTH 6 0
BBX 6 12 0 -2
BITMAP
00
CC
D8
D0
E0
D0
D0
D8
D8
CC
00
00
ENDCHAR
STARTCHAR 004C
ENCODING 76
SWIDTH 360 0
DWIDTH 6 0
BBX 6 12 0 -2
BITMAP
00
C0
C0
C0
C0
C0
C0
C0
C0
FC
00
00
ENDCHAR
STARTCHAR 004D
ENCODING 77
SWIDTH 360 0
DWIDTH 6 0
BBX 6 12 0 -2
BITMAP
00
CC
CC
EC
EC
EC
D4
D4
D4
CC
00
00
ENDCHAR
STARTCHAR 004E
ENCODING 78
SWIDTH 360 0
DWIDTH 6 0
BBX 6 12 0 -2
BITMAP
00
CC
EC
EC
D4
D4
DC
DC
CC
CC
00
00
ENDCHAR
STARTCHAR 004F
ENCODING 79
SWIDTH 360 0
DWIDTH 6 0
BBX 6 12 0 -2
BITMAP
00
78
CC
CC
CC
CC
CC
CC
CC
78
00
00
ENDCHAR
STARTCHAR 0050
ENCODING 80
SWIDTH 360 0
DWIDTH 6 0
BBX 6 12 0 -2
BITMAP
00
F8
CC
CC
CC
F8
C0
C0
C0
C0
00
00
ENDCHAR
STARTCHAR 0051
ENCODING 81
SWIDTH 360 0
DWIDTH 6 0
BBX 6 12 0 -2
BITMAP
00
78
CC
CC
CC
CC
CC
D4
D8
74
00
00
ENDCHAR
STARTCHAR 0052
ENCODING 82
SWIDTH 360 0
DWIDTH 6 0
BBX 6 12 0 -2
BITMAP
00
F8
CC
CC
CC
F8
D8
CC
CC
CC
00
00
ENDCHAR
STARTCHAR 0053
ENCODING 83
SWIDTH 360 0
DWIDTH 6 0
BBX 6 12 0 -2
BITMAP
00
78
CC
C0
70
18
0C
CC
CC
78
00
00
ENDCHAR
STARTCHAR 0054
ENCODING 84
SWIDTH 360 0
DWIDTH 6 0
BBX 6 12 0 -2
BITMAP
00
FC
30
30
30
30
30
30
30
30
00
00
ENDCHAR
STARTCHAR 0055
ENCODING 85
SWIDTH 360 0
DWIDTH 6 0
BBX 6 12 0 -2
BITMAP
00
CC
CC
CC
CC
CC
CC
CC
CC
78
00
00
ENDCHAR
STARTCHAR 0056
ENCODING 86
SWIDTH 360 0
DWIDTH 6 0
BBX 6 12 0 -2
BITMAP
00
CC
CC
CC
CC
68
68
68
30
30
00
00
ENDCHAR
STARTCHAR 0057
ENCODING 87
SWIDTH 360 0
DWIDTH 6 0
BBX 6 12 0 -2
BITMAP
00
D4
D4
D4
D4
D4
D4
68
68
68
00
00
ENDCHAR
STARTCHAR 0058
ENCODING 88
SWIDTH 360 0
DWIDTH 6 0
BBX 6 12 0 -2
BITMAP
00
CC
CC
68
68
30
68
68
CC
CC
00
00
ENDCHAR
STARTCHAR 0059
ENCODING 89
SWIDTH 360 0
DWIDTH 6 0
BBX 6 12 0 -2
BITMAP
00
CC
CC
68
68
30
30
30
30
30
00
00
ENDCHAR
STARTCHAR 005A
ENCODING 90
SWIDTH 360 0
DWIDTH 6 0
BBX 6 12 0 -2
BITMAP
00
FC
0C
18
18
30
60
60
C0
FC
00
00
ENDCHAR
STARTCHAR 005B
ENCODING 91
SWIDTH 360 0
DWIDTH 6 0
BBX 6 12 0 -2
BITMAP
00
3C
30
30
30
30
30
30
30
30
30
3C
ENDCHAR
STARTCHAR 005C
ENCODING 92
SWIDTH 360 0
DWIDTH 6 0
BBX 6 12 0 -2
BITMAP
00
CC
CC
68
FC
30
FC
30
30
30
00
00
ENDCHAR
STARTCHAR 005D
ENCODING 93
SWIDTH 360 0
DWIDTH 6 0
BBX 6 12 0 -2
BITMAP
00
78
18
18
18
18
18
18
18
18
18
78
ENDCHAR
STARTCHAR 005E
ENCODING 94
SWIDTH 360 0
DWIDTH 6 0
BBX 6 12 0 -2
BITMAP
00
30
68
CC
00
00
00
00
00
00
00
00
ENDCHAR
STARTCHAR 005F
ENCODING 95
SWIDTH 360 0
DWIDTH 6 0
BBX 6 12 0 -2
BITMAP
00
00
00
00
00
00
00
00
00
FC
00
00
ENDCHAR
STARTCHAR 0060
ENCODING 96
SWIDTH 360 0
DWIDTH 6 0
BBX 6 12 0 -2
BITMAP
00
38
30
18
00
00
00
00
00
00
00
00
ENDCHAR
STARTCHAR 0061
ENCODING 97
SWIDTH 360 0
DWIDTH 6 0
BBX 6 12 0 -2
BITMAP
00
00
00
78
CC
1C
74
CC
DC
74
00
00
ENDCHAR
STARTCHAR 0062
ENCODING 98
SWIDTH 360 0
DWIDTH 6 0
BBX 6 12 0 -2
BITMAP
00
C0
C0
D8
EC
CC
CC
CC
EC
D8
00
00
ENDCHAR
STARTCHAR 0063
ENCODING 99
SWIDTH 360 0
DWIDTH 6 0
BBX 6 12 0 -2
BITMAP
00
00
00
78
CC
C0
C0
C0
CC
78
00
00
ENDCHAR
STARTCHAR 0064
ENCODING 100
SWIDTH 360 0
DWIDTH 6 0
BBX 6 12 0 -2
BITMAP
00
0C
0C
74
DC
CC
CC
CC
DC
74
00
00
ENDCHAR
STARTCHAR 0065
ENCODING 101
SWIDTH 360 0
DWIDTH 6 0
BBX 6 12 0 -2
BITMAP
00
00
00
78
CC
CC
FC
C0
CC
78
00
00
ENDCHAR
STARTCHAR 0066
ENCODING 102
SWIDTH 360 0
DWIDTH 6 0
BBX 6 12 0 -2
BITMAP
00
1C
30
78
30
30
30
30
30
30
00
00
ENDCHAR
STARTCHAR 0067
ENCODING 103
SWIDTH 360 0
DWIDTH 6 0
BBX 6 12 0 -2
BITMAP
00
00
00
7C
CC
CC
CC
DC
74
0C
CC
78
ENDCHAR
STARTCHAR 0068
ENCODING 104
SWIDTH 360 0
DWIDTH 6 0
BBX 6 12 0 -2
BITMAP
00
C0
C0
D8
EC
CC
CC
CC
CC
CC
00
00
ENDCHAR
STARTCHAR 0069
ENCODING 105
SWIDTH 360 0
DWIDTH 6 0
BBX 6 12 0 -2
BITMAP
00
30
00
30
30
30
30
30
30
30
00
00
ENDCHAR
STARTCHAR 006A
ENCODING 106
SWIDTH 360 0
DWIDTH 6 0
BBX 6 12 0 -2
BITMAP
00
30
00
30
30
30
30
30
30
30
30
60
ENDCHAR
STARTCHAR 006B
ENCODING 107
SWIDTH 360 0
DWIDTH 6 0
BBX 6 12 0 -2
BITMAP
00
C0
C0
C0
D8
D0
E0
D0
D8
CC
00
00
ENDCHAR
STARTCHAR 006C
ENCODING 108
SWIDTH 360 0
DWIDTH 6 0
BBX 6 12 0 -2
BITMAP
00
30
30
30
30
30
30
30
30
30
00
00
ENDCHAR
STARTCHAR 006D
ENCODING 109
SWIDTH 360 0
DWIDTH 6 0
BBX 6 12 0 -2
BITMAP
00
00
00
F8
D4
D4
D4
D4
D4
D4
00
00
ENDCHAR
STARTCHAR 006E
ENCODING 110
SWIDTH 360 0
DWIDTH 6 0
BBX 6 12 0 -2
BITMAP
00
00
00
D8
EC
CC
CC
CC
CC
CC
00
00
ENDCHAR
STARTCHAR 006F
ENCODING 111
SWIDTH 360 0
DWIDTH 6 0
BBX 6 12 0 -2
BITMAP
00
00
00
78
CC
CC
CC
CC
CC
78
00
00
ENDCHAR
STARTCHAR 0070
ENCODING 112
SWIDTH 360 0
DWIDTH 6 0
BBX 6 12 0 -2
BITMAP
00
00
00
D8
EC
CC
CC
CC
EC
D8
C0
C0
ENDCHAR
STARTCHAR 0071
ENCODING 113
SWIDTH 360 0
DWIDTH 6 0
BBX 6 12 0 -2
BITMAP
00
00
00
74
DC
CC
CC
CC
DC
74
0C
0C
ENDCHAR
STARTCHAR 0072
ENCODING 114
SWIDTH 360 0
DWIDTH 6 0
BBX 6 12 0 -2
BITMAP
00
00
00
6C
70
60
60
60
60
60
00
00
ENDCHAR
STARTCHAR 0073
ENCODING 115
SWIDTH 360 0
DWIDTH 6 0
BBX 6 12 0 -2
BITMAP
00
00
00
78
CC
60
38
0C
CC
78
00
00
ENDCHAR
STARTCHAR 0074
ENCODING 116
SWIDTH 360 0
DWIDTH 6 0
BBX 6 12 0 -2
BITMAP
00
60
60
F8
60
60
60
60
60
70
00
00
ENDCHAR
STARTCHAR 0075
ENCODING 117
SWIDTH 360 0
DWIDTH 6 0
BBX 6 12 0 -2
BITMAP
00
00
00
CC
CC
CC
CC
CC
DC
74
00
00
ENDCHAR
STARTCHAR 0076
ENCODING 118
SWIDTH 360 0
DWIDTH 6 0
BBX 6 12 0 -2
BITMAP
00
00
00
CC
CC
CC
68
68
30
30
00
00
ENDCHAR
STARTCHAR 0077
ENCODING 119
SWIDTH 360 0
DWIDTH 6 0
BBX 6 12 0 -2
BITMAP
00
00
00
CC
D4
D4
D4
D4
D4
68
00
00
ENDCHAR
STARTCHAR 0078
ENCODING 120
SWIDTH 360 0
DWIDTH 6 0
BBX 6 12 0 -2
BITMAP
00
00
00
CC
68
68
30
68
68
CC
00
00
ENDCHAR
STARTCHAR 0079
ENCODING 121
SWIDTH 360 0
DWIDTH 6 0
BBX 6 12 0 -2
BITMAP
00
00
00
CC
CC
6C
68
68
30
30
60
C0
ENDCHAR
STARTCHAR 007A
ENCODING 122
SWIDTH 360 0
DWIDTH 6 0
BBX 6 12 0 -2
BITMAP
00
00
00
FC
18
18
30
60
60
FC
00
00
ENDCHAR
STARTCHAR 007B
ENCODING 123
SWIDTH 360 0
DWIDTH 6 0
BBX 6 12 0 -2
BITMAP
00
0C
18
18
18
18
30
18
18
18
18
0C
ENDCHAR
STARTCHAR 007C
ENCODING 124
SWIDTH 360 0
DWIDTH 6 0
BBX 6 12 0 -2
BITMAP
00
30
30
30
30
30
30
30
30
30
30
30
ENDCHAR
STARTCHAR 007D
ENCODING 125
SWIDTH 360 0
DWIDTH 6 0
BBX 6 12 0 -2
BITMAP
00
60
30
30
30
30
18
30
30
30
30
60
ENDCHAR
STARTCHAR 007E
ENCODING 126
SWIDTH 360 0
DWIDTH 6 0
BBX 6 12 0 -2
BITMAP
FC
00
00
00
00
00
00
00
00
00
00
00
ENDCHAR
STARTCHAR 00A0
ENCODING 160
SWIDTH 720 0
DWIDTH 12 0
BBX 11 1 0 -2
BITMAP
AAA0
ENDCHAR
STARTCHAR 00A1
ENCODING 161
SWIDTH 720 0
DWIDTH 12 0
BBX 3 11 5 -2
BITMAP
E0
E0
00
C0
C0
C0
E0
E0
E0
E0
E0
ENDCHAR
STARTCHAR 00A2
ENCODING 162
SWIDTH 360 0
DWIDTH 6 0
BBX 6 9 0 -1
BITMAP
18
78
DC
D0
D0
D0
EC
78
60
ENDCHAR
STARTCHAR 00A3
ENCODING 163
SWIDTH 360 0
DWIDTH 6 0
BBX 6 10 0 -1
BITMAP
18
34
30
7C
30
30
30
74
D4
68
ENDCHAR
STARTCHAR 00A4
ENCODING 164
SWIDTH 720 0
DWIDTH 12 0
BBX 10 9 1 -1
BITMAP
C0C0
6E80
3300
6180
6180
6180
3300
6E80
C0C0
ENDCHAR
STARTCHAR 00A5
ENCODING 165
SWIDTH 360 0
DWIDTH 6 0
BBX 6 10 0 -1
BITMAP
C0
C0
60
60
30
30
18
18
0C
0C
ENDCHAR
STARTCHAR 00A6
ENCODING 166
SWIDTH 720 0
DWIDTH 12 0
BBX 2 9 5 -1
BITMAP
C0
C0
C0
C0
00
C0
C0
C0
C0
ENDCHAR
STARTCHAR 00A7
ENCODING 167
SWIDTH 720 0
DWIDTH 12 0
BBX 8 11 2 -2
BITMAP
3C
6E
E6
78
EE
E7
77
1E
67
76
3C
ENDCHAR
STARTCHAR 00A8
ENCODING 168
SWIDTH 720 0
DWIDTH 12 0
BBX 6 2 3 7
BITMAP
EC
EC
ENDCHAR
STARTCHAR 00A9
ENCODING 169
SWIDTH 720 0
DWIDTH 12 0
BBX 12 11 0 -2
BITMAP
1F80
30C0
6F60
D9D0
D8D0
D830
D8D0
D9B0
6F60
30C0
1F80
ENDCHAR
STARTCHAR 00AA
ENCODING 170
SWIDTH 720 0
DWIDTH 12 0
BBX 6 5 3 4
BITMAP
78
DC
7C
DC
7C
ENDCHAR
STARTCHAR 00AB
ENCODING 171
SWIDTH 720 0
DWIDTH 12 0
BBX 7 5 4 0
BITMAP
36
6C
EC
6C
36
ENDCHAR
STARTCHAR 00AC
ENCODING 172
SWIDTH 360 0
DWIDTH 6 0
BBX 6 3 0 2
BITMAP
FC
0C
0C
ENDCHAR
STARTCHAR 00AD
ENCODING 173
SWIDTH 720 0
DWIDTH 12 0
BBX 11 6 0 -2
BITMAP
7E00
0000
0000
0000
0000
AAA0
ENDCHAR
STARTCHAR 00AE
ENCODING 174
SWIDTH 720 0
DWIDTH 12 0
BBX 12 11 0 -2
BITMAP
1F80
30C0
7F60
DDB0
DDB0
DF30
DDB0
DDB0
7EE0
30C0
1F80
ENDCHAR
STARTCHAR 00AF
ENCODING 175
SWIDTH 720 0
DWIDTH 12 0
BBX 6 1 3 7
BITMAP
FC
ENDCHAR
STARTCHAR 00B0
ENCODING 176
SWIDTH 720 0
DWIDTH 12 0
BBX 5 4 0 5
BITMAP
70
D8
D8
70
ENDCHAR
STARTCHAR 00B1
ENCODING 177
SWIDTH 720 0
DWIDTH 12 0
BBX 10 9 1 -1
BITMAP
0C00
0C00
0C00
FFC0
0C00
0C00
0C00
0000
FFC0
ENDCHAR
STARTCHAR 00B2
ENCODING 178
SWIDTH 720 0
DWIDTH 12 0
BBX 6 5 3 4
BITMAP
78
DC
78
E0
FC
ENDCHAR
STARTCHAR 00B3
ENCODING 179
SWIDTH 720 0
DWIDTH 12 0
BBX 6 5 3 4
BITMAP
F8
1C
F8
1C
F8
ENDCHAR
STARTCHAR 00B4
ENCODING 180
SWIDTH 720 0
DWIDTH 12 0
BBX 4 3 4 6
BITMAP
70
60
C0
ENDCHAR
STARTCHAR 00B5
ENCODING 181
SWIDTH 360 0
DWIDTH 6 0
BBX 6 8 0 -2
BITMAP
6C
6C
6C
6C
78
60
60
C0
ENDCHAR
STARTCHAR 00B6
ENCODING 182
SWIDTH 720 0
DWIDTH 12 0
BBX 12 12 0 -2
BITMAP
0000
0F80
1E80
3E80
3E80
3E80
1E80
0680
0680
0680
0680
0680
ENDCHAR
STARTCHAR 00B7
ENCODING 183
SWIDTH 720 0
DWIDTH 12 0
BBX 12 12 0 -2
BITMAP
0000
0000
0000
0000
0600
0F00
0600
0000
0000
0000
0000
0000
ENDCHAR
STARTCHAR 00B8
ENCODING 184
SWIDTH 720 0
DWIDTH 12 0
BBX 12 12 0 -2
BITMAP
0000
0000
0000
0000
0000
0000
0000
0000
0600
0700
0180
0700
ENDCHAR
STARTCHAR 00B9
ENCODING 185
SWIDTH 720 0
DWIDTH 12 0
BBX 12 12 0 -2
BITMAP
0000
0600
3E00
0E00
0E00
3F80
0000
0000
0000
0000
0000
0000
ENDCHAR
STARTCHAR 00BA
ENCODING 186
SWIDTH 720 0
DWIDTH 12 0
BBX 12 12 0 -2
BITMAP
0000
0E00
3B80
3B80
3B80
0E00
0000
0000
0000
0000
0000
0000
ENDCHAR
STARTCHAR 00BB
ENCODING 187
SWIDTH 720 0
DWIDTH 12 0
BBX 12 12 0 -2
BITMAP
0000
0000
0000
0000
0000
0D80
06C0
0760
06C0
0D80
0000
0000
ENDCHAR
STARTCHAR 00BC
ENCODING 188
SWIDTH 720 0
DWIDTH 12 0
BBX 12 12 0 -2
BITMAP
0000
1800
7800
18C0
1980
1B00
0600
0CC0
19C0
3340
67E0
00C0
ENDCHAR
STARTCHAR 00BD
ENCODING 189
SWIDTH 720 0
DWIDTH 12 0
BBX 12 12 0 -2
BITMAP
0000
1800
7800
18C0
1980
1B00
0600
0DC0
1860
31C0
6300
03E0
ENDCHAR
STARTCHAR 00BE
ENCODING 190
SWIDTH 720 0
DWIDTH 12 0
BBX 12 12 0 -2
BITMAP
0000
7800
0C00
78C0
0D80
7B00
0600
0CC0
19C0
3340
67E0
00C0
ENDCHAR
STARTCHAR 00BF
ENCODING 191
SWIDTH 720 0
DWIDTH 12 0
BBX 12 12 0 -2
BITMAP
0000
0E00
0E00
0000
0600
0600
0E00
1800
39C0
39C0
1980
0F00
ENDCHAR
STARTCHAR 00C0
ENCODING 192
SWIDTH 720 0
DWIDTH 12 0
BBX 12 12 0 -2
BITMAP
0000
0C00
0600
0300
0F00
0D80
1B80
3F80
31C0
71C0
F9E0
0000
ENDCHAR
STARTCHAR 00C1
ENCODING 193
SWIDTH 720 0
DWIDTH 12 0
BBX 12 12 0 -2
BITMAP
0000
0300
0600
0C00
0F00
0D80
1B80
3F80
31C0
71C0
F9E0
0000
ENDCHAR
STARTCHAR 00C2
ENCODING 194
SWIDTH 720 0
DWIDTH 12 0
BBX 12 12 0 -2
BITMAP
0000
0600
0D00
1980
0F00
0D80
1B80
3F80
31C0
71C0
F9E0
0000
ENDCHAR
STARTCHAR 00C3
ENCODING 195
SWIDTH 720 0
DWIDTH 12 0
BBX 12 12 0 -2
BITMAP
0000
1D80
3700
0000
0F00
0D80
1B80
3F80
31C0
71C0
F9E0
0000
ENDCHAR
STARTCHAR 00C4
ENCODING 196
SWIDTH 720 0
DWIDTH 12 0
BBX 12 12 0 -2
BITMAP
0000
1D80
1D80
0000
0F00
0D80
1B80
3F80
31C0
71C0
F9E0
0000
ENDCHAR
STARTCHAR 00C5
ENCODING 197
SWIDTH 720 0
DWIDTH 12 0
BBX 12 12 0 -2
BITMAP
0000
0E00
1B00
1B00
0F00
0D80
1B80
3F80
31C0
71C0
F9E0
0000
ENDCHAR
STARTCHAR 00C6
ENCODING 198
SWIDTH 720 0
DWIDTH 12 0
BBX 12 12 0 -2
BITMAP
0000
0FE0
0E60
1E30
1EC0
37C0
36C0
7E00
6E30
CE60
EFE0
0000
ENDCHAR
STARTCHAR 00C7
ENCODING 199
SWIDTH 720 0
DWIDTH 12 0
BBX 12 12 0 -2
BITMAP
0000
0F40
19C0
38C0
70C0
7000
7000
38C0
19C0
0F00
0600
1C00
ENDCHAR
STARTCHAR 00C8
ENCODING 200
SWIDTH 720 0
DWIDTH 12 0
BBX 12 12 0 -2
BITMAP
0000
0C00
0600
7FC0
3860
3B00
3F00
3B00
3860
38C0
7FC0
0000
ENDCHAR
STARTCHAR 00C9
ENCODING 201
SWIDTH 720 0
DWIDTH 12 0
BBX 12 12 0 -2
BITMAP
0000
0600
0C00
7FC0
3860
3B00
3F00
3B00
3860
38C0
7FC0
0000
ENDCHAR
STARTCHAR 00CA
ENCODING 202
SWIDTH 720 0
DWIDTH 12 0
BBX 12 12 0 -2
BITMAP
0000
0E00
1B00
7FC0
3860
3B00
3F00
3B00
3860
38C0
7FC0
0000
ENDCHAR
STARTCHAR 00CB
ENCODING 203
SWIDTH 720 0
DWIDTH 12 0
BBX 12 12 0 -2
BITMAP
0000
1D80
1D80
7FC0
3860
3B00
3F00
3B00
3860
38C0
7FC0
0000
ENDCHAR
STARTCHAR 00CC
ENCODING 204
SWIDTH 720 0
DWIDTH 12 0
BBX 12 12 0 -2
BITMAP
0000
0C00
0600
1F00
0E00
0E00
0E00
0E00
0E00
0E00
1F00
0000
ENDCHAR
STARTCHAR 00CD
ENCODING 205
SWIDTH 720 0
DWIDTH 12 0
BBX 12 12 0 -2
BITMAP
0000
0600
0C00
1F00
0E00
0E00
0E00
0E00
0E00
0E00
1F00
0000
ENDCHAR
STARTCHAR 00CE
ENCODING 206
SWIDTH 720 0
DWIDTH 12 0
BBX 12 12 0 -2
BITMAP
0000
0600
0D00
1980
1F00
0E00
0E00
0E00
0E00
0E00
1F00
0000
ENDCHAR
STARTCHAR 00CF
ENCODING 207
SWIDTH 720 0
DWIDTH 12 0
BBX 12 12 0 -2
BITMAP
0000
1D80
1D80
0000
1F00
0E00
0E00
0E00
0E00
0E00
1F00
0000
ENDCHAR
STARTCHAR 00D0
ENCODING 208
SWIDTH 720 0
DWIDTH 12 0
BBX 12 12 0 -2
BITMAP
0000
7F00
3980
38C0
38E0
38E0
7CE0
38E0
38C0
3980
7F00
0000
ENDCHAR
STARTCHAR 00D1
ENCODING 209
SWIDTH 720 0
DWIDTH 12 0
BBX 12 12 0 -2
BITMAP
0000
0EC0
1B80
78E0
3CC0
36C0
3740
3740
33C0
31C0
78C0
0000
ENDCHAR
STARTCHAR 00D2
ENCODING 210
SWIDTH 720 0
DWIDTH 12 0
BBX 12 12 0 -2
BITMAP
0000
0C00
0600
0F00
39C0
70E0
70E0
70E0
70E0
39C0
0F00
0000
ENDCHAR
STARTCHAR 00D3
ENCODING 211
SWIDTH 720 0
DWIDTH 12 0
BBX 12 12 0 -2
BITMAP
0000
0300
0600
0F00
39C0
70E0
70E0
70E0
70E0
39C0
0F00
0000
ENDCHAR
STARTCHAR 00D4
ENCODING 212
SWIDTH 720 0
DWIDTH 12 0
BBX 12 12 0 -2
BITMAP
0000
0600
0D00
1980
0F00
39C0
70E0
70E0
70E0
39C0
0F00
0000
ENDCHAR
STARTCHAR 00D5
ENCODING 213
SWIDTH 720 0
DWIDTH 12 0
BBX 12 12 0 -2
BITMAP
0000
1D80
3700
0F00
39C0
70E0
70E0
70E0
70E0
39C0
0F00
0000
ENDCHAR
STARTCHAR 00D6
ENCODING 214
SWIDTH 720 0
DWIDTH 12 0
BBX 12 12 0 -2
BITMAP
0000
1D80
1D80
0F00
39C0
70E0
70E0
70E0
70E0
39C0
0F00
0000
ENDCHAR
STARTCHAR 00D7
ENCODING 215
SWIDTH 720 0
DWIDTH 12 0
BBX 12 12 0 -2
BITMAP
0000
0000
0000
30C0
1980
0D00
0600
0D00
1980
30C0
0000
0000
ENDCHAR
STARTCHAR 00D8
ENCODING 216
SWIDTH 720 0
DWIDTH 12 0
BBX 12 12 0 -2
BITMAP
0000
0F60
19C0
39C0
7360
76E0
76E0
74E0
39C0
3980
6F00
0000
ENDCHAR
STARTCHAR 00D9
ENCODING 217
SWIDTH 720 0
DWIDTH 12 0
BBX 12 12 0 -2
BITMAP
0000
0C00
0600
7BE0
38C0
38C0
38C0
38C0
38C0
1DC0
0F00
0000
ENDCHAR
STARTCHAR 00DA
ENCODING 218
SWIDTH 720 0
DWIDTH 12 0
BBX 12 12 0 -2
BITMAP
0000
0300
0600
7DE0
38C0
38C0
38C0
38C0
38C0
1DC0
0F00
0000
ENDCHAR
STARTCHAR 00DB
ENCODING 219
SWIDTH 720 0
DWIDTH 12 0
BBX 12 12 0 -2
BITMAP
0000
0600
0D00
79E0
38C0
38C0
38C0
38C0
38C0
1DC0
0F00
0000
ENDCHAR
STARTCHAR 00DC
ENCODING 220
SWIDTH 720 0
DWIDTH 12 0
BBX 12 12 0 -2
BITMAP
0000
1D80
1D80
79E0
38C0
38C0
38C0
38C0
38C0
1DC0
0F00
0000
ENDCHAR
STARTCHAR 00DD
ENCODING 221
SWIDTH 720 0
DWIDTH 12 0
BBX 12 12 0 -2
BITMAP
0000
0300
0600
7DE0
38C0
1D80
1F00
0E00
0E00
0E00
1F00
0000
ENDCHAR
STARTCHAR 00DE
ENCODING 222
SWIDTH 720 0
DWIDTH 12 0
BBX 12 12 0 -2
BITMAP
0000
7C00
3800
3F80
39C0
38E0
39C0
3F80
3800
3800
7C00
0000
ENDCHAR
STARTCHAR 00DF
ENCODING 223
SWIDTH 720 0
DWIDTH 12 0
BBX 12 12 0 -2
BITMAP
0000
0F00
1980
39C0
3980
3B00
39C0
39C0
39C0
3A80
7B00
0000
ENDCHAR
STARTCHAR 00E0
ENCODING 224
SWIDTH 720 0
DWIDTH 12 0
BBX 12 12 0 -2
BITMAP
0000
0000
0C00
0600
0300
1F00
0380
1F80
3B80
3B80
1EC0
0000
ENDCHAR
STARTCHAR 00E1
ENCODING 225
SWIDTH 720 0
DWIDTH 12 0
BBX 12 12 0 -2
BITMAP
0000
0000
0300
0600
0C00
1F00
0380
1F80
3B80
3B80
1EC0
0000
ENDCHAR
STARTCHAR 00E2
ENCODING 226
SWIDTH 720 0
DWIDTH 12 0
BBX 12 12 0 -2
BITMAP
0000
0000
0600
0D00
1980
1F00
0380
1F80
3B80
3B80
1EC0
0000
ENDCHAR
STARTCHAR 00E3
ENCODING 227
SWIDTH 720 0
DWIDTH 12 0
BBX 12 12 0 -2
BITMAP
0000
0000
1D80
3700
0000
1F00
0380
1F80
3B80
3B80
1EC0
0000
ENDCHAR
STARTCHAR 00E4
ENCODING 228
SWIDTH 720 0
DWIDTH 12 0
BBX 12 12 0 -2
BITMAP
0000
0000
1D80
1D80
0000
1F00
0380
1F80
3B80
3B80
1EC0
0000
ENDCHAR
STARTCHAR 00E5
ENCODING 229
SWIDTH 720 0
DWIDTH 12 0
BBX 12 12 0 -2
BITMAP
0000
0000
0E00
1B00
0E00
1F00
0380
1F80
3B80
3B80
1EC0
0000
ENDCHAR
STARTCHAR 00E6
ENCODING 230
SWIDTH 720 0
DWIDTH 12 0
BBX 12 12 0 -2
BITMAP
0000
0000
0000
0000
0000
7DC0
0F60
7FF0
EF00
EF30
7DE0
0000
ENDCHAR
STARTCHAR 00E7
ENCODING 231
SWIDTH 720 0
DWIDTH 12 0
BBX 12 12 0 -2
BITMAP
0000
0000
0000
0000
0000
1F80
3980
3800
3980
1F00
0600
1C00
ENDCHAR
STARTCHAR 00E8
ENCODING 232
SWIDTH 720 0
DWIDTH 12 0
BBX 12 12 0 -2
BITMAP
0000
0000
0C00
0600
0300
1F80
39C0
3FC0
3800
38C0
1F80
0000
ENDCHAR
STARTCHAR 00E9
ENCODING 233
SWIDTH 720 0
DWIDTH 12 0
BBX 12 12 0 -2
BITMAP
0000
0000
0300
0600
0C00
1F80
39C0
3FC0
3800
38C0
1F80
0000
ENDCHAR
STARTCHAR 00EA
ENCODING 234
SWIDTH 720 0
DWIDTH 12 0
BBX 12 12 0 -2
BITMAP
0000
0000
0600
0D00
1980
1F80
39C0
3FC0
3800
38C0
1F80
0000
ENDCHAR
STARTCHAR 00EB
ENCODING 235
SWIDTH 720 0
DWIDTH 12 0
BBX 12 12 0 -2
BITMAP
0000
0000
1D80
1D80
0000
1F80
39C0
3FC0
3800
38C0
1F80
0000
ENDCHAR
STARTCHAR 00EC
ENCODING 236
SWIDTH 720 0
DWIDTH 12 0
BBX 12 12 0 -2
BITMAP
0000
0000
1800
0C00
0600
1E00
0E00
0E00
0E00
0E00
1F00
0000
ENDCHAR
STARTCHAR 00ED
ENCODING 237
SWIDTH 720 0
DWIDTH 12 0
BBX 12 12 0 -2
BITMAP
0000
0000
0600
0C00
1800
1E00
0E00
0E00
0E00
0E00
1F00
0000
ENDCHAR
STARTCHAR 00EE
ENCODING 238
SWIDTH 720 0
DWIDTH 12 0
BBX 12 12 0 -2
BITMAP
0000
0000
0C00
1A00
3300
1E00
0E00
0E00
0E00
0E00
1F00
0000
ENDCHAR
STARTCHAR 00EF
ENCODING 239
SWIDTH 720 0
DWIDTH 12 0
BBX 12 12 0 -2
BITMAP
0000
0000
3B00
3B00
0000
1E00
0E00
0E00
0E00
0E00
1F00
0000
ENDCHAR
STARTCHAR 00F0
ENCODING 240
SWIDTH 720 0
DWIDTH 12 0
BBX 12 12 0 -2
BITMAP
0000
1DC0
0700
1D80
0180
0EC0
1BC0
39C0
39C0
39C0
1B80
0E00
ENDCHAR
STARTCHAR 00F1
ENCODING 241
SWIDTH 720 0
DWIDTH 12 0
BBX 12 12 0 -2
BITMAP
0000
0000
1D80
3700
0000
3B80
1DC0
1DC0
1DC0
1DC0
3DE0
0000
ENDCHAR
STARTCHAR 00F2
ENCODING 242
SWIDTH 720 0
DWIDTH 12 0
BBX 12 12 0 -2
BITMAP
0000
0000
0C00
0600
0300
1F80
39C0
39C0
39C0
39C0
1F80
0000
ENDCHAR
STARTCHAR 00F3
ENCODING 243
SWIDTH 720 0
DWIDTH 12 0
BBX 12 12 0 -2
BITMAP
0000
0000
0300
0600
0C00
1F80
39C0
39C0
39C0
39C0
1F80
0000
ENDCHAR
STARTCHAR 00F4
ENCODING 244
SWIDTH 720 0
DWIDTH 12 0
BBX 12 12 0 -2
BITMAP
0000
0000
0600
0D00
1980
1F80
39C0
39C0
39C0
39C0
1F80
0000
ENDCHAR
STARTCHAR 00F5
ENCODING 245
SWIDTH 720 0
DWIDTH 12 0
BBX 12 12 0 -2
BITMAP
0000
0000
1D80
3700
0000
1F80
39C0
39C0
39C0
39C0
1F80
0000
ENDCHAR
STARTCHAR 00F6
ENCODING 246
SWIDTH 720 0
DWIDTH 12 0
BBX 12 12 0 -2
BITMAP
0000
0000
1D80
1D80
0000
1F80
39C0
39C0
39C0
39C0
1F80
0000
ENDCHAR
STARTCHAR 00F7
ENCODING 247
SWIDTH 720 0
DWIDTH 12 0
BBX 12 12 0 -2
BITMAP
0000
0000
0000
0600
0600
0000
7FE0
0000
0600
0600
0000
0000
ENDCHAR
STARTCHAR 00F8
ENCODING 248
SWIDTH 720 0
DWIDTH 12 0
BBX 12 12 0 -2
BITMAP
0000
0000
0000
0000
00C0
1F80
3BC0
3AC0
3AC0
3DC0
1F80
3000
ENDCHAR
STARTCHAR 00F9
ENCODING 249
SWIDTH 720 0
DWIDTH 12 0
BBX 12 12 0 -2
BITMAP
0000
0000
0C00
0600
0300
3DC0
1DC0
1DC0
1DC0
1DC0
0F60
0000
ENDCHAR
STARTCHAR 00FA
ENCODING 250
SWIDTH 720 0
DWIDTH 12 0
BBX 12 12 0 -2
BITMAP
0000
0000
0300
0600
0C00
3DC0
1DC0
1DC0
1DC0
1DC0
0F60
0000
ENDCHAR
STARTCHAR 00FB
ENCODING 251
SWIDTH 720 0
DWIDTH 12 0
BBX 12 12 0 -2
BITMAP
0000
0000
0600
0D00
1980
3DC0
1DC0
1DC0
1DC0
1DC0
0F60
0000
ENDCHAR
STARTCHAR 00FC
ENCODING 252
SWIDTH 720 0
DWIDTH 12 0
BBX 12 12 0 -2
BITMAP
0000
0000
1D80
1D80
0000
3DC0
1DC0
1DC0
1DC0
1DC0
0F60
0000
ENDCHAR
STARTCHAR 00FD
ENCODING 253
SWIDTH 720 0
DWIDTH 12 0
BBX 12 12 0 -2
BITMAP
0000
0000
0180
0300
0600
3DE0
1CC0
0E80
0F80
0700
3A00
3C00
ENDCHAR
STARTCHAR 00FE
ENCODING 254
SWIDTH 720 0
DWIDTH 12 0
BBX 12 12 0 -2
BITMAP
0000
3C00
1C00
1C00
1C00
1F80
1DC0
1DC0
1DC0
1F80
1C00
3E00
ENDCHAR
STARTCHAR 00FF
ENCODING 255
SWIDTH 720 0
DWIDTH 12 0
BBX 12 12 0 -2
BITMAP
0000
0000
1D80
1D80
0000
3DE0
1CC0
0E80
0F80
0700
3A00
3C00
ENDCHAR
STARTCHAR 0100
ENCODING 256
SWIDTH 720 0
DWIDTH 12 0
BBX 12 12 0 -2
BITMAP
0000
1F80
0000
0700
0F00
0D80
1B80
3F80
31C0
71C0
F9E0
0000
ENDCHAR
STARTCHAR 0101
ENCODING 257
SWIDTH 720 0
DWIDTH 12 0
BBX 12 12 0 -2
BITMAP
0000
0000
0000
1F00
0000
1F00
0380
1F80
3B80
3B80
1EC0
0000
ENDCHAR
STARTCHAR 0102
ENCODING 258
SWIDTH 720 0
DWIDTH 12 0
BBX 12 12 0 -2
BITMAP
0000
1B00
0E00
0000
0F00
0D80
1B80
3F80
31C0
71C0
F9E0
0000
ENDCHAR
STARTCHAR 0103
ENCODING 259
SWIDTH 720 0
DWIDTH 12 0
BBX 12 12 0 -2
BITMAP
0000
0000
1B00
0E00
0000
1F00
0380
1F80
3B80
3B80
1EC0
0000
ENDCHAR
STARTCHAR 0104
ENCODING 260
SWIDTH 720 0
DWIDTH 12 0
BBX 12 12 0 -2
BITMAP
0000
0600
0600
0F00
0F00
1B80
1F80
3B80
31C0
F9E0
00C0
0070
ENDCHAR
STARTCHAR 0105
ENCODING 261
SWIDTH 720 0
DWIDTH 12 0
BBX 12 12 0 -2
BITMAP
0000
0000
0000
0000
0000
1F00
0380
1F80
3B80
3B80
1E80
00E0
ENDCHAR
STARTCHAR 0106
ENCODING 262
SWIDTH 720 0
DWIDTH 12 0
BBX 12 12 0 -2
BITMAP
0000
0600
0C00
0F40
19C0
38C0
7000
7000
38C0
19C0
0F00
0000
ENDCHAR
STARTCHAR 0107
ENCODING 263
SWIDTH 720 0
DWIDTH 12 0
BBX 12 12 0 -2
BITMAP
0000
0000
0300
0600
0C00
1F80
3980
3800
3800
3980
1F00
0000
ENDCHAR
STARTCHAR 0108
ENCODING 264
SWIDTH 720 0
DWIDTH 12 0
BBX 12 12 0 -2
BITMAP
0000
0600
0D00
1980
1F40
39C0
70C0
7000
38C0
19C0
0F00
0000
ENDCHAR
STARTCHAR 0109
ENCODING 265
SWIDTH 720 0
DWIDTH 12 0
BBX 12 12 0 -2
BITMAP
0000
0000
0600
0D00
1980
1F80
3980
3800
3800
3980
1F00
0000
ENDCHAR
STARTCHAR 010C
ENCODING 268
SWIDTH 720 0
DWIDTH 12 0
BBX 12 12 0 -2
BITMAP
0000
1980
0D00
0F40
19C0
38C0
7000
7000
38C0
19C0
0F00
0000
ENDCHAR
STARTCHAR 010D
ENCODING 269
SWIDTH 720 0
DWIDTH 12 0
BBX 12 12 0 -2
BITMAP
0000
0000
1980
0D00
0600
1F80
3980
3800
3800
3980
1F00
0000
ENDCHAR
STARTCHAR 010E
ENCODING 270
SWIDTH 720 0
DWIDTH 12 0
BBX 12 12 0 -2
BITMAP
0000
1980
0D00
7F00
3980
38C0
38E0
38E0
38C0
3980
7F00
0000
ENDCHAR
STARTCHAR 010F
ENCODING 271
SWIDTH 720 0
DWIDTH 12 0
BBX 12 12 0 -2
BITMAP
0000
3300
1A00
0F80
0380
1F80
3B80
3B80
3B80
3B80
1FC0
0000
ENDCHAR
STARTCHAR 0111
ENCODING 273
SWIDTH 720 0
DWIDTH 12 0
BBX 12 12 0 -2
BITMAP
0000
0780
0380
1FC0
0380
1F80
3B80
3B80
3B80
3B80
1FC0
0000
ENDCHAR
STARTCHAR 0112
ENCODING 274
SWIDTH 720 0
DWIDTH 12 0
BBX 12 12 0 -2
BITMAP
0000
1F80
0000
7FC0
3860
3B00
3F00
3B00
3860
38C0
7FC0
0000
ENDCHAR
STARTCHAR 0113
ENCODING 275
SWIDTH 720 0
DWIDTH 12 0
BBX 12 12 0 -2
BITMAP
0000
0000
0000
1F80
0000
1F80
39C0
3FC0
3800
38C0
1F80
0000
ENDCHAR
STARTCHAR 0118
ENCODING 280
SWIDTH 720 0
DWIDTH 12 0
BBX 12 12 0 -2
BITMAP
0000
7FC0
3860
3800
3B00
3F00
3B00
3860
38C0
7FC0
0180
00E0
ENDCHAR
STARTCHAR 0119
ENCODING 281
SWIDTH 720 0
DWIDTH 12 0
BBX 12 12 0 -2
BITMAP
0000
0000
0000
0000
0000
1F80
39C0
3FC0
3800
38C0
1F80
01E0
ENDCHAR
STARTCHAR 011A
ENCODING 282
SWIDTH 720 0
DWIDTH 12 0
BBX 12 12 0 -2
BITMAP
0000
1980
0D00
7FC0
3860
3B00
3F00
3B00
3860
38C0
7FC0
0000
ENDCHAR
STARTCHAR 011B
ENCODING 283
SWIDTH 720 0
DWIDTH 12 0
BBX 12 12 0 -2
BITMAP
0000
0000
1980
0D00
0600
1F80
39C0
3FC0
3800
38C0
1F80
0000
ENDCHAR
STARTCHAR 011C
ENCODING 284
SWIDTH 720 0
DWIDTH 12 0
BBX 12 12 0 -2
BITMAP
0000
0600
0D00
1980
1F40
39C0
7000
73E0
39C0
19C0
0F40
0000
ENDCHAR
STARTCHAR 011D
ENCODING 285
SWIDTH 720 0
DWIDTH 12 0
BBX 12 12 0 -2
BITMAP
0000
0000
0600
0D00
19C0
1F80
3B80
3B00
1E00
3F80
31C0
1F80
ENDCHAR
STARTCHAR 0124
ENCODING 292
SWIDTH 720 0
DWIDTH 12 0
BBX 12 12 0 -2
BITMAP
0000
0600
0D00
79E0
39C0
39C0
3FC0
39C0
39C0
39C0
79E0
0000
ENDCHAR
STARTCHAR 0125
ENCODING 293
SWIDTH 720 0
DWIDTH 12 0
BBX 12 12 0 -2
BITMAP
0000
3D00
1E80
1CC0
1C00
1F80
1DC0
1DC0
1DC0
1DC0
3DE0
0000
ENDCHAR
STARTCHAR 0127
ENCODING 295
SWIDTH 720 0
DWIDTH 12 0
BBX 12 12 0 -2
BITMAP
0000
3C00
1C00
3F00
1C00
1F80
1DC0
1DC0
1DC0
1DC0
3DE0
0000
ENDCHAR
STARTCHAR 012A
ENCODING 298
SWIDTH 720 0
DWIDTH 12 0
BBX 12 12 0 -2
BITMAP
0000
1F00
0000
1F00
0E00
0E00
0E00
0E00
0E00
0E00
1F00
0000
ENDCHAR
STARTCHAR 012B
ENCODING 299
SWIDTH 720 0
DWIDTH 12 0
BBX 12 12 0 -2
BITMAP
0000
0000
0000
1F00
0000
1E00
0E00
0E00
0E00
0E00
1F00
0000
ENDCHAR
STARTCHAR 0134
ENCODING 308
SWIDTH 720 0
DWIDTH 12 0
BBX 12 12 0 -2
BITMAP
0000
0600
0D00
1BC0
0380
0380
0380
0380
3380
3B00
1E00
0000
ENDCHAR
STARTCHAR 0135
ENCODING 309
SWIDTH 720 0
DWIDTH 12 0
BBX 12 12 0 -2
BITMAP
0000
0000
0600
0D00
1980
0F00
0700
0700
0700
0700
6600
7C00
ENDCHAR
STARTCHAR 0139
ENCODING 313
SWIDTH 720 0
DWIDTH 12 0
BBX 12 12 0 -2
BITMAP
0000
0180
7D00
3A00
3800
3800
3800
3800
3860
38C0
7FC0
0000
ENDCHAR
STARTCHAR 013A
ENCODING 314
SWIDTH 720 0
DWIDTH 12 0
BBX 12 12 0 -2
BITMAP
0000
0600
0C00
1E00
0E00
0E00
0E00
0E00
0E00
0E00
1F00
0000
ENDCHAR
STARTCHAR 013D
ENCODING 317
SWIDTH 720 0
DWIDTH 12 0
BBX 12 12 0 -2
BITMAP
0000
7CC0
3A80
3B00
3800
3800
3800
3800
3860
38C0
7FC0
0000
ENDCHAR
STARTCHAR 013E
ENCODING 318
SWIDTH 720 0
DWIDTH 12 0
BBX 12 12 0 -2
BITMAP
0000
1980
0D00
1E00
0E00
0E00
0E00
0E00
0E00
0E00
1F00
0000
ENDCHAR
STARTCHAR 0141
ENCODING 321
SWIDTH 720 0
DWIDTH 12 0
BBX 12 12 0 -2
BITMAP
0000
7800
3800
3800
3A00
3C00
7800
D800
3860
38C0
7FC0
0000
ENDCHAR
STARTCHAR 0142
ENCODING 322
SWIDTH 720 0
DWIDTH 12 0
BBX 12 12 0 -2
BITMAP
0000
1E00
0E00
0E00
0E80
0F00
1E00
3600
0E00
0E00
1F00
0000
ENDCHAR
STARTCHAR 0143
ENCODING 323
SWIDTH 720 0
DWIDTH 12 0
BBX 12 12 0 -2
BITMAP
0000
0300
76E0
3CC0
3CC0
36C0
3740
3740
33C0
31C0
78C0
0000
ENDCHAR
STARTCHAR 0144
ENCODING 324
SWIDTH 720 0
DWIDTH 12 0
BBX 12 12 0 -2
BITMAP
0000
0000
0300
0600
0C00
3B80
1DC0
1DC0
1DC0
1DC0
3DE0
0000
ENDCHAR
STARTCHAR 0147
ENCODING 327
SWIDTH 720 0
DWIDTH 12 0
BBX 12 12 0 -2
BITMAP
0000
1D80
7760
38C0
3CC0
36C0
3740
3740
33C0
31C0
78C0
0000
ENDCHAR
STARTCHAR 0148
ENCODING 328
SWIDTH 720 0
DWIDTH 12 0
BBX 12 12 0 -2
BITMAP
0000
0000
1980
0D00
0600
3B80
1DC0
1DC0
1DC0
1DC0
3DE0
0000
ENDCHAR
STARTCHAR 014B
ENCODING 331
SWIDTH 720 0
DWIDTH 12 0
BBX 12 12 0 -2
BITMAP
0000
0000
0000
0000
0000
3B80
1DC0
1DC0
1DC0
1DC0
3D80
0700
ENDCHAR
STARTCHAR 014C
ENCODING 332
SWIDTH 720 0
DWIDTH 12 0
BBX 12 12 0 -2
BITMAP
0000
1F80
0000
0F00
39C0
70E0
70E0
70E0
70E0
39C0
0F00
0000
ENDCHAR
STARTCHAR 014D
ENCODING 333
SWIDTH 720 0
DWIDTH 12 0
BBX 12 12 0 -2
BITMAP
0000
0000
0000
1F80
0000
0F00
1980
39C0
39C0
1980
0F00
0000
ENDCHAR
STARTCHAR 0150
ENCODING 336
SWIDTH 720 0
DWIDTH 12 0
BBX 12 12 0 -2
BITMAP
0000
0D80
1B00
0F00
39C0
70E0
70E0
70E0
70E0
39C0
0F00
0000
ENDCHAR
STARTCHAR 0151
ENCODING 337
SWIDTH 720 0
DWIDTH 12 0
BBX 12 12 0 -2
BITMAP
0000
0000
0D80
1B00
3600
0F00
1980
39C0
39C0
1980
0F00
0000
ENDCHAR
STARTCHAR 0152
ENCODING 338
SWIDTH 720 0
DWIDTH 12 0
BBX 12 12 0 -2
BITMAP
0000
3BC0
6E60
6E00
EEC0
EFC0
EEC0
EE00
6E60
6EC0
3BC0
0000
ENDCHAR
STARTCHAR 0153
ENCODING 339
SWIDTH 720 0
DWIDTH 12 0
BBX 12 12 0 -2
BITMAP
0000
0000
0000
0000
0000
7DC0
EEE0
EFE0
EE00
EE60
7DC0
0000
ENDCHAR
STARTCHAR 0154
ENCODING 340
SWIDTH 720 0
DWIDTH 12 0
BBX 12 12 0 -2
BITMAP
0000
0300
0600
7FC0
38E0
38E0
3FC0
3B80
39C0
39C0
7DE0
0000
ENDCHAR
STARTCHAR 0155
ENCODING 341
SWIDTH 720 0
DWIDTH 12 0
BBX 12 12 0 -2
BITMAP
0000
0000
0300
0600
0C00
3BC0
1DC0
1C00
1C00
1C00
3E00
0000
ENDCHAR
STARTCHAR 0158
ENCODING 344
SWIDTH 720 0
DWIDTH 12 0
BBX 12 12 0 -2
BITMAP
0000
1980
0D00
7FC0
38E0
38E0
3FC0
3B80
39C0
39C0
7DE0
0000
ENDCHAR
STARTCHAR 0159
ENCODING 345
SWIDTH 720 0
DWIDTH 12 0
BBX 12 12 0 -2
BITMAP
0000
0000
1980
0D00
0600
3BC0
1DC0
1C00
1C00
1C00
3E00
0000
ENDCHAR
STARTCHAR 015A
ENCODING 346
SWIDTH 720 0
DWIDTH 12 0
BBX 12 12 0 -2
BITMAP
0000
0600
0C00
0E80
1B80
3980
3E00
0F80
33C0
3980
3700
0000
ENDCHAR
STARTCHAR 015B
ENCODING 347
SWIDTH 720 0
DWIDTH 12 0
BBX 12 12 0 -2
BITMAP
0000
0000
0300
0600
0C00
1FC0
39C0
1E00
0780
39C0
6F80
0000
ENDCHAR
STARTCHAR 015C
ENCODING 348
SWIDTH 720 0
DWIDTH 12 0
BBX 12 12 0 -2
BITMAP
0000
0600
0D00
1E80
1B80
3980
3E00
0F80
33C0
3980
3700
0000
ENDCHAR
STARTCHAR 015D
ENCODING 349
SWIDTH 720 0
DWIDTH 12 0
BBX 12 12 0 -2
BITMAP
0000
0000
0600
0D00
1980
1FC0
39C0
1E00
0780
39C0
6F80
0000
ENDCHAR
STARTCHAR 015E
ENCODING 350
SWIDTH 720 0
DWIDTH 12 0
BBX 12 12 0 -2
BITMAP
0000
0E80
1B80
3980
3C00
1F80
07C0
31C0
3980
3700
0600
1C00
ENDCHAR
STARTCHAR 015F
ENCODING 351
SWIDTH 720 0
DWIDTH 12 0
BBX 12 12 0 -2
BITMAP
0000
0000
0000
0000
1FC0
39C0
1E00
0780
39C0
6F80
0300
0E00
ENDCHAR
STARTCHAR 0160
ENCODING 352
SWIDTH 720 0
DWIDTH 12 0
BBX 12 12 0 -2
BITMAP
0000
1980
0D00
0E80
1B80
3980
3E00
0F80
33C0
3980
3700
0000
ENDCHAR
STARTCHAR 0161
ENCODING 353
SWIDTH 720 0
DWIDTH 12 0
BBX 12 12 0 -2
BITMAP
0000
0000
1980
0D00
0600
1FC0
39C0
1E00
0780
39C0
6F80
0000
ENDCHAR
STARTCHAR 0162
ENCODING 354
SWIDTH 720 0
DWIDTH 12 0
BBX 12 12 0 -2
BITMAP
0000
7FC0
6EC0
CE60
0E00
0E00
0E00
0E00
0E00
1F00
0C00
3800
ENDCHAR
STARTCHAR 0163
ENCODING 355
SWIDTH 720 0
DWIDTH 12 0
BBX 12 12 0 -2
BITMAP
0000
0000
0600
0E00
0E00
3F80
0E00
0E00
0EC0
0780
0600
1C00
ENDCHAR
STARTCHAR 0164
ENCODING 356
SWIDTH 720 0
DWIDTH 12 0
BBX 12 12 0 -2
BITMAP
0000
1980
0D00
7FC0
6EC0
CE60
0E00
0E00
0E00
0E00
1F00
0000
ENDCHAR
STARTCHAR 0165
ENCODING 357
SWIDTH 720 0
DWIDTH 12 0
BBX 12 12 0 -2
BITMAP
0000
1980
0D00
0600
0E00
3F80
0E00
0E00
0E00
0EC0
0780
0000
ENDCHAR
STARTCHAR 016A
ENCODING 362
SWIDTH 720 0
DWIDTH 12 0
BBX 12 12 0 -2
BITMAP
0000
1F80
0000
7DE0
38C0
38C0
38C0
38C0
38C0
1DC0
0F00
0000
ENDCHAR
STARTCHAR 016B
ENCODING 363
SWIDTH 720 0
DWIDTH 12 0
BBX 12 12 0 -2
BITMAP
0000
0000
0000
1F80
0000
3DC0
1DC0
1DC0
1DC0
1DC0
0F60
0000
ENDCHAR
STARTCHAR 016C
ENCODING 364
SWIDTH 720 0
DWIDTH 12 0
BBX 12 12 0 -2
BITMAP
0000
1B00
0E00
79E0
38C0
38C0
38C0
38C0
38C0
1DC0
0F00
0000
ENDCHAR
STARTCHAR 016D
ENCODING 365
SWIDTH 720 0
DWIDTH 12 0
BBX 12 12 0 -2
BITMAP
0000
0000
1B00
0E00
0000
3DC0
1DC0
1DC0
1DC0
1DC0
0F60
0000
ENDCHAR
STARTCHAR 016E
ENCODING 366
SWIDTH 720 0
DWIDTH 12 0
BBX 12 12 0 -2
BITMAP
0000
0700
0D80
7DE0
3B40
38C0
38C0
38C0
38C0
1DC0
0F00
0000
ENDCHAR
STARTCHAR 016F
ENCODING 367
SWIDTH 720 0
DWIDTH 12 0
BBX 12 12 0 -2
BITMAP
0000
0000
1980
0D00
0600
3DC0
1DC0
1DC0
1DC0
1DC0
0F60
0000
ENDCHAR
STARTCHAR 0170
ENCODING 368
SWIDTH 720 0
DWIDTH 12 0
BBX 12 12 0 -2
BITMAP
0000
0D80
1B00
7DE0
38C0
38C0
38C0
38C0
38C0
1DC0
0F00
0000
ENDCHAR
STARTCHAR 0171
ENCODING 369
SWIDTH 720 0
DWIDTH 12 0
BBX 12 12 0 -2
BITMAP
0000
0000
0D80
1B00
3600
3DC0
1DC0
1DC0
1DC0
1DC0
0F60
0000
ENDCHAR
STARTCHAR 0179
ENCODING 377
SWIDTH 720 0
DWIDTH 12 0
BBX 12 12 0 -2
BITMAP
0000
0300
0600
3FC0
3380
6700
0E00
1C00
1860
38C0
7FC0
0000
ENDCHAR
STARTCHAR 017A
ENCODING 378
SWIDTH 720 0
DWIDTH 12 0
BBX 12 12 0 -2
BITMAP
0000
0000
0300
0600
0C00
1FC0
3380
0700
0E00
1CC0
3F80
0000
ENDCHAR
STARTCHAR 017B
ENCODING 379
SWIDTH 720 0
DWIDTH 12 0
BBX 12 12 0 -2
BITMAP
0000
0E00
0E00
3FC0
3380
6700
0E00
1C00
1860
38C0
7FC0
0000
ENDCHAR
STARTCHAR 017C
ENCODING 380
SWIDTH 720 0
DWIDTH 12 0
BBX 12 12 0 -2
BITMAP
0000
0000
0E00
0E00
0000
1FC0
3380
0700
0E00
1CC0
3F80
0000
ENDCHAR
STARTCHAR 017D
ENCODING 381
SWIDTH 720 0
DWIDTH 12 0
BBX 12 12 0 -2
BITMAP
0000
1980
0D00
3FC0
3380
6700
0E00
1C00
1860
38C0
7FC0
0000
ENDCHAR
STARTCHAR 017E
ENCODING 382
SWIDTH 720 0
DWIDTH 12 0
BBX 12 12 0 -2
BITMAP
0000
0000
1980
0D00
0600
1FC0
3380
0700
0E00
1CC0
3F80
0000
ENDCHAR
STARTCHAR 0193
ENCODING 403
SWIDTH 720 0
DWIDTH 12 0
BBX 12 12 0 -2
BITMAP
0000
0F60
19D0
38C0
7000
7000
73E0
71C0
39C0
19C0
0F40
0000
ENDCHAR
STARTCHAR 01C2
ENCODING 450
SWIDTH 720 0
DWIDTH 12 0
BBX 12 12 0 -2
BITMAP
0000
0000
0600
0600
1F80
0600
0600
1F80
0600
0600
0600
0000
ENDCHAR
STARTCHAR 01CD
ENCODING 461
SWIDTH 720 0
DWIDTH 12 0
BBX 12 12 0 -2
BITMAP
0000
1980
0D00
0F00
0D00
1B80
1F80
3B80
31C0
71C0
F9E0
0000
ENDCHAR
STARTCHAR 01CE
ENCODING 462
SWIDTH 720 0
DWIDTH 12 0
BBX 12 12 0 -2
BITMAP
0000
0000
1980
0D00
0600
1F00
0380
1F80
3B80
3B80
1EC0
0000
ENDCHAR
STARTCHAR 01D0
ENCODING 464
SWIDTH 720 0
DWIDTH 12 0
BBX 12 12 0 -2
BITMAP
0000
0000
3300
1A00
0C00
1E00
0E00
0E00
0E00
0E00
1F00
0000
ENDCHAR
STARTCHAR 01D1
ENCODING 465
SWIDTH 720 0
DWIDTH 12 0
BBX 12 12 0 -2
BITMAP
0000
1980
0D00
0600
0F00
39C0
70E0
70E0
70E0
39C0
0F00
0000
ENDCHAR
STARTCHAR 01D2
ENCODING 466
SWIDTH 720 0
DWIDTH 12 0
BBX 12 12 0 -2
BITMAP
0000
0000
1980
0D00
0600
1F80
39C0
39C0
39C0
39C0
1F80
0000
ENDCHAR
STARTCHAR 01D4
ENCODING 468
SWIDTH 720 0
DWIDTH 12 0
BBX 12 12 0 -2
BITMAP
0000
0000
1980
0D00
0600
3DC0
1DC0
1DC0
1DC0
1DC0
0F60
0000
ENDCHAR
STARTCHAR 01D6
ENCODING 470
SWIDTH 720 0
DWIDTH 12 0
BBX 12 12 0 -2
BITMAP
0000
1F80
0000
1D80
1D80
0000
3DC0
1DC0
1DC0
1DC0
0F60
0000
ENDCHAR
STARTCHAR 01D8
ENCODING 472
SWIDTH 720 0
DWIDTH 12 0
BBX 12 12 0 -2
BITMAP
0000
0300
0600
1D80
1D80
0000
3DC0
1DC0
1DC0
1DC0
0F60
0000
ENDCHAR
STARTCHAR 01DA
ENCODING 474
SWIDTH 720 0
DWIDTH 12 0
BBX 12 12 0 -2
BITMAP
0000
1980
0D00
1F80
1D80
0000
3DC0
1DC0
1DC0
1DC0
0F60
0000
ENDCHAR
STARTCHAR 01DC
ENCODING 476
SWIDTH 720 0
DWIDTH 12 0
BBX 12 12 0 -2
BITMAP
0000
0C00
0600
1D80
1D80
0000
3DC0
1DC0
1DC0
1DC0
0F60
0000
ENDCHAR
STARTCHAR 01F8
ENCODING 504
SWIDTH 720 0
DWIDTH 12 0
BBX 12 12 0 -2
BITMAP
0000
0C00
76E0
3B40
3CC0
36C0
3740
3740
33C0
31C0
78C0
0000
ENDCHAR
STARTCHAR 01F9
ENCODING 505
SWIDTH 720 0
DWIDTH 12 0
BBX 12 12 0 -2
BITMAP
0000
0000
0C00
0600
0300
3B80
1DC0
1DC0
1DC0
1DC0
3DE0
0000
ENDCHAR
STARTCHAR 01FD
ENCODING 509
SWIDTH 720 0
DWIDTH 12 0
BBX 12 12 0 -2
BITMAP
0000
0300
0600
0C00
0000
7DC0
0F60
7FF0
EF00
EF30
7DE0
0000
ENDCHAR
STARTCHAR 0250
ENCODING 592
SWIDTH 720 0
DWIDTH 12 0
BBX 12 12 0 -2
BITMAP
0000
0000
0000
0000
0000
3B80
1DC0
1DC0
1F80
1C00
0F80
0000
ENDCHAR
STARTCHAR 0251
ENCODING 593
SWIDTH 720 0
DWIDTH 12 0
BBX 12 12 0 -2
BITMAP
0000
0000
0000
0000
0000
1E80
3B80
3B80
3B80
3B80
1EC0
0000
ENDCHAR
STARTCHAR 0252
ENCODING 594
SWIDTH 720 0
DWIDTH 12 0
BBX 12 12 0 -2
BITMAP
0000
0000
0000
0000
0000
7700
3B80
3B80
3B80
3B80
3700
0000
ENDCHAR
STARTCHAR 0253
ENCODING 595
SWIDTH 720 0
DWIDTH 12 0
BBX 12 12 0 -2
BITMAP
0000
07C0
0CC0
1C00
1C00
1F80
1DC0
1DC0
1DC0
1DC0
3F80
0000
ENDCHAR
STARTCHAR 0254
ENCODING 596
SWIDTH 720 0
DWIDTH 12 0
BBX 12 12 0 -2
BITMAP
0000
0000
0000
0000
0000
1F00
3380
0380
0380
3380
3F00
0000
ENDCHAR
STARTCHAR 0255
ENCODING 597
SWIDTH 720 0
DWIDTH 12 0
BBX 12 12 0 -2
BITMAP
0000
0000
0000
0000
0000
1F80
3980
3800
3B00
3D80
1F00
1800
ENDCHAR
STARTCHAR 0256
ENCODING 598
SWIDTH 720 0
DWIDTH 12 0
BBX 12 12 0 -2
BITMAP
0000
0780
0380
0380
0380
1F80
3B80
3B80
3B80
3B80
1FA0
01E0
ENDCHAR
STARTCHAR 0257
ENCODING 599
SWIDTH 720 0
DWIDTH 12 0
BBX 12 12 0 -2
BITMAP
0000
01E0
03A0
0380
0380
1F80
3B80
3B80
3B80
3B80
1FC0
0000
ENDCHAR
STARTCHAR 0258
ENCODING 600
SWIDTH 720 0
DWIDTH 12 0
BBX 12 12 0 -2
BITMAP
0000
0000
0000
0000
0000
1F80
39C0
3FC0
01C0
31C0
1F80
0000
ENDCHAR
STARTCHAR 0259
ENCODING 601
SWIDTH 720 0
DWIDTH 12 0
BBX 12 12 0 -2
BITMAP
0000
0000
0000
0000
0000
1F80
31C0
01C0
3FC0
39C0
1F80
0000
ENDCHAR
STARTCHAR 025A
ENCODING 602
SWIDTH 720 0
DWIDTH 12 0
BBX 12 12 0 -2
BITMAP
0000
0000
0000
0000
0000
1F60
33E0
0FA0
3BB0
3380
1F00
0000
ENDCHAR
STARTCHAR 025C
ENCODING 604
SWIDTH 720 0
DWIDTH 12 0
BBX 12 12 0 -2
BITMAP
0000
0000
0000
0000
0000
1F80
31C0
0780
01C0
31C0
1F80
0000
ENDCHAR
STARTCHAR 025E
ENCODING 606
SWIDTH 720 0
DWIDTH 12 0
BBX 12 12 0 -2
BITMAP
0000
0000
0000
0000
0000
1F80
31C0
3780
31C0
31C0
1F80
0000
ENDCHAR
STARTCHAR 025F
ENCODING 607
SWIDTH 720 0
DWIDTH 12 0
BBX 12 12 0 -2
BITMAP
0000
0000
0000
0000
0000
1F80
0700
0700
1F80
0700
6600
7C00
ENDCHAR
STARTCHAR 0260
ENCODING 608
SWIDTH 720 0
DWIDTH 12 0
BBX 12 12 0 -2
BITMAP
0000
0000
0000
0060
00D0
1F40
39C0
39C0
19C0
0FC0
1980
1F00
ENDCHAR
STARTCHAR 0261
ENCODING 609
SWIDTH 720 0
DWIDTH 12 0
BBX 12 12 0 -2
BITMAP
0000
0000
0000
0000
0000
1F40
39C0
39C0
19C0
0FC0
1980
1F00
ENDCHAR
STARTCHAR 0264
ENCODING 612
SWIDTH 720 0
DWIDTH 12 0
BBX 12 12 0 -2
BITMAP
0000
0000
0000
0000
7BC0
3180
1B00
1B00
0E00
0E00
0E00
0000
ENDCHAR
STARTCHAR 0265
ENCODING 613
SWIDTH 720 0
DWIDTH 12 0
BBX 12 12 0 -2
BITMAP
0000
3DE0
1DC0
1DC0
1DC0
1DC0
0FC0
01C0
01C0
01C0
01E0
0000
ENDCHAR
STARTCHAR 0266
ENCODING 614
SWIDTH 720 0
DWIDTH 12 0
BBX 12 12 0 -2
BITMAP
0000
07C0
0CC0
1C00
1C00
1F80
1DC0
1DC0
1DC0
1DC0
3DE0
0000
ENDCHAR
STARTCHAR 0267
ENCODING 615
SWIDTH 720 0
DWIDTH 12 0
BBX 12 12 0 -2
BITMAP
0000
07C0
0CC0
1C00
1C00
1F80
1DC0
1DC0
1DC0
1DC0
3DC0
0780
ENDCHAR
STARTCHAR 0268
ENCODING 616
SWIDTH 720 0
DWIDTH 12 0
BBX 12 12 0 -2
BITMAP
0000
0600
0F00
0600
0000
1E00
0E00
3F80
0E00
0E00
1F00
0000
ENDCHAR
STARTCHAR 026C
ENCODING 620
SWIDTH 720 0
DWIDTH 12 0
BBX 12 12 0 -2
BITMAP
0000
1E00
0E00
0E00
1E00
3600
3600
1FC0
0E00
0E00
1F00
0000
ENDCHAR
STARTCHAR 026D
ENCODING 621
SWIDTH 720 0
DWIDTH 12 0
BBX 12 12 0 -2
BITMAP
0000
1E00
0E00
0E00
0E00
0E00
0E00
0E00
0E00
0E00
0E80
0780
ENDCHAR
STARTCHAR 026E
ENCODING 622
SWIDTH 720 0
DWIDTH 12 0
BBX 12 12 0 -2
BITMAP
0000
7800
3800
3800
3800
3FC0
3B80
3B00
3B80
39C0
7DC0
1F80
ENDCHAR
STARTCHAR 026F
ENCODING 623
SWIDTH 720 0
DWIDTH 12 0
BBX 12 12 0 -2
BITMAP
0000
0000
0000
0000
0000
7B70
3B60
3B60
3B60
3B60
1DB0
0000
ENDCHAR
STARTCHAR 0270
ENCODING 624
SWIDTH 720 0
DWIDTH 12 0
BBX 12 12 0 -2
BITMAP
0000
0000
0000
0000
0000
7B70
3B60
3B60
3B60
3B60
1DE0
00F0
ENDCHAR
STARTCHAR 0271
ENCODING 625
SWIDTH 720 0
DWIDTH 12 0
BBX 12 12 0 -2
BITMAP
0000
0000
0000
0000
0000
76C0
3B60
3B60
3B60
3B60
7B60
01C0
ENDCHAR
STARTCHAR 0272
ENCODING 626
SWIDTH 720 0
DWIDTH 12 0
BBX 12 12 0 -2
BITMAP
0000
0000
0000
0000
0000
3B80
1DC0
1DC0
1DC0
1DC0
6DE0
7800
ENDCHAR
STARTCHAR 0273
ENCODING 627
SWIDTH 720 0
DWIDTH 12 0
BBX 12 12 0 -2
BITMAP
0000
0000
0000
0000
0000
7700
3B80
3B80
3B80
3B80
7BA0
01E0
ENDCHAR
STARTCHAR 0275
ENCODING 629
SWIDTH 720 0
DWIDTH 12 0
BBX 12 12 0 -2
BITMAP
0000
0000
0000
0000
0000
1F80
39C0
3FC0
39C0
39C0
1F80
0000
ENDCHAR
STARTCHAR 0279
ENCODING 633
SWIDTH 720 0
DWIDTH 12 0
BBX 12 12 0 -2
BITMAP
0000
0000
0000
0000
0000
0F80
0700
0700
0700
7700
7D80
0000
ENDCHAR
STARTCHAR 027A
ENCODING 634
SWIDTH 720 0
DWIDTH 12 0
BBX 12 12 0 -2
BITMAP
0000
0F80
0700
0700
0700
0700
0700
0700
0700
7700
7D80
0000
ENDCHAR
STARTCHAR 027B
ENCODING 635
SWIDTH 720 0
DWIDTH 12 0
BBX 12 12 0 -2
BITMAP
0000
0000
0000
0000
0000
0F80
0700
0700
0700
7700
7D40
01C0
ENDCHAR
STARTCHAR 027D
ENCODING 637
SWIDTH 720 0
DWIDTH 12 0
BBX 12 12 0 -2
BITMAP
0000
0000
0000
0000
0000
3BC0
1DC0
1C00
1C00
1C00
1D00
0F00
ENDCHAR
STARTCHAR 027E
ENCODING 638
SWIDTH 720 0
DWIDTH 12 0
BBX 12 12 0 -2
BITMAP
0000
0000
0000
0000
0000
0780
0EC0
0EC0
0E00
0E00
1F00
0000
ENDCHAR
STARTCHAR 0281
ENCODING 641
SWIDTH 720 0
DWIDTH 12 0
BBX 12 12 0 -2
BITMAP
0000
0000
0000
0000
3DC0
1DC0
1F80
1DC0
1DC0
1DC0
1B80
0000
ENDCHAR
STARTCHAR 0282
ENCODING 642
SWIDTH 720 0
DWIDTH 12 0
BBX 12 12 0 -2
BITMAP
0000
0000
0000
0000
1FC0
39C0
1E00
0780
39C0
3F80
3000
1C00
ENDCHAR
STARTCHAR 0283
ENCODING 643
SWIDTH 720 0
DWIDTH 12 0
BBX 12 12 0 -2
BITMAP
0000
0780
0EC0
0E00
0E00
0E00
0E00
0E00
0E00
0E00
7600
3C00
ENDCHAR
STARTCHAR 0284
ENCODING 644
SWIDTH 720 0
DWIDTH 12 0
BBX 12 12 0 -2
BITMAP
0000
0000
0000
0000
03C0
06C0
0E00
0E00
0E00
1F00
6E00
7C00
ENDCHAR
STARTCHAR 0288
ENCODING 648
SWIDTH 720 0
DWIDTH 12 0
BBX 12 12 0 -2
BITMAP
0000
0000
0600
0E00
0E00
3F80
0E00
0E00
0E00
0E00
0EC0
0780
ENDCHAR
STARTCHAR 0289
ENCODING 649
SWIDTH 720 0
DWIDTH 12 0
BBX 12 12 0 -2
BITMAP
0000
0000
0000
0000
0000
3DC0
1DC0
7FE0
1DC0
1DC0
0F60
0000
ENDCHAR
STARTCHAR 028A
ENCODING 650
SWIDTH 720 0
DWIDTH 12 0
BBX 12 12 0 -2
BITMAP
0000
0000
0000
0000
0000
3DC0
3540
1980
39C0
39C0
1F80
0000
ENDCHAR
STARTCHAR 028B
ENCODING 651
SWIDTH 720 0
DWIDTH 12 0
BBX 12 12 0 -2
BITMAP
0000
0000
0000
0000
0000
3DC0
1DC0
1DC0
1DC0
1D80
0F00
0000
ENDCHAR
STARTCHAR 028C
ENCODING 652
SWIDTH 720 0
DWIDTH 12 0
BBX 12 12 0 -2
BITMAP
0000
0000
0000
0000
0000
0C00
0E00
1F00
1B00
3380
7BC0
0000
ENDCHAR
STARTCHAR 028D
ENCODING 653
SWIDTH 720 0
DWIDTH 12 0
BBX 12 12 0 -2
BITMAP
0000
0000
0000
0000
0000
1B00
1D80
3DC0
3EC0
6EE0
F6F0
0000
ENDCHAR
STARTCHAR 028E
ENCODING 654
SWIDTH 720 0
DWIDTH 12 0
BBX 12 12 0 -2
BITMAP
0000
0000
0000
01E0
0360
0700
0780
0F80
0DC0
19C0
3DE0
0000
ENDCHAR
STARTCHAR 0290
ENCODING 656
SWIDTH 720 0
DWIDTH 12 0
BBX 12 12 0 -2
BITMAP
0000
0000
0000
0000
0000
1FC0
3380
0700
0E00
1CC0
3F80
00E0
ENDCHAR
STARTCHAR 0291
ENCODING 657
SWIDTH 720 0
DWIDTH 12 0
BBX 12 12 0 -2
BITMAP
0000
0000
0000
0000
0000
1FC0
3380
0700
0EC0
1D40
3FC0
0600
ENDCHAR
STARTCHAR 0292
ENCODING 658
SWIDTH 720 0
DWIDTH 12 0
BBX 12 12 0 -2
BITMAP
0000
0000
0000
0000
0000
3F80
3700
0E00
0F00
7380
7380
3F00
ENDCHAR
STARTCHAR 0294
ENCODING 660
SWIDTH 720 0
DWIDTH 12 0
BBX 12 12 0 -2
BITMAP
0000
1F00
3380
71C0
71C0
0380
0F00
0E00
0E00
0E00
1F00
0000
ENDCHAR
STARTCHAR 0295
ENCODING 661
SWIDTH 720 0
DWIDTH 12 0
BBX 12 12 0 -2
BITMAP
0000
1F00
3980
71C0
71C0
3800
1E00
0E00
0E00
0E00
1F00
0000
ENDCHAR
STARTCHAR 0298
ENCODING 664
SWIDTH 720 0
DWIDTH 12 0
BBX 12 12 0 -2
BITMAP
0000
0000
0000
0F00
1980
30C0
36C0
36C0
30C0
1980
0F00
0000
ENDCHAR
STARTCHAR 029D
ENCODING 669
SWIDTH 720 0
DWIDTH 12 0
BBX 12 12 0 -2
BITMAP
0000
0600
0F00
0600
0000
0F00
0700
0700
0700
3F80
3600
1C00
ENDCHAR
STARTCHAR 02A1
ENCODING 673
SWIDTH 720 0
DWIDTH 12 0
BBX 12 12 0 -2
BITMAP
0000
1F00
3380
71C0
71C0
0380
0F00
0E00
3F80
0E00
1F00
0000
ENDCHAR
STARTCHAR 02A2
ENCODING 674
SWIDTH 720 0
DWIDTH 12 0
BBX 12 12 0 -2
BITMAP
0000
1F00
3980
71C0
71C0
3800
1E00
0E00
3F80
0E00
1F00
0000
ENDCHAR
STARTCHAR 02C7
ENCODING 711
SWIDTH 720 0
DWIDTH 12 0
BBX 12 12 0 -2
BITMAP
0000
1980
0D00
0600
0000
0000
0000
0000
0000
0000
0000
0000
ENDCHAR
STARTCHAR 02C8
ENCODING 712
SWIDTH 720 0
DWIDTH 12 0
BBX 12 12 0 -2
BITMAP
0000
0600
0600
0600
0600
0000
0000
0000
0000
0000
0000
0000
ENDCHAR
STARTCHAR 02CC
ENCODING 716
SWIDTH 720 0
DWIDTH 12 0
BBX 12 12 0 -2
BITMAP
0000
0000
0000
0000
0000
0000
0000
0000
0600
0600
0600
0600
ENDCHAR
STARTCHAR 02D0
ENCODING 720
SWIDTH 720 0
DWIDTH 12 0
BBX 12 12 0 -2
BITMAP
0000
0000
0000
0000
1F80
0F00
0600
0000
0600
0F00
1F80
0000
ENDCHAR
STARTCHAR 02D1
ENCODING 721
SWIDTH 720 0
DWIDTH 12 0
BBX 12 12 0 -2
BITMAP
0000
0000
0000
0000
1F80
0F00
0600
0000
0000
0000
0000
0000
ENDCHAR
STARTCHAR 02D8
ENCODING 728
SWIDTH 720 0
DWIDTH 12 0
BBX 12 12 0 -2
BITMAP
0000
18C0
18C0
0F80
0000
0000
0000
0000
0000
0000
0000
0000
ENDCHAR
STARTCHAR 02D9
ENCODING 729
SWIDTH 720 0
DWIDTH 12 0
BBX 12 12 0 -2
BITMAP
0000
0E00
0E00
0000
0000
0000
0000
0000
0000
0000
0000
0000
ENDCHAR
STARTCHAR 02DB
ENCODING 731
SWIDTH 720 0
DWIDTH 12 0
BBX 12 12 0 -2
BITMAP
0000
0000
0000
0000
0000
0000
0000
0180
0300
0300
01C0
01C0
ENDCHAR
STARTCHAR 02DD
ENCODING 733
SWIDTH 720 0
DWIDTH 12 0
BBX 12 12 0 -2
BITMAP
0000
0680
0D00
1A00
0000
0000
0000
0000
0000
0000
0000
0000
ENDCHAR
STARTCHAR 02DE
ENCODING 734
SWIDTH 720 0
DWIDTH 12 0
BBX 12 12 0 -2
BITMAP
0000
0000
0000
0000
0000
0F00
0340
0340
0180
0000
0000
0000
ENDCHAR
STARTCHAR 02E5
ENCODING 741
SWIDTH 720 0
DWIDTH 12 0
BBX 12 12 0 -2
BITMAP
FE00
0600
0600
0600
0600
0600
0600
0600
0600
0600
0600
0600
ENDCHAR
STARTCHAR 02E6
ENCODING 742
SWIDTH 720 0
DWIDTH 12 0
BBX 12 12 0 -2
BITMAP
0600
0600
0600
FE00
0600
0600
0600
0600
0600
0600
0600
0600
ENDCHAR
STARTCHAR 02E7
ENCODING 743
SWIDTH 720 0
DWIDTH 12 0
BBX 12 12 0 -2
BITMAP
0600
0600
0600
0600
0600
0600
FE00
0600
0600
0600
0600
0600
ENDCHAR
STARTCHAR 02E8
ENCODING 744
SWIDTH 720 0
DWIDTH 12 0
BBX 12 12 0 -2
BITMAP
0600
0600
0600
0600
0600
0600
0600
0600
FE00
0600
0600
0600
ENDCHAR
STARTCHAR 02E9
ENCODING 745
SWIDTH 720 0
DWIDTH 12 0
BBX 12 12 0 -2
BITMAP
0600
0600
0600
0600
0600
0600
0600
0600
0600
0600
0600
FE00
ENDCHAR
STARTCHAR 0300
ENCODING 768
SWIDTH 720 0
DWIDTH 12 0
BBX 12 12 0 -2
BITMAP
0000
0C00
0600
0300
0000
0000
0000
0000
0000
0000
0000
0000
ENDCHAR
STARTCHAR 0301
ENCODING 769
SWIDTH 720 0
DWIDTH 12 0
BBX 12 12 0 -2
BITMAP
0000
0300
0600
0C00
0000
0000
0000
0000
0000
0000
0000
0000
ENDCHAR
STARTCHAR 0302
ENCODING 770
SWIDTH 720 0
DWIDTH 12 0
BBX 12 12 0 -2
BITMAP
0000
0600
0D00
1980
0000
0000
0000
0000
0000
0000
0000
0000
ENDCHAR
STARTCHAR 0303
ENCODING 771
SWIDTH 720 0
DWIDTH 12 0
BBX 12 12 0 -2
BITMAP
0000
1D80
3700
0000
0000
0000
0000
0000
0000
0000
0000
0000
ENDCHAR
STARTCHAR 0304
ENCODING 772
SWIDTH 720 0
DWIDTH 12 0
BBX 12 12 0 -2
BITMAP
0000
1F00
0000
0000
0000
0000
0000
0000
0000
0000
0000
0000
ENDCHAR
STARTCHAR 0306
ENCODING 774
SWIDTH 720 0
DWIDTH 12 0
BBX 12 12 0 -2
BITMAP
0000
1980
1980
0F00
0000
0000
0000
0000
0000
0000
0000
0000
ENDCHAR
STARTCHAR 0308
ENCODING 776
SWIDTH 720 0
DWIDTH 12 0
BBX 12 12 0 -2
BITMAP
0000
1D80
1D80
0000
0000
0000
0000
0000
0000
0000
0000
0000
ENDCHAR
STARTCHAR 030B
ENCODING 779
SWIDTH 720 0
DWIDTH 12 0
BBX 12 12 0 -2
BITMAP
0000
0D80
1B00
3600
0000
0000
0000
0000
0000
0000
0000
0000
ENDCHAR
STARTCHAR 030C
ENCODING 780
SWIDTH 720 0
DWIDTH 12 0
BBX 12 12 0 -2
BITMAP
0000
1980
0D00
0600
0000
0000
0000
0000
0000
0000
0000
0000
ENDCHAR
STARTCHAR 030F
ENCODING 783
SWIDTH 720 0
DWIDTH 12 0
BBX 12 12 0 -2
BITMAP
0000
3600
1B00
0D80
0000
0000
0000
0000
0000
0000
0000
0000
ENDCHAR
STARTCHAR 0318
ENCODING 792
SWIDTH 720 0
DWIDTH 12 0
BBX 12 12 0 -2
BITMAP
0000
0000
0000
0000
0000
0000
0000
0600
0600
1E00
0600
0600
ENDCHAR
STARTCHAR 0319
ENCODING 793
SWIDTH 720 0
DWIDTH 12 0
BBX 12 12 0 -2
BITMAP
0000
0000
0000
0000
0000
0000
0000
0600
0600
0780
0600
0600
ENDCHAR
STARTCHAR 031A
ENCODING 794
SWIDTH 720 0
DWIDTH 12 0
BBX 12 12 0 -2
BITMAP
0000
03C0
00C0
00C0
0000
0000
0000
0000
0000
0000
0000
0000
ENDCHAR
STARTCHAR 031C
ENCODING 796
SWIDTH 720 0
DWIDTH 12 0
BBX 12 12 0 -2
BITMAP
0000
0000
0000
0000
0000
0000
0000
0000
0000
0700
0C00
0700
ENDCHAR
STARTCHAR 031D
ENCODING 797
SWIDTH 720 0
DWIDTH 12 0
BBX 12 12 0 -2
BITMAP
0000
0000
0000
0000
0000
0000
0000
0600
0600
1F80
0000
0000
ENDCHAR
STARTCHAR 031E
ENCODING 798
SWIDTH 720 0
DWIDTH 12 0
BBX 12 12 0 -2
BITMAP
0000
0000
0000
0000
0000
0000
0000
0000
0000
1F80
0600
0600
ENDCHAR
STARTCHAR 031F
ENCODING 799
SWIDTH 720 0
DWIDTH 12 0
BBX 12 12 0 -2
BITMAP
0000
0000
0000
0000
0000
0000
0000
0000
0000
0600
1F80
0600
ENDCHAR
STARTCHAR 0320
ENCODING 800
SWIDTH 720 0
DWIDTH 12 0
BBX 12 12 0 -2
BITMAP
0000
0000
0000
0000
0000
0000
0000
0000
0000
0000
1F80
0000
ENDCHAR
STARTCHAR 0324
ENCODING 804
SWIDTH 720 0
DWIDTH 12 0
BBX 12 12 0 -2
BITMAP
0000
0000
0000
0000
0000
0000
0000
0000
0000
0000
1D80
1D80
ENDCHAR
STARTCHAR 0325
ENCODING 805
SWIDTH 720 0
DWIDTH 12 0
BBX 12 12 0 -2
BITMAP
0000
0000
0000
0000
0000
0000
0000
0000
0E00
1B00
1B00
0E00
ENDCHAR
STARTCHAR 0329
ENCODING 809
SWIDTH 720 0
DWIDTH 12 0
BBX 12 12 0 -2
BITMAP
0000
0000
0000
0000
0000
0000
0000
0000
0000
0600
0600
0600
ENDCHAR
STARTCHAR 032A
ENCODING 810
SWIDTH 720 0
DWIDTH 12 0
BBX 12 12 0 -2
BITMAP
0000
0000
0000
0000
0000
0000
0000
0000
0000
1F80
1980
1980
ENDCHAR
STARTCHAR 032C
ENCODING 812
SWIDTH 720 0
DWIDTH 12 0
BBX 12 12 0 -2
BITMAP
0000
0000
0000
0000
0000
0000
0000
0000
0000
1980
1980
0F00
ENDCHAR
STARTCHAR 032F
ENCODING 815
SWIDTH 720 0
DWIDTH 12 0
BBX 12 12 0 -2
BITMAP
0000
0000
0000
0000
0000
0000
0000
0000
0000
0F00
1980
1980
ENDCHAR
STARTCHAR 0330
ENCODING 816
SWIDTH 720 0
DWIDTH 12 0
BBX 12 12 0 -2
BITMAP
0000
0000
0000
0000
0000
0000
0000
0000
0000
0000
1D80
3700
ENDCHAR
STARTCHAR 0334
ENCODING 820
SWIDTH 720 0
DWIDTH 12 0
BBX 12 12 0 -2
BITMAP
0000
0000
0000
0000
0000
0000
1D80
3700
0000
0000
0000
0000
ENDCHAR
STARTCHAR 0339
ENCODING 825
SWIDTH 720 0
DWIDTH 12 0
BBX 12 12 0 -2
BITMAP
0000
0000
0000
0000
0000
0000
0000
0000
0000
0700
0180
0700
ENDCHAR
STARTCHAR 033A
ENCODING 826
SWIDTH 720 0
DWIDTH 12 0
BBX 12 12 0 -2
BITMAP
0000
0000
0000
0000
0000
0000
0000
0000
0000
1980
1980
1F80
ENDCHAR
STARTCHAR 033B
ENCODING 827
SWIDTH 720 0
DWIDTH 12 0
BBX 12 12 0 -2
BITMAP
0000
0000
0000
0000
0000
0000
0000
0000
1F80
1980
1980
1F80
ENDCHAR
STARTCHAR 033C
ENCODING 828
SWIDTH 720 0
DWIDTH 12 0
BBX 12 12 0 -2
BITMAP
0000
0000
0000
0000
0000
0000
0000
0000
0000
0000
1D80
36C0
ENDCHAR
STARTCHAR 033D
ENCODING 829
SWIDTH 720 0
DWIDTH 12 0
BBX 12 12 0 -2
BITMAP
0000
1D80
0600
1D80
0000
0000
0000
0000
0000
0000
0000
0000
ENDCHAR
STARTCHAR 0361
ENCODING 865
SWIDTH 720 0
DWIDTH 12 0
BBX 12 12 0 -2
BITMAP
0000
1F80
30C0
6060
0000
0000
0000
0000
0000
0000
0000
0000
ENDCHAR
STARTCHAR 0391
ENCODING 913
SWIDTH 720 0
DWIDTH 12 0
BBX 12 12 0 -2
BITMAP
0000
0600
0600
0F00
0F00
1B80
1F80
3B80
31C0
71C0
F9E0
0000
ENDCHAR
STARTCHAR 0392
ENCODING 914
SWIDTH 720 0
DWIDTH 12 0
BBX 12 12 0 -2
BITMAP
0000
7F00
3980
39C0
39C0
3F80
38C0
38E0
38E0
38C0
7F80
0000
ENDCHAR
STARTCHAR 0393
ENCODING 915
SWIDTH 720 0
DWIDTH 12 0
BBX 12 12 0 -2
BITMAP
0000
3FC0
1CC0
1C60
1C00
1C00
1C00
1C00
1C00
1C00
3E00
0000
ENDCHAR
STARTCHAR 0394
ENCODING 916
SWIDTH 720 0
DWIDTH 12 0
BBX 12 12 0 -2
BITMAP
0000
0600
0600
0F00
0F00
1B80
1B80
1B80
31C0
31C0
7FE0
0000
ENDCHAR
STARTCHAR 0395
ENCODING 917
SWIDTH 720 0
DWIDTH 12 0
BBX 12 12 0 -2
BITMAP
0000
7FC0
38C0
3860
3980
3F80
3980
3800
3860
38C0
7FC0
0000
ENDCHAR
STARTCHAR 0396
ENCODING 918
SWIDTH 720 0
DWIDTH 12 0
BBX 12 12 0 -2
BITMAP
0000
3FC0
31C0
6380
0700
0700
0E00
1C00
1860
38C0
7FC0
0000
ENDCHAR
STARTCHAR 0397
ENCODING 919
SWIDTH 720 0
DWIDTH 12 0
BBX 12 12 0 -2
BITMAP
0000
79E0
39C0
39C0
39C0
3FC0
39C0
39C0
39C0
39C0
79E0
0000
ENDCHAR
STARTCHAR 0398
ENCODING 920
SWIDTH 720 0
DWIDTH 12 0
BBX 12 12 0 -2
BITMAP
0000
0F00
1980
30C0
7560
7760
7560
7560
30C0
1980
0F00
0000
ENDCHAR
STARTCHAR 0399
ENCODING 921
SWIDTH 720 0
DWIDTH 12 0
BBX 12 12 0 -2
BITMAP
0000
1F00
0E00
0E00
0E00
0E00
0E00
0E00
0E00
0E00
1F00
0000
ENDCHAR
STARTCHAR 039A
ENCODING 922
SWIDTH 720 0
DWIDTH 12 0
BBX 12 12 0 -2
BITMAP
0000
F7C0
7300
7300
7600
7700
7700
7B80
7380
71C0
F3E0
0000
ENDCHAR
STARTCHAR 039B
ENCODING 923
SWIDTH 720 0
DWIDTH 12 0
BBX 12 12 0 -2
BITMAP
0000
0600
0600
0F00
0F00
1B80
1B80
1B80
31C0
31C0
79E0
0000
ENDCHAR
STARTCHAR 039C
ENCODING 924
SWIDTH 720 0
DWIDTH 12 0
BBX 12 12 0 -2
BITMAP
0000
F1E0
71C0
71C0
7BC0
7BC0
6AC0
6EC0
6DC0
6DC0
F1E0
0000
ENDCHAR
STARTCHAR 039D
ENCODING 925
SWIDTH 720 0
DWIDTH 12 0
BBX 12 12 0 -2
BITMAP
0000
71E0
38C0
3CC0
3EC0
36C0
3740
3740
33C0
31C0
78C0
0000
ENDCHAR
STARTCHAR 039E
ENCODING 926
SWIDTH 720 0
DWIDTH 12 0
BBX 12 12 0 -2
BITMAP
0000
3FE0
3FC0
60C0
0000
1F80
1F80
0000
3060
3FC0
7FC0
0000
ENDCHAR
STARTCHAR 039F
ENCODING 927
SWIDTH 720 0
DWIDTH 12 0
BBX 12 12 0 -2
BITMAP
0000
0F00
1980
39C0
70E0
70E0
70E0
70E0
39C0
1980
0F00
0000
ENDCHAR
STARTCHAR 03A0
ENCODING 928
SWIDTH 720 0
DWIDTH 12 0
BBX 12 12 0 -2
BITMAP
0000
7FE0
39C0
39C0
39C0
39C0
39C0
39C0
39C0
39C0
7DE0
0000
ENDCHAR
STARTCHAR 03A1
ENCODING 929
SWIDTH 720 0
DWIDTH 12 0
BBX 12 12 0 -2
BITMAP
0000
7F80
39C0
38E0
38E0
39C0
3F80
3800
3800
3800
7C00
0000
ENDCHAR
STARTCHAR 03A3
ENCODING 931
SWIDTH 720 0
DWIDTH 12 0
BBX 12 12 0 -2
BITMAP
0000
7FC0
38C0
1C60
0E00
0700
0700
0E00
1C60
38C0
7FC0
0000
ENDCHAR
STARTCHAR 03A4
ENCODING 932
SWIDTH 720 0
DWIDTH 12 0
BBX 12 12 0 -2
BITMAP
0000
7FC0
6EC0
CE60
0E00
0E00
0E00
0E00
0E00
0E00
1F00
0000
ENDCHAR
STARTCHAR 03A5
ENCODING 933
SWIDTH 720 0
DWIDTH 12 0
BBX 12 12 0 -2
BITMAP
0000
3B80
7FC0
6EC0
CE60
0E00
0E00
0E00
0E00
0E00
1F00
0000
ENDCHAR
STARTCHAR 03A6
ENCODING 934
SWIDTH 720 0
DWIDTH 12 0
BBX 12 12 0 -2
BITMAP
0000
3F80
0E00
3F80
6EC0
EEE0
EEE0
6EC0
3F80
0E00
3F80
0000
ENDCHAR
STARTCHAR 03A7
ENCODING 935
SWIDTH 720 0
DWIDTH 12 0
BBX 12 12 0 -2
BITMAP
0000
79E0
38C0
1D80
1F00
0F00
0F00
0D80
1B80
31C0
79E0
0000
ENDCHAR
STARTCHAR 03A8
ENCODING 936
SWIDTH 720 0
DWIDTH 12 0
BBX 12 12 0 -2
BITMAP
0000
3F80
0E00
EEE0
76C0
76C0
76C0
3680
1F00
0E00
3F80
0000
ENDCHAR
STARTCHAR 03A9
ENCODING 937
SWIDTH 720 0
DWIDTH 12 0
BBX 12 12 0 -2
BITMAP
0000
0F00
1980
39C0
70E0
70E0
70E0
39C0
1980
6D60
7DE0
0000
ENDCHAR
STARTCHAR 03B1
ENCODING 945
SWIDTH 720 0
DWIDTH 12 0
BBX 12 12 0 -2
BITMAP
0000
0000
0000
0000
0000
0F40
19C0
3180
3300
3740
1D80
0000
ENDCHAR
STARTCHAR 03B2
ENCODING 946
SWIDTH 720 0
DWIDTH 12 0
BBX 12 12 0 -2
BITMAP
0000
0380
06C0
0CC0
0CC0
1B80
1980
18C0
38C0
34C0
3780
6000
ENDCHAR
STARTCHAR 03B3
ENCODING 947
SWIDTH 720 0
DWIDTH 12 0
BBX 12 12 0 -2
BITMAP
0000
0000
0000
0000
0000
3DC0
6700
0600
0E00
0E00
0C00
0000
ENDCHAR
STARTCHAR 03B4
ENCODING 948
SWIDTH 720 0
DWIDTH 12 0
BBX 12 12 0 -2
BITMAP
0000
0F00
1980
0CC0
06C0
0F00
1980
3180
3180
3300
1E00
0000
ENDCHAR
STARTCHAR 03B5
ENCODING 949
SWIDTH 720 0
DWIDTH 12 0
BBX 12 12 0 -2
BITMAP
0000
0000
0000
0000
0000
0F00
1980
0E00
3800
3180
1F00
0000
ENDCHAR
STARTCHAR 03B6
ENCODING 950
SWIDTH 720 0
DWIDTH 12 0
BBX 12 12 0 -2
BITMAP
0000
19C0
1B80
0F00
0C00
1800
3000
3000
1E00
0300
0300
0E00
ENDCHAR
STARTCHAR 03B7
ENCODING 951
SWIDTH 720 0
DWIDTH 12 0
BBX 12 12 0 -2
BITMAP
0000
0000
0000
0000
0000
1B80
36C0
0CC0
18C0
1980
1980
0180
ENDCHAR
STARTCHAR 03B8
ENCODING 952
SWIDTH 720 0
DWIDTH 12 0
BBX 12 12 0 -2
BITMAP
0000
0380
06C0
0CC0
18C0
1FC0
3180
3180
3300
3600
1C00
0000
ENDCHAR
STARTCHAR 03B9
ENCODING 953
SWIDTH 720 0
DWIDTH 12 0
BBX 12 12 0 -2
BITMAP
0000
0000
0000
0000
0000
0C00
1800
1800
3000
3700
1C00
0000
ENDCHAR
STARTCHAR 03BA
ENCODING 954
SWIDTH 720 0
DWIDTH 12 0
BBX 12 12 0 -2
BITMAP
0000
0000
0000
0000
0000
1B80
1AC0
1C00
3600
36C0
6380
0000
ENDCHAR
STARTCHAR 03BB
ENCODING 955
SWIDTH 720 0
DWIDTH 12 0
BBX 12 12 0 -2
BITMAP
0000
0E00
0300
0300
0300
0700
0D00
0D00
1B00
3180
30C0
0000
ENDCHAR
STARTCHAR 03BC
ENCODING 956
SWIDTH 720 0
DWIDTH 12 0
BBX 12 12 0 -2
BITMAP
0000
0000
0000
0000
0000
1980
1980
1B00
3300
3740
6D80
6000
ENDCHAR
STARTCHAR 03BD
ENCODING 957
SWIDTH 720 0
DWIDTH 12 0
BBX 12 12 0 -2
BITMAP
0000
0000
0000
0000
0000
30C0
18C0
1980
1B00
3E00
3000
0000
ENDCHAR
STARTCHAR 03BE
ENCODING 958
SWIDTH 720 0
DWIDTH 12 0
BBX 12 12 0 -2
BITMAP
0000
0E00
1C00
0F80
1800
1C00
3780
3000
1800
0E00
0300
1E00
ENDCHAR
STARTCHAR 03BF
ENCODING 959
SWIDTH 720 0
DWIDTH 12 0
BBX 12 12 0 -2
BITMAP
0000
0000
0000
0000
0000
0F00
1980
3180
3180
3300
1E00
0000
ENDCHAR
STARTCHAR 03C0
ENCODING 960
SWIDTH 720 0
DWIDTH 12 0
BBX 12 12 0 -2
BITMAP
0000
0000
0000
0000
1CC0
3780
6D00
1B00
1B00
3300
61C0
0000
ENDCHAR
STARTCHAR 03C1
ENCODING 961
SWIDTH 720 0
DWIDTH 12 0
BBX 12 12 0 -2
BITMAP
0000
0000
0000
0000
0000
0780
0CC0
18C0
18C0
3580
3700
3000
ENDCHAR
STARTCHAR 03C2
ENCODING 962
SWIDTH 720 0
DWIDTH 12 0
BBX 12 12 0 -2
BITMAP
0000
0000
0000
0000
0F80
18C0
30C0
30C0
1980
0C00
3600
1C00
ENDCHAR
STARTCHAR 03C3
ENCODING 963
SWIDTH 720 0
DWIDTH 12 0
BBX 12 12 0 -2
BITMAP
0000
0000
0000
0000
03C0
0F00
1980
3180
3180
3300
1E00
0000
ENDCHAR
STARTCHAR 03C4
ENCODING 964
SWIDTH 720 0
DWIDTH 12 0
BBX 12 12 0 -2
BITMAP
0000
0000
0000
0000
1CC0
3780
6C00
0C00
1800
1B80
0E00
0000
ENDCHAR
STARTCHAR 03C5
ENCODING 965
SWIDTH 720 0
DWIDTH 12 0
BBX 12 12 0 -2
BITMAP
0000
0000
0000
0000
0000
1980
18C0
18C0
3180
3300
1E00
0000
ENDCHAR
STARTCHAR 03C6
ENCODING 966
SWIDTH 720 0
DWIDTH 12 0
BBX 12 12 0 -2
BITMAP
0000
0000
0000
0300
0300
0F80
1AC0
36C0
3680
1F00
0C00
0C00
ENDCHAR
STARTCHAR 03C7
ENCODING 967
SWIDTH 720 0
DWIDTH 12 0
BBX 12 12 0 -2
BITMAP
0000
0000
0000
0000
0000
1CC0
3680
0700
0E00
1A00
3600
6380
ENDCHAR
STARTCHAR 03C8
ENCODING 968
SWIDTH 720 0
DWIDTH 12 0
BBX 12 12 0 -2
BITMAP
0000
0000
0180
0180
0300
7B80
1B40
36C0
3680
1F00
0C00
0C00
ENDCHAR
STARTCHAR 03C9
ENCODING 969
SWIDTH 720 0
DWIDTH 12 0
BBX 12 12 0 -2
BITMAP
0000
0000
0000
0000
0000
18C0
3660
3660
6660
6EC0
3B80
0000
ENDCHAR
STARTCHAR 0401
ENCODING 1025
SWIDTH 720 0
DWIDTH 12 0
BBX 12 12 0 -2
BITMAP
0000
3B80
3B80
7FC0
3860
3980
3F80
3980
3860
38C0
7FC0
0000
ENDCHAR
STARTCHAR 0410
ENCODING 1040
SWIDTH 720 0
DWIDTH 12 0
BBX 12 12 0 -2
BITMAP
0000
0600
0600
0F00
0F00
1B80
1F80
3B80
31C0
71C0
F9E0
0000
ENDCHAR
STARTCHAR 0411
ENCODING 1041
SWIDTH 720 0
DWIDTH 12 0
BBX 12 12 0 -2
BITMAP
0000
7FC0
38C0
3860
3800
3F80
38C0
38E0
38E0
38C0
7F80
0000
ENDCHAR
STARTCHAR 0412
ENCODING 1042
SWIDTH 720 0
DWIDTH 12 0
BBX 12 12 0 -2
BITMAP
0000
7F00
3980
39C0
39C0
3F80
38C0
38E0
38E0
38C0
7F80
0000
ENDCHAR
STARTCHAR 0413
ENCODING 1043
SWIDTH 720 0
DWIDTH 12 0
BBX 12 12 0 -2
BITMAP
0000
3FC0
1CC0
1C60
1C00
1C00
1C00
1C00
1C00
1C00
3E00
0000
ENDCHAR
STARTCHAR 0414
ENCODING 1044
SWIDTH 720 0
DWIDTH 12 0
BBX 12 12 0 -2
BITMAP
0000
1FE0
0DC0
0DC0
0DC0
0DC0
0DC0
19C0
19C0
31C0
7FE0
6060
ENDCHAR
STARTCHAR 0415
ENCODING 1045
SWIDTH 720 0
DWIDTH 12 0
BBX 12 12 0 -2
BITMAP
0000
7FC0
38C0
3860
3980
3F80
3980
3800
3860
38C0
7FC0
0000
ENDCHAR
STARTCHAR 0416
ENCODING 1046
SWIDTH 720 0
DWIDTH 12 0
BBX 12 12 0 -2
BITMAP
0000
EEE0
6EC0
6EC0
3680
1F00
1F00
3680
6EC0
6EC0
F6E0
0000
ENDCHAR
STARTCHAR 0417
ENCODING 1047
SWIDTH 720 0
DWIDTH 12 0
BBX 12 12 0 -2
BITMAP
0000
0F00
3B80
31C0
0180
0F00
0180
01C0
61C0
3380
1E00
0000
ENDCHAR
STARTCHAR 0418
ENCODING 1048
SWIDTH 720 0
DWIDTH 12 0
BBX 12 12 0 -2
BITMAP
0000
79E0
39C0
3BC0
3BC0
3AC0
3AC0
3DC0
3DC0
39C0
79E0
0000
ENDCHAR
STARTCHAR 0419
ENCODING 1049
SWIDTH 720 0
DWIDTH 12 0
BBX 12 12 0 -2
BITMAP
0000
1D80
1D80
79E0
39C0
3BC0
3AC0
3AC0
3DC0
39C0
79E0
0000
ENDCHAR
STARTCHAR 041A
ENCODING 1050
SWIDTH 720 0
DWIDTH 12 0
BBX 12 12 0 -2
BITMAP
0000
F1C0
7360
7360
7600
7700
7700
7B80
7380
71C0
F3E0
0000
ENDCHAR
STARTCHAR 041B
ENCODING 1051
SWIDTH 720 0
DWIDTH 12 0
BBX 12 12 0 -2
BITMAP
0000
1FE0
0DC0
0DC0
0DC0
0DC0
0DC0
0DC0
E9C0
E9C0
71E0
0000
ENDCHAR
STARTCHAR 041C
ENCODING 1052
SWIDTH 720 0
DWIDTH 12 0
BBX 12 12 0 -2
BITMAP
0000
7BC0
3B80
3B80
3D80
3F80
3680
76C0
76C0
71C0
F1E0
0000
ENDCHAR
STARTCHAR 041D
ENCODING 1053
SWIDTH 720 0
DWIDTH 12 0
BBX 12 12 0 -2
BITMAP
0000
79E0
39C0
39C0
39C0
3FC0
39C0
39C0
39C0
39C0
79E0
0000
ENDCHAR
STARTCHAR 041E
ENCODING 1054
SWIDTH 720 0
DWIDTH 12 0
BBX 12 12 0 -2
BITMAP
0000
0F00
1980
39C0
70E0
70E0
70E0
70E0
39C0
1980
0F00
0000
ENDCHAR
STARTCHAR 041F
ENCODING 1055
SWIDTH 720 0
DWIDTH 12 0
BBX 12 12 0 -2
BITMAP
0000
7FE0
39C0
39C0
39C0
39C0
39C0
39C0
39C0
39C0
7DE0
0000
ENDCHAR
STARTCHAR 0420
ENCODING 1056
SWIDTH 720 0
DWIDTH 12 0
BBX 12 12 0 -2
BITMAP
0000
7F80
39C0
38E0
38E0
39C0
3F80
3800
3800
3800
7C00
0000
ENDCHAR
STARTCHAR 0421
ENCODING 1057
SWIDTH 720 0
DWIDTH 12 0
BBX 12 12 0 -2
BITMAP
0000
0F40
19C0
38C0
70C0
7000
7000
7000
38C0
19C0
0F00
0000
ENDCHAR
STARTCHAR 0422
ENCODING 1058
SWIDTH 720 0
DWIDTH 12 0
BBX 12 12 0 -2
BITMAP
0000
7FC0
6EC0
CE60
0E00
0E00
0E00
0E00
0E00
0E00
1F00
0000
ENDCHAR
STARTCHAR 0423
ENCODING 1059
SWIDTH 720 0
DWIDTH 12 0
BBX 12 12 0 -2
BITMAP
0000
79E0
38C0
3CC0
1D80
0E80
0E80
0700
0300
0600
3A00
3C00
ENDCHAR
STARTCHAR 0424
ENCODING 1060
SWIDTH 720 0
DWIDTH 12 0
BBX 12 12 0 -2
BITMAP
0000
3F80
0E00
3F80
6EC0
EEE0
EEE0
6EC0
3F80
0E00
3F80
0000
ENDCHAR
STARTCHAR 0425
ENCODING 1061
SWIDTH 720 0
DWIDTH 12 0
BBX 12 12 0 -2
BITMAP
0000
79E0
38C0
1D80
1F00
0F00
0F00
0D80
1B80
31C0
79E0
0000
ENDCHAR
STARTCHAR 0426
ENCODING 1062
SWIDTH 720 0
DWIDTH 12 0
BBX 12 12 0 -2
BITMAP
0000
7BE0
39C0
39C0
39C0
39C0
39C0
39C0
39C0
39C0
7FE0
0060
ENDCHAR
STARTCHAR 0427
ENCODING 1063
SWIDTH 720 0
DWIDTH 12 0
BBX 12 12 0 -2
BITMAP
0000
79E0
39C0
39C0
39C0
39C0
1FC0
01C0
01C0
01C0
03E0
0000
ENDCHAR
STARTCHAR 0428
ENCODING 1064
SWIDTH 720 0
DWIDTH 12 0
BBX 12 12 0 -2
BITMAP
0000
F6E0
76C0
76C0
76C0
76C0
76C0
76C0
76C0
76C0
FFE0
0000
ENDCHAR
STARTCHAR 0429
ENCODING 1065
SWIDTH 720 0
DWIDTH 12 0
BBX 12 12 0 -2
BITMAP
0000
F6E0
76C0
76C0
76C0
76C0
76C0
76C0
76C0
76C0
FFE0
0060
ENDCHAR
STARTCHAR 042A
ENCODING 1066
SWIDTH 720 0
DWIDTH 12 0
BBX 12 12 0 -2
BITMAP
0000
7E00
6C00
DC00
1C00
1FC0
1CE0
1CE0
1CE0
1CE0
3FC0
0000
ENDCHAR
STARTCHAR 042B
ENCODING 1067
SWIDTH 720 0
DWIDTH 12 0
BBX 12 12 0 -2
BITMAP
0000
F1E0
71C0
71C0
71C0
7EC0
77C0
77C0
77C0
77C0
FEE0
0000
ENDCHAR
STARTCHAR 042C
ENCODING 1068
SWIDTH 720 0
DWIDTH 12 0
BBX 12 12 0 -2
BITMAP
0000
7C00
3800
3800
3800
3F80
39C0
39C0
39C0
39C0
7F80
0000
ENDCHAR
STARTCHAR 042D
ENCODING 1069
SWIDTH 720 0
DWIDTH 12 0
BBX 12 12 0 -2
BITMAP
0000
0F00
3980
31C0
00E0
0EE0
1BE0
00E0
31C0
3980
0F00
0000
ENDCHAR
STARTCHAR 042E
ENCODING 1070
SWIDTH 720 0
DWIDTH 12 0
BBX 12 12 0 -2
BITMAP
0000
F380
76C0
76E0
76E0
76E0
7EE0
76E0
76E0
76C0
F380
0000
ENDCHAR
STARTCHAR 042F
ENCODING 1071
SWIDTH 720 0
DWIDTH 12 0
BBX 12 12 0 -2
BITMAP
0000
1FE0
39C0
71C0
71C0
39C0
1FC0
1DC0
19C0
39C0
63E0
0000
ENDCHAR
STARTCHAR 0430
ENCODING 1072
SWIDTH 720 0
DWIDTH 12 0
BBX 12 12 0 -2
BITMAP
0000
0000
0000
0000
0000
1F80
01C0
1FC0
39C0
39C0
1F40
0000
ENDCHAR
STARTCHAR 0431
ENCODING 1073
SWIDTH 720 0
DWIDTH 12 0
BBX 12 12 0 -2
BITMAP
0000
0180
0F00
1800
1800
3F00
3980
39C0
39C0
1980
0F00
0000
ENDCHAR
STARTCHAR 0432
ENCODING 1074
SWIDTH 720 0
DWIDTH 12 0
BBX 12 12 0 -2
BITMAP
0000
0000
0000
0000
0000
3F80
1DC0
1F80
1DC0
1DC0
3F80
0000
ENDCHAR
STARTCHAR 0433
ENCODING 1075
SWIDTH 720 0
DWIDTH 12 0
BBX 12 12 0 -2
BITMAP
0000
0000
0000
0000
0000
3F80
1CC0
1C00
1C00
1C00
3E00
0000
ENDCHAR
STARTCHAR 0434
ENCODING 1076
SWIDTH 720 0
DWIDTH 12 0
BBX 12 12 0 -2
BITMAP
0000
0000
0000
0000
0000
1FC0
0D80
0D80
0D80
1B80
3F80
30C0
ENDCHAR
STARTCHAR 0435
ENCODING 1077
SWIDTH 720 0
DWIDTH 12 0
BBX 12 12 0 -2
BITMAP
0000
0000
0000
0000
0000
0F00
1980
3FC0
3800
1980
0F00
0000
ENDCHAR
STARTCHAR 0436
ENCODING 1078
SWIDTH 720 0
DWIDTH 12 0
BBX 12 12 0 -2
BITMAP
0000
0000
0000
0000
0000
76C0
3680
1F00
3F80
3680
76C0
0000
ENDCHAR
STARTCHAR 0437
ENCODING 1079
SWIDTH 720 0
DWIDTH 12 0
BBX 12 12 0 -2
BITMAP
0000
0000
0000
0000
0000
1F80
31C0
0F80
01C0
31C0
1F80
0000
ENDCHAR
STARTCHAR 0438
ENCODING 1080
SWIDTH 720 0
DWIDTH 12 0
BBX 12 12 0 -2
BITMAP
0000
0000
0000
0000
0000
79E0
3BC0
3AC0
3AC0
3DC0
79E0
0000
ENDCHAR
STARTCHAR 0439
ENCODING 1081
SWIDTH 720 0
DWIDTH 12 0
BBX 12 12 0 -2
BITMAP
0000
0000
1D80
0F00
0000
79E0
3BC0
3AC0
3AC0
3DC0
79E0
0000
ENDCHAR
STARTCHAR 043A
ENCODING 1082
SWIDTH 720 0
DWIDTH 12 0
BBX 12 12 0 -2
BITMAP
0000
0000
0000
0000
0000
3DC0
1DC0
1E00
1D00
1D80
3DC0
0000
ENDCHAR
STARTCHAR 043B
ENCODING 1083
SWIDTH 720 0
DWIDTH 12 0
BBX 12 12 0 -2
BITMAP
0000
0000
0000
0000
0000
1FC0
0D80
0D80
0D80
3B80
3BC0
0000
ENDCHAR
STARTCHAR 043C
ENCODING 1084
SWIDTH 720 0
DWIDTH 12 0
BBX 12 12 0 -2
BITMAP
0000
0000
0000
0000
0000
79E0
3BC0
3DC0
36C0
36C0
79E0
0000
ENDCHAR
STARTCHAR 043D
ENCODING 1085
SWIDTH 720 0
DWIDTH 12 0
BBX 12 12 0 -2
BITMAP
0000
0000
0000
0000
0000
79E0
39C0
3FC0
39C0
39C0
79E0
0000
ENDCHAR
STARTCHAR 043E
ENCODING 1086
SWIDTH 720 0
DWIDTH 12 0
BBX 12 12 0 -2
BITMAP
0000
0000
0000
0000
0000
0F00
1980
39C0
39C0
1980
0F00
0000
ENDCHAR
STARTCHAR 043F
ENCODING 1087
SWIDTH 720 0
DWIDTH 12 0
BBX 12 12 0 -2
BITMAP
0000
0000
0000
0000
0000
7FC0
3B80
3B80
3B80
3B80
7BC0
0000
ENDCHAR
STARTCHAR 0440
ENCODING 1088
SWIDTH 720 0
DWIDTH 12 0
BBX 12 12 0 -2
BITMAP
0000
0000
0000
0000
0000
3B80
1DC0
1DC0
1DC0
1F80
1C00
3E00
ENDCHAR
STARTCHAR 0441
ENCODING 1089
SWIDTH 720 0
DWIDTH 12 0
BBX 12 12 0 -2
BITMAP
0000
0000
0000
0000
0000
0F80
1980
3800
3800
1980
0F00
0000
ENDCHAR
STARTCHAR 0442
ENCODING 1090
SWIDTH 720 0
DWIDTH 12 0
BBX 12 12 0 -2
BITMAP
0000
0000
0000
0000
0000
3F80
3680
6EC0
0E00
0E00
1F00
0000
ENDCHAR
STARTCHAR 0443
ENCODING 1091
SWIDTH 720 0
DWIDTH 12 0
BBX 12 12 0 -2
BITMAP
0000
0000
0000
0000
0000
7DC0
3980
1D80
0F00
0700
3A00
3C00
ENDCHAR
STARTCHAR 0444
ENCODING 1092
SWIDTH 720 0
DWIDTH 12 0
BBX 12 12 0 -2
BITMAP
0000
0600
0E00
0E00
3680
6F40
EEE0
EEE0
6F40
3680
0E00
1F00
ENDCHAR
STARTCHAR 0445
ENCODING 1093
SWIDTH 720 0
DWIDTH 12 0
BBX 12 12 0 -2
BITMAP
0000
0000
0000
0000
0000
7BC0
3D80
1F00
1F00
3780
7BC0
0000
ENDCHAR
STARTCHAR 0446
ENCODING 1094
SWIDTH 720 0
DWIDTH 12 0
BBX 12 12 0 -2
BITMAP
0000
0000
0000
0000
0000
7BC0
3B80
3B80
3B80
3B80
3FC0
00C0
ENDCHAR
STARTCHAR 0447
ENCODING 1095
SWIDTH 720 0
DWIDTH 12 0
BBX 12 12 0 -2
BITMAP
0000
0000
0000
0000
0000
7BC0
3B80
3B80
1F80
0380
07C0
0000
ENDCHAR
STARTCHAR 0448
ENCODING 1096
SWIDTH 720 0
DWIDTH 12 0
BBX 12 12 0 -2
BITMAP
0000
0000
0000
0000
0000
F6E0
76C0
76C0
76C0
76C0
FFE0
0000
ENDCHAR
STARTCHAR 0449
ENCODING 1097
SWIDTH 720 0
DWIDTH 12 0
BBX 12 12 0 -2
BITMAP
0000
0000
0000
0000
0000
F6E0
76C0
76C0
76C0
76C0
FFE0
0060
ENDCHAR
STARTCHAR 044A
ENCODING 1098
SWIDTH 720 0
DWIDTH 12 0
BBX 12 12 0 -2
BITMAP
0000
0000
0000
0000
0000
7F00
6E00
CFC0
0EE0
0EE0
1FC0
0000
ENDCHAR
STARTCHAR 044B
ENCODING 1099
SWIDTH 720 0
DWIDTH 12 0
BBX 12 12 0 -2
BITMAP
0000
0000
0000
0000
0000
FBE0
71C0
7DC0
76C0
76C0
FDE0
0000
ENDCHAR
STARTCHAR 044C
ENCODING 1100
SWIDTH 720 0
DWIDTH 12 0
BBX 12 12 0 -2
BITMAP
0000
0000
0000
0000
0000
7C00
3800
3F80
39C0
39C0
7F80
0000
ENDCHAR
STARTCHAR 044D
ENCODING 1101
SWIDTH 720 0
DWIDTH 12 0
BBX 12 12 0 -2
BITMAP
0000
0000
0000
0000
0000
3F00
6180
1DC0
36C0
6180
3F00
0000
ENDCHAR
STARTCHAR 044E
ENCODING 1102
SWIDTH 720 0
DWIDTH 12 0
BBX 12 12 0 -2
BITMAP
0000
0000
0000
0000
0000
FB80
76C0
7EE0
76E0
76C0
FB80
0000
ENDCHAR
STARTCHAR 044F
ENCODING 1103
SWIDTH 720 0
DWIDTH 12 0
BBX 12 12 0 -2
BITMAP
0000
0000
0000
0000
0000
1FC0
3B80
3B80
1F80
3B80
63C0
0000
ENDCHAR
STARTCHAR 0451
ENCODING 1105
SWIDTH 720 0
DWIDTH 12 0
BBX 12 12 0 -2
BITMAP
0000
0000
0000
1D80
1D80
0F00
1980
3FC0
3800
1980
0F00
0000
ENDCHAR
STARTCHAR 1E3E
ENCODING 7742
SWIDTH 720 0
DWIDTH 12 0
BBX 12 12 0 -2
BITMAP
0000
0300
F6E0
75C0
7BC0
7BC0
6AC0
6EC0
6DC0
6DC0
F1E0
0000
ENDCHAR
STARTCHAR 1E3F
ENCODING 7743
SWIDTH 720 0
DWIDTH 12 0
BBX 12 12 0 -2
BITMAP
0000
0000
0300
0600
0C00
76C0
3B60
3B60
3B60
3B60
7B70
0000
ENDCHAR
STARTCHAR 1F70
ENCODING 8048
SWIDTH 720 0
DWIDTH 12 0
BBX 12 12 0 -2
BITMAP
0000
0000
0C00
0600
0300
1E80
3B80
3B80
3B80
3B80
1EC0
0000
ENDCHAR
STARTCHAR 1F71
ENCODING 8049
SWIDTH 720 0
DWIDTH 12 0
BBX 12 12 0 -2
BITMAP
0000
0000
0300
0600
0C00
1E80
3B80
3B80
3B80
3B80
1EC0
0000
ENDCHAR
STARTCHAR 1F72
ENCODING 8050
SWIDTH 720 0
DWIDTH 12 0
BBX 12 12 0 -2
BITMAP
0000
0000
0C00
0600
0300
1F80
38C0
1F00
3800
38C0
0F80
0000
ENDCHAR
STARTCHAR 1F73
ENCODING 8051
SWIDTH 720 0
DWIDTH 12 0
BBX 12 12 0 -2
BITMAP
0000
0000
0300
0600
0C00
1F80
38C0
1F00
3800
38C0
0F80
0000
ENDCHAR
STARTCHAR 2000
ENCODING 8192
SWIDTH 720 0
DWIDTH 12 0
BBX 12 12 0 -2
BITMAP
0000
0000
0000
0000
0000
0000
0000
0000
0000
0000
0000
0000
ENDCHAR
STARTCHAR 2001
ENCODING 8193
SWIDTH 720 0
DWIDTH 12 0
BBX 12 12 0 -2
BITMAP
0000
0000
0000
0000
0000
0000
0000
0000
0000
0000
0000
0000
ENDCHAR
STARTCHAR 2002
ENCODING 8194
SWIDTH 720 0
DWIDTH 12 0
BBX 12 12 0 -2
BITMAP
0000
0000
0000
0000
0000
0000
0000
0000
0000
0000
0000
0000
ENDCHAR
STARTCHAR 2003
ENCODING 8195
SWIDTH 720 0
DWIDTH 12 0
BBX 12 12 0 -2
BITMAP
0000
0000
0000
0000
0000
0000
0000
0000
0000
0000
0000
0000
ENDCHAR
STARTCHAR 2004
ENCODING 8196
SWIDTH 720 0
DWIDTH 12 0
BBX 12 12 0 -2
BITMAP
0000
0000
0000
0000
0000
0000
0000
0000
0000
0000
0000
0000
ENDCHAR
STARTCHAR 2005
ENCODING 8197
SWIDTH 720 0
DWIDTH 12 0
BBX 12 12 0 -2
BITMAP
0000
0000
0000
0000
0000
0000
0000
0000
0000
0000
0000
0000
ENDCHAR
STARTCHAR 2006
ENCODING 8198
SWIDTH 720 0
DWIDTH 12 0
BBX 12 12 0 -2
BITMAP
0000
0000
0000
0000
0000
0000
0000
0000
0000
0000
0000
0000
ENDCHAR
STARTCHAR 2007
ENCODING 8199
SWIDTH 720 0
DWIDTH 12 0
BBX 12 12 0 -2
BITMAP
0000
0000
0000
0000
0000
0000
0000
0000
0000
0000
0000
0000
ENDCHAR
STARTCHAR 2008
ENCODING 8200
SWIDTH 720 0
DWIDTH 12 0
BBX 12 12 0 -2
BITMAP
0000
0000
0000
0000
0000
0000
0000
0000
0000
0000
0000
0000
ENDCHAR
STARTCHAR 2009
ENCODING 8201
SWIDTH 720 0
DWIDTH 12 0
BBX 12 12 0 -2
BITMAP
0000
0000
0000
0000
0000
0000
0000
0000
0000
0000
0000
0000
ENDCHAR
STARTCHAR 200A
ENCODING 8202
SWIDTH 720 0
DWIDTH 12 0
BBX 12 12 0 -2
BITMAP
0000
0000
0000
0000
0000
0000
0000
0000
0000
0000
0000
0000
ENDCHAR
STARTCHAR 200B
ENCODING 8203
SWIDTH 360 0
DWIDTH 6 0
BBX 1 1 0 0
BITMAP
00
ENDCHAR
STARTCHAR 200C
ENCODING 8204
SWIDTH 360 0
DWIDTH 6 0
BBX 1 1 0 0
BITMAP
00
ENDCHAR
STARTCHAR 200D
ENCODING 8205
SWIDTH 360 0
DWIDTH 6 0
BBX 1 1 0 0
BITMAP
00
ENDCHAR
STARTCHAR 200E
ENCODING 8206
SWIDTH 360 0
DWIDTH 6 0
BBX 1 1 0 0
BITMAP
00
ENDCHAR
STARTCHAR 200F
ENCODING 8207
SWIDTH 360 0
DWIDTH 6 0
BBX 1 1 0 0
BITMAP
00
ENDCHAR
STARTCHAR 2010
ENCODING 8208
SWIDTH 720 0
DWIDTH 12 0
BBX 12 12 0 -2
BITMAP
0000
0000
0000
0000
0000
0000
1F80
0000
0000
0000
0000
0000
ENDCHAR
STARTCHAR 2013
ENCODING 8211
SWIDTH 720 0
DWIDTH 12 0
BBX 12 12 0 -2
BITMAP
0000
0000
0000
0000
0000
0000
1F80
0000
0000
0000
0000
0000
ENDCHAR
STARTCHAR 2014
ENCODING 8212
SWIDTH 720 0
DWIDTH 12 0
BBX 12 12 0 -2
BITMAP
0000
0000
0000
0000
0000
0000
FFF0
0000
0000
0000
0000
0000
ENDCHAR
STARTCHAR 2015
ENCODING 8213
SWIDTH 720 0
DWIDTH 12 0
BBX 12 12 0 -2
BITMAP
0000
0000
0000
0000
0000
0000
FFF0
0000
0000
0000
0000
0000
ENDCHAR
STARTCHAR 2016
ENCODING 8214
SWIDTH 720 0
DWIDTH 12 0
BBX 12 12 0 -2
BITMAP
0000
1B00
1B00
1B00
1B00
1B00
1B00
1B00
1B00
1B00
1B00
1B00
ENDCHAR
STARTCHAR 2018
ENCODING 8216
SWIDTH 720 0
DWIDTH 12 0
BBX 12 12 0 -2
BITMAP
0000
00C0
0180
01C0
01C0
0000
0000
0000
0000
0000
0000
0000
ENDCHAR
STARTCHAR 2019
ENCODING 8217
SWIDTH 720 0
DWIDTH 12 0
BBX 12 12 0 -2
BITMAP
0000
3800
3800
1800
3000
0000
0000
0000
0000
0000
0000
0000
ENDCHAR
STARTCHAR 201C
ENCODING 8220
SWIDTH 720 0
DWIDTH 12 0
BBX 12 12 0 -2
BITMAP
0000
0360
06C0
0760
0760
0000
0000
0000
0000
0000
0000
0000
ENDCHAR
STARTCHAR 201D
ENCODING 8221
SWIDTH 720 0
DWIDTH 12 0
BBX 12 12 0 -2
BITMAP
0000
7600
7600
3600
6C00
0000
0000
0000
0000
0000
0000
0000
ENDCHAR
STARTCHAR 2020
ENCODING 8224
SWIDTH 720 0
DWIDTH 12 0
BBX 12 12 0 -2
BITMAP
0600
0F00
1A80
3FC0
1A80
0600
0F00
0F00
0600
0600
0600
0600
ENDCHAR
STARTCHAR 2021
ENCODING 8225
SWIDTH 720 0
DWIDTH 12 0
BBX 12 12 0 -2
BITMAP
0000
0600
1A80
3FC0
1A80
0600
0600
0600
1A80
3FC0
1A80
0600
ENDCHAR
STARTCHAR 2022
ENCODING 8226
SWIDTH 720 0
DWIDTH 12 0
BBX 12 12 0 -2
BITMAP
0000
0000
0000
0F00
1F80
1F80
1F80
0F00
0000
0000
0000
0000
ENDCHAR
STARTCHAR 2025
ENCODING 8229
SWIDTH 720 0
DWIDTH 12 0
BBX 12 12 0 -2
BITMAP
0000
0000
0000
0000
0000
39C0
39C0
0000
0000
0000
0000
0000
ENDCHAR
STARTCHAR 2026
ENCODING 8230
SWIDTH 720 0
DWIDTH 12 0
BBX 12 12 0 -2
BITMAP
0000
0000
0000
0000
0000
EEE0
EEE0
0000
0000
0000
0000
0000
ENDCHAR
STARTCHAR 2030
ENCODING 8240
SWIDTH 720 0
DWIDTH 12 0
BBX 12 12 0 -2
BITMAP
0000
3300
6B00
EA00
EA00
6C00
3EC0
1DA0
35B0
35B0
6DA0
66C0
ENDCHAR
STARTCHAR 2032
ENCODING 8242
SWIDTH 720 0
DWIDTH 12 0
BBX 12 12 0 -2
BITMAP
0000
0000
3800
7000
6000
0000
0000
0000
0000
0000
0000
0000
ENDCHAR
STARTCHAR 2033
ENCODING 8243
SWIDTH 720 0
DWIDTH 12 0
BBX 12 12 0 -2
BITMAP
0000
3000
7600
EC00
1800
0000
0000
0000
0000
0000
0000
0000
ENDCHAR
STARTCHAR 203B
ENCODING 8251
SWIDTH 720 0
DWIDTH 12 0
BBX 12 12 0 -2
BITMAP
0000
0000
6660
36C0
1980
0D00
76E0
0D00
1980
36C0
6660
0000
ENDCHAR
STARTCHAR 203C
ENCODING 8252
SWIDTH 720 0
DWIDTH 12 0
BBX 12 12 0 -2
BITMAP
0000
1B00
1D80
1D80
1D80
1D00
1B00
1B00
0000
1D80
1D80
0000
ENDCHAR
STARTCHAR 203E
ENCODING 8254
SWIDTH 720 0
DWIDTH 12 0
BBX 12 12 0 -2
BITMAP
0000
FFF0
0000
0000
0000
0000
0000
0000
0000
0000
0000
0000
ENDCHAR
STARTCHAR 203F
ENCODING 8255
SWIDTH 720 0
DWIDTH 12 0
BBX 12 12 0 -2
BITMAP
0000
0000
0000
0000
0000
0000
0000
0000
0000
6060
30C0
1F80
ENDCHAR
STARTCHAR 2042
ENCODING 8258
SWIDTH 720 0
DWIDTH 12 0
BBX 12 12 0 -2
BITMAP
0000
0600
1A80
0F00
0F00
1A80
36C0
D550
79E0
79E0
D550
30C0
ENDCHAR
STARTCHAR 2047
ENCODING 8263
SWIDTH 720 0
DWIDTH 12 0
BBX 12 12 0 -2
BITMAP
0000
39C0
6D60
EF70
EF70
1CE0
3180
3180
0000
3180
3180
0000
ENDCHAR
STARTCHAR 2048
ENCODING 8264
SWIDTH 720 0
DWIDTH 12 0
BBX 12 12 0 -2
BITMAP
0000
1CC0
36E0
7760
7760
0EE0
18C0
18C0
0000
18C0
18C0
0000
ENDCHAR
STARTCHAR 2049
ENCODING 8265
SWIDTH 720 0
DWIDTH 12 0
BBX 12 12 0 -2
BITMAP
0000
6380
76C0
76E0
76E0
71C0
6300
6300
0000
6300
6300
0000
ENDCHAR
STARTCHAR 2051
ENCODING 8273
SWIDTH 720 0
DWIDTH 12 0
BBX 12 12 0 -2
BITMAP
0000
0600
1A80
0F00
0F00
1A80
0600
1A80
0F00
0F00
1A80
0600
ENDCHAR
STARTCHAR 20AC
ENCODING 8364
SWIDTH 720 0
DWIDTH 12 0
BBX 12 12 0 -2
BITMAP
0000
0F00
19C0
38C0
FF80
7000
FF00
7000
38C0
19C0
0F00
0000
ENDCHAR
STARTCHAR 2103
ENCODING 8451
SWIDTH 720 0
DWIDTH 12 0
BBX 12 12 0 -2
BITMAP
0000
6380
D6D0
DC70
6830
1800
1800
1800
1C30
0C60
07C0
0000
ENDCHAR
STARTCHAR 210F
ENCODING 8463
SWIDTH 720 0
DWIDTH 12 0
BBX 12 12 0 -2
BITMAP
0000
3E00
0F80
0E00
3C00
1F80
1CC0
19C0
3980
3BA0
31C0
0000
ENDCHAR
STARTCHAR 2113
ENCODING 8467
SWIDTH 720 0
DWIDTH 12 0
BBX 12 12 0 -2
BITMAP
0000
0300
0680
0D80
0D80
1980
1B00
1B00
1AC0
0D80
3B00
0000
ENDCHAR
STARTCHAR 2116
ENCODING 8470
SWIDTH 720 0
DWIDTH 12 0
BBX 12 12 0 -2
BITMAP
0000
CC00
EC00
EC00
D580
D540
D660
D660
DE60
DD70
CDB0
0000
ENDCHAR
STARTCHAR 2121
ENCODING 8481
SWIDTH 720 0
DWIDTH 12 0
BBX 12 12 0 -2
BITMAP
0000
F740
ED40
6CC0
6CC0
6F40
6CC0
6CC0
6CC0
6D50
F770
0000
ENDCHAR
STARTCHAR 2127
ENCODING 8487
SWIDTH 720 0
DWIDTH 12 0
BBX 12 12 0 -2
BITMAP
0000
7DE0
6D60
1980
39C0
70E0
70E0
70E0
39C0
1980
0F00
0000
ENDCHAR
STARTCHAR 212B
ENCODING 8491
SWIDTH 720 0
DWIDTH 12 0
BBX 12 12 0 -2
BITMAP
0000
0F00
0D00
0F00
0600
0D00
0D00
1980
1F80
30C0
79E0
0000
ENDCHAR
STARTCHAR 2135
ENCODING 8501
SWIDTH 720 0
DWIDTH 12 0
BBX 12 12 0 -2
BITMAP
0000
3300
3180
39C0
1DE0
1F80
3F00
3380
31C0
39C0
71C0
0000
ENDCHAR
STARTCHAR 2153
ENCODING 8531
SWIDTH 720 0
DWIDTH 12 0
BBX 12 12 0 -2
BITMAP
0000
1800
7800
18C0
1980
1B00
0600
0DC0
1860
33C0
6060
03C0
ENDCHAR
STARTCHAR 2154
ENCODING 8532
SWIDTH 720 0
DWIDTH 12 0
BBX 12 12 0 -2
BITMAP
0000
7800
0C00
38C0
6180
7D00
0600
0DC0
1860
33C0
6060
03C0
ENDCHAR
STARTCHAR 2155
ENCODING 8533
SWIDTH 720 0
DWIDTH 12 0
BBX 12 12 0 -2
BITMAP
0000
1800
7800
18C0
1980
1B00
0600
0DE0
1B00
33C0
6060
03C0
ENDCHAR
STARTCHAR 2160
ENCODING 8544
SWIDTH 720 0
DWIDTH 12 0
BBX 12 12 0 -2
BITMAP
0000
1F00
0E00
0E00
0E00
0E00
0E00
0E00
0E00
0E00
1F00
0000
ENDCHAR
STARTCHAR 2161
ENCODING 8545
SWIDTH 720 0
DWIDTH 12 0
BBX 12 12 0 -2
BITMAP
0000
7FC0
3B80
3B80
3B80
3B80
3B80
3B80
3B80
3B80
7FC0
0000
ENDCHAR
STARTCHAR 2162
ENCODING 8546
SWIDTH 720 0
DWIDTH 12 0
BBX 12 12 0 -2
BITMAP
0000
FFE0
76C0
76C0
76C0
76C0
76C0
76C0
76C0
76C0
FFE0
0000
ENDCHAR
STARTCHAR 2163
ENCODING 8547
SWIDTH 720 0
DWIDTH 12 0
BBX 12 12 0 -2
BITMAP
0000
FDE0
7CC0
7EC0
76C0
7680
7780
7780
7700
7300
FB00
0000
ENDCHAR
STARTCHAR 2164
ENCODING 8548
SWIDTH 720 0
DWIDTH 12 0
BBX 12 12 0 -2
BITMAP
0000
79E0
38C0
38C0
1D80
1D80
1D80
0F00
0F00
0600
0600
0000
ENDCHAR
STARTCHAR 2165
ENCODING 8549
SWIDTH 720 0
DWIDTH 12 0
BBX 12 12 0 -2
BITMAP
0000
F7E0
73C0
7BC0
3BC0
3AC0
1EC0
1EC0
1DC0
0DC0
0DE0
0000
ENDCHAR
STARTCHAR 2166
ENCODING 8550
SWIDTH 720 0
DWIDTH 12 0
BBX 12 12 0 -2
BITMAP
0000
F7E0
7740
7740
7740
3D40
3D40
3D40
1B40
1B40
1BE0
0000
ENDCHAR
STARTCHAR 2167
ENCODING 8551
SWIDTH 720 0
DWIDTH 12 0
BBX 12 12 0 -2
BITMAP
0000
EFF0
EEA0
EEA0
76A0
7AA0
7AA0
7AA0
36A0
36A0
37F0
0000
ENDCHAR
STARTCHAR 2168
ENCODING 8552
SWIDTH 720 0
DWIDTH 12 0
BBX 12 12 0 -2
BITMAP
0000
FEE0
76C0
7680
7780
7700
7780
7580
75C0
79C0
FDE0
0000
ENDCHAR
STARTCHAR 2169
ENCODING 8553
SWIDTH 720 0
DWIDTH 12 0
BBX 12 12 0 -2
BITMAP
0000
79E0
38C0
1D80
1F00
0F00
0F00
0D80
1B80
31C0
79E0
0000
ENDCHAR
STARTCHAR 216A
ENCODING 8554
SWIDTH 720 0
DWIDTH 12 0
BBX 12 12 0 -2
BITMAP
0000
F7E0
76C0
75C0
3DC0
39C0
3DC0
6DC0
6EC0
CEC0
EFE0
0000
ENDCHAR
STARTCHAR 216B
ENCODING 8555
SWIDTH 720 0
DWIDTH 12 0
BBX 12 12 0 -2
BITMAP
0000
F7E0
7740
7540
3D40
3B40
3D40
6D40
6F40
CF40
EFE0
0000
ENDCHAR
STARTCHAR 2170
ENCODING 8560
SWIDTH 720 0
DWIDTH 12 0
BBX 12 12 0 -2
BITMAP
0000
0000
0E00
0E00
0000
1E00
0E00
0E00
0E00
0E00
1F00
0000
ENDCHAR
STARTCHAR 2171
ENCODING 8561
SWIDTH 720 0
DWIDTH 12 0
BBX 12 12 0 -2
BITMAP
0000
0000
1D80
1D80
0000
3F80
1D80
1D80
1D80
1D80
3FC0
0000
ENDCHAR
STARTCHAR 2172
ENCODING 8562
SWIDTH 720 0
DWIDTH 12 0
BBX 12 12 0 -2
BITMAP
0000
0000
3AC0
3AC0
0000
7FE0
3AC0
3AC0
3AC0
3AC0
7FE0
0000
ENDCHAR
STARTCHAR 2173
ENCODING 8563
SWIDTH 720 0
DWIDTH 12 0
BBX 12 12 0 -2
BITMAP
0000
0000
3800
3800
0000
7FE0
3B40
3B40
3BC0
3B80
7D80
0000
ENDCHAR
STARTCHAR 2174
ENCODING 8564
SWIDTH 720 0
DWIDTH 12 0
BBX 12 12 0 -2
BITMAP
0000
0000
0000
0000
0000
7BC0
3980
1D00
1F00
0E00
0600
0000
ENDCHAR
STARTCHAR 2175
ENCODING 8565
SWIDTH 720 0
DWIDTH 12 0
BBX 12 12 0 -2
BITMAP
0000
0000
01C0
01C0
0000
7FC0
3AC0
3AC0
1EC0
1DC0
0DE0
0000
ENDCHAR
STARTCHAR 2176
ENCODING 8566
SWIDTH 720 0
DWIDTH 12 0
BBX 12 12 0 -2
BITMAP
0000
0000
03A0
03A0
0000
FFE0
75A0
75A0
3DA0
3BA0
1BE0
0000
ENDCHAR
STARTCHAR 2177
ENCODING 8567
SWIDTH 720 0
DWIDTH 12 0
BBX 12 12 0 -2
BITMAP
0000
0000
06A0
06A0
0000
FFF0
76A0
76A0
3AA0
3AA0
1BF0
0000
ENDCHAR
STARTCHAR 2178
ENCODING 8568
SWIDTH 720 0
DWIDTH 12 0
BBX 12 12 0 -2
BITMAP
0000
0000
3800
3800
0000
7FE0
3E80
3B00
3B80
3DC0
7EE0
0000
ENDCHAR
STARTCHAR 2179
ENCODING 8569
SWIDTH 720 0
DWIDTH 12 0
BBX 12 12 0 -2
BITMAP
0000
0000
0000
0000
0000
79E0
3DC0
0F00
0F80
39C0
79E0
0000
ENDCHAR
STARTCHAR 217A
ENCODING 8570
SWIDTH 720 0
DWIDTH 12 0
BBX 12 12 0 -2
BITMAP
0000
0000
01C0
01C0
0000
7FC0
3AC0
1DC0
1EC0
37C0
7BE0
0000
ENDCHAR
STARTCHAR 217B
ENCODING 8571
SWIDTH 720 0
DWIDTH 12 0
BBX 12 12 0 -2
BITMAP
0000
0000
01A0
01A0
0000
FFF0
75A0
39A0
3DA0
6EA0
F7F0
0000
ENDCHAR
STARTCHAR 2190
ENCODING 8592
SWIDTH 720 0
DWIDTH 12 0
BBX 12 12 0 -2
BITMAP
0000
0000
0000
0000
3000
6000
FFF0
6000
3000
0000
0000
0000
ENDCHAR
STARTCHAR 2191
ENCODING 8593
SWIDTH 720 0
DWIDTH 12 0
BBX 12 12 0 -2
BITMAP
0000
0600
0F00
1A80
0600
0600
0600
0600
0600
0600
0600
0600
ENDCHAR
STARTCHAR 2192
ENCODING 8594
SWIDTH 720 0
DWIDTH 12 0
BBX 12 12 0 -2
BITMAP
0000
0000
0000
0000
00C0
0060
FFF0
0060
00C0
0000
0000
0000
ENDCHAR
STARTCHAR 2193
ENCODING 8595
SWIDTH 720 0
DWIDTH 12 0
BBX 12 12 0 -2
BITMAP
0000
0600
0600
0600
0600
0600
0600
0600
0600
1A80
0F00
0600
ENDCHAR
STARTCHAR 2194
ENCODING 8596
SWIDTH 720 0
DWIDTH 12 0
BBX 12 12 0 -2
BITMAP
0000
0000
0000
0000
30C0
6060
FFF0
6060
30C0
0000
0000
0000
ENDCHAR
STARTCHAR 2196
ENCODING 8598
SWIDTH 720 0
DWIDTH 12 0
BBX 12 12 0 -2
BITMAP
0000
C000
7800
7000
6800
0C00
0600
0300
0180
00C0
0060
0000
ENDCHAR
STARTCHAR 2197
ENCODING 8599
SWIDTH 720 0
DWIDTH 12 0
BBX 12 12 0 -2
BITMAP
0000
0060
03C0
01C0
0340
0600
0C00
1800
3000
6000
C000
0000
ENDCHAR
STARTCHAR 2198
ENCODING 8600
SWIDTH 720 0
DWIDTH 12 0
BBX 12 12 0 -2
BITMAP
0000
C000
6000
3000
1800
0C00
0600
0340
01C0
03C0
0060
0000
ENDCHAR
STARTCHAR 2199
ENCODING 8601
SWIDTH 720 0
DWIDTH 12 0
BBX 12 12 0 -2
BITMAP
0000
0060
00C0
0180
0300
0600
0C00
6800
7000
7800
C000
0000
ENDCHAR
STARTCHAR 21C4
ENCODING 8644
SWIDTH 720 0
DWIDTH 12 0
BBX 12 12 0 -2
BITMAP
0000
00C0
0060
FFF0
0060
00C0
3000
6000
FFF0
6000
3000
0000
ENDCHAR
STARTCHAR 21D2
ENCODING 8658
SWIDTH 720 0
DWIDTH 12 0
BBX 12 12 0 -2
BITMAP
0000
0000
0300
0180
FFC0
0060
FFC0
0180
0300
0000
0000
0000
ENDCHAR
STARTCHAR 21D4
ENCODING 8660
SWIDTH 720 0
DWIDTH 12 0
BBX 12 12 0 -2
BITMAP
0000
0000
1B00
3180
7FC0
C060
7FC0
3180
1B00
0000
0000
0000
ENDCHAR
STARTCHAR 21E6
ENCODING 8678
SWIDTH 720 0
DWIDTH 12 0
BBX 12 12 0 -2
BITMAP
0000
0000
1800
3800
6FF0
C030
C030
6FF0
3800
1800
0000
0000
ENDCHAR
STARTCHAR 21E7
ENCODING 8679
SWIDTH 720 0
DWIDTH 12 0
BBX 12 12 0 -2
BITMAP
0000
0E00
1B00
3180
7BC0
1B00
1B00
1B00
1B00
1B00
1B00
1F00
ENDCHAR
STARTCHAR 21E8
ENCODING 8680
SWIDTH 720 0
DWIDTH 12 0
BBX 12 12 0 -2
BITMAP
0000
0000
0180
01C0
FFA0
C030
C030
FFA0
01C0
0180
0000
0000
ENDCHAR
STARTCHAR 21E9
ENCODING 8681
SWIDTH 720 0
DWIDTH 12 0
BBX 12 12 0 -2
BITMAP
0000
1F00
1B00
1B00
1B00
1B00
1B00
1B00
7BC0
3180
1B00
0E00
ENDCHAR
STARTCHAR 2200
ENCODING 8704
SWIDTH 720 0
DWIDTH 12 0
BBX 12 12 0 -2
BITMAP
0000
6060
6060
3FC0
30C0
1980
1980
0D00
0D00
0600
0600
0000
ENDCHAR
STARTCHAR 2202
ENCODING 8706
SWIDTH 720 0
DWIDTH 12 0
BBX 12 12 0 -2
BITMAP
0000
0700
0D80
18C0
00C0
0F40
1D80
3980
3980
3B00
1E00
0000
ENDCHAR
STARTCHAR 2203
ENCODING 8707
SWIDTH 720 0
DWIDTH 12 0
BBX 12 12 0 -2
BITMAP
0000
3F80
0180
0180
0180
3F80
0180
0180
0180
3F80
0000
0000
ENDCHAR
STARTCHAR 2205
ENCODING 8709
SWIDTH 720 0
DWIDTH 12 0
BBX 12 12 0 -2
BITMAP
0000
0000
0060
0F40
1980
3340
36C0
34C0
1980
3700
6000
0000
ENDCHAR
STARTCHAR 2207
ENCODING 8711
SWIDTH 720 0
DWIDTH 12 0
BBX 12 12 0 -2
BITMAP
0000
7FE0
7FE0
7060
38C0
38C0
1D80
1D80
0F00
0F00
0600
0000
ENDCHAR
STARTCHAR 2208
ENCODING 8712
SWIDTH 720 0
DWIDTH 12 0
BBX 12 12 0 -2
BITMAP
0000
0000
0000
1FC0
3000
3000
3FC0
3000
3000
1FC0
0000
0000
ENDCHAR
STARTCHAR 2209
ENCODING 8713
SWIDTH 720 0
DWIDTH 12 0
BBX 12 12 0 -2
BITMAP
0000
0000
0600
1FC0
3600
3600
3FC0
3600
3600
1FC0
0600
0000
ENDCHAR
STARTCHAR 220B
ENCODING 8715
SWIDTH 720 0
DWIDTH 12 0
BBX 12 12 0 -2
BITMAP
0000
0000
0000
3F80
00C0
00C0
3FC0
00C0
00C0
3F80
0000
0000
ENDCHAR
STARTCHAR 2212
ENCODING 8722
SWIDTH 720 0
DWIDTH 12 0
BBX 12 12 0 -2
BITMAP
0000
0000
0000
0000
0000
0000
7FE0
0000
0000
0000
0000
0000
ENDCHAR
STARTCHAR 2213
ENCODING 8723
SWIDTH 720 0
DWIDTH 12 0
BBX 12 12 0 -2
BITMAP
0000
0000
7FE0
0000
0600
0600
0600
7FE0
0600
0600
0600
0000
ENDCHAR
STARTCHAR 221A
ENCODING 8730
SWIDTH 720 0
DWIDTH 12 0
BBX 12 12 0 -2
BITMAP
0000
07F0
0600
0600
0600
0C00
0C00
6C00
F800
3800
1800
0000
ENDCHAR
STARTCHAR 221D
ENCODING 8733
SWIDTH 720 0
DWIDTH 12 0
BBX 12 12 0 -2
BITMAP
0000
0000
0000
39C0
6D60
C600
C600
C600
6D60
39C0
0000
0000
ENDCHAR
STARTCHAR 221E
ENCODING 8734
SWIDTH 720 0
DWIDTH 12 0
BBX 12 12 0 -2
BITMAP
0000
0000
0000
39C0
6D60
C630
C630
C630
6D60
39C0
0000
0000
ENDCHAR
STARTCHAR 221F
ENCODING 8735
SWIDTH 720 0
DWIDTH 12 0
BBX 12 12 0 -2
BITMAP
0000
0000
6000
6000
6000
6000
6000
6000
6000
6000
7FE0
0000
ENDCHAR
STARTCHAR 2220
ENCODING 8736
SWIDTH 720 0
DWIDTH 12 0
BBX 12 12 0 -2
BITMAP
0000
0000
00C0
0180
0300
0600
0C00
1800
3000
7FE0
0000
0000
ENDCHAR
STARTCHAR 2225
ENCODING 8741
SWIDTH 720 0
DWIDTH 12 0
BBX 12 12 0 -2
BITMAP
0000
0300
0660
06C0
0CC0
0D80
1980
1B00
3300
3600
6600
0C00
ENDCHAR
STARTCHAR 2226
ENCODING 8742
SWIDTH 720 0
DWIDTH 12 0
BBX 12 12 0 -2
BITMAP
0000
0300
0660
36C0
1CC0
0D80
1F80
1B00
3380
36C0
6600
0C00
ENDCHAR
STARTCHAR 2227
ENCODING 8743
SWIDTH 720 0
DWIDTH 12 0
BBX 12 12 0 -2
BITMAP
0000
0000
0600
0D00
0D00
1980
1980
30C0
30C0
6060
0000
0000
ENDCHAR
STARTCHAR 2228
ENCODING 8744
SWIDTH 720 0
DWIDTH 12 0
BBX 12 12 0 -2
BITMAP
0000
0000
6060
30C0
30C0
1980
1980
0D00
0D00
0600
0000
0000
ENDCHAR
STARTCHAR 2229
ENCODING 8745
SWIDTH 720 0
DWIDTH 12 0
BBX 12 12 0 -2
BITMAP
0000
0000
0F00
1980
30C0
30C0
30C0
30C0
30C0
30C0
30C0
0000
ENDCHAR
STARTCHAR 222A
ENCODING 8746
SWIDTH 720 0
DWIDTH 12 0
BBX 12 12 0 -2
BITMAP
0000
0000
30C0
30C0
30C0
30C0
30C0
30C0
30C0
1980
0F00
0000
ENDCHAR
STARTCHAR 222B
ENCODING 8747
SWIDTH 720 0
DWIDTH 12 0
BBX 12 12 0 -2
BITMAP
0000
0700
0D00
0C00
0C00
0600
0600
0600
0300
0300
0D00
0E00
ENDCHAR
STARTCHAR 222C
ENCODING 8748
SWIDTH 720 0
DWIDTH 12 0
BBX 12 12 0 -2
BITMAP
0000
1DC0
3540
3300
3300
1980
1980
1980
0CC0
0CC0
3540
3B80
ENDCHAR
STARTCHAR 222E
ENCODING 8750
SWIDTH 720 0
DWIDTH 12 0
BBX 12 12 0 -2
BITMAP
0000
0700
0D00
0C00
0F00
1A80
1A80
1A80
0F00
0300
0D00
0E00
ENDCHAR
STARTCHAR 2234
ENCODING 8756
SWIDTH 720 0
DWIDTH 12 0
BBX 12 12 0 -2
BITMAP
0000
0000
0000
0E00
0E00
0000
0000
0000
71C0
71C0
0000
0000
ENDCHAR
STARTCHAR 2235
ENCODING 8757
SWIDTH 720 0
DWIDTH 12 0
BBX 12 12 0 -2
BITMAP
0000
0000
0000
71C0
71C0
0000
0000
0000
0E00
0E00
0000
0000
ENDCHAR
STARTCHAR 223D
ENCODING 8765
SWIDTH 720 0
DWIDTH 12 0
BBX 12 12 0 -2
BITMAP
0000
0000
0000
39C0
6360
C330
C630
CC30
6C60
39C0
0000
0000
ENDCHAR
STARTCHAR 2243
ENCODING 8771
SWIDTH 720 0
DWIDTH 12 0
BBX 12 12 0 -2
BITMAP
0000
0000
0000
3830
6F60
C1C0
0000
0000
7FE0
0000
0000
0000
ENDCHAR
STARTCHAR 2245
ENCODING 8773
SWIDTH 720 0
DWIDTH 12 0
BBX 12 12 0 -2
BITMAP
0000
0000
0000
3830
6F60
C1C0
0000
7FE0
0000
7FE0
0000
0000
ENDCHAR
STARTCHAR 2248
ENCODING 8776
SWIDTH 720 0
DWIDTH 12 0
BBX 12 12 0 -2
BITMAP
0000
0000
0000
3830
6F60
C1C0
3830
6F60
C1C0
0000
0000
0000
ENDCHAR
STARTCHAR 2252
ENCODING 8786
SWIDTH 720 0
DWIDTH 12 0
BBX 12 12 0 -2
BITMAP
0000
0000
3000
3000
7FE0
0000
0000
7FE0
0180
0180
0000
0000
ENDCHAR
STARTCHAR 2260
ENCODING 8800
SWIDTH 720 0
DWIDTH 12 0
BBX 12 12 0 -2
BITMAP
0000
0000
0300
0300
7FE0
0600
0600
7FE0
0C00
0C00
0000
0000
ENDCHAR
STARTCHAR 2261
ENCODING 8801
SWIDTH 720 0
DWIDTH 12 0
BBX 12 12 0 -2
BITMAP
0000
0000
0000
7FE0
0000
0000
7FE0
0000
0000
7FE0
0000
0000
ENDCHAR
STARTCHAR 2262
ENCODING 8802
SWIDTH 720 0
DWIDTH 12 0
BBX 12 12 0 -2
BITMAP
0000
0180
0180
7FE0
0300
0600
7FE0
0600
0C00
7FE0
1800
1800
ENDCHAR
STARTCHAR 2266
ENCODING 8806
SWIDTH 720 0
DWIDTH 12 0
BBX 12 12 0 -2
BITMAP
0000
00E0
0380
0E00
7800
0E00
0380
00E0
7FE0
0000
7FE0
0000
ENDCHAR
STARTCHAR 2267
ENCODING 8807
SWIDTH 720 0
DWIDTH 12 0
BBX 12 12 0 -2
BITMAP
0000
7000
1C00
0700
01E0
0700
1C00
7000
7FE0
0000
7FE0
0000
ENDCHAR
STARTCHAR 226A
ENCODING 8810
SWIDTH 720 0
DWIDTH 12 0
BBX 12 12 0 -2
BITMAP
0000
06C0
0D80
1B00
3600
6C00
3600
1B00
0D80
06C0
0000
0000
ENDCHAR
STARTCHAR 226B
ENCODING 8811
SWIDTH 720 0
DWIDTH 12 0
BBX 12 12 0 -2
BITMAP
0000
6C00
3600
1B00
0D80
06C0
0D80
1B00
3600
6C00
0000
0000
ENDCHAR
STARTCHAR 2276
ENCODING 8822
SWIDTH 720 0
DWIDTH 12 0
BBX 12 12 0 -2
BITMAP
0000
01E0
0F00
7800
0F00
01E0
7800
0F00
01E0
0F00
7800
0000
ENDCHAR
STARTCHAR 2277
ENCODING 8823
SWIDTH 720 0
DWIDTH 12 0
BBX 12 12 0 -2
BITMAP
0000
7800
0F00
01E0
0F00
7800
01E0
0F00
7800
0F00
01E0
0000
ENDCHAR
STARTCHAR 2282
ENCODING 8834
SWIDTH 720 0
DWIDTH 12 0
BBX 12 12 0 -2
BITMAP
0000
0000
0000
1FE0
3000
6000
6000
6000
3000
1FE0
0000
0000
ENDCHAR
STARTCHAR 2283
ENCODING 8835
SWIDTH 720 0
DWIDTH 12 0
BBX 12 12 0 -2
BITMAP
0000
0000
0000
7F80
00C0
0060
0060
0060
00C0
7F80
0000
0000
ENDCHAR
STARTCHAR 2284
ENCODING 8836
SWIDTH 720 0
DWIDTH 12 0
BBX 12 12 0 -2
BITMAP
0000
0000
00C0
1FE0
3180
6300
6700
6600
3400
1FE0
1800
0000
ENDCHAR
STARTCHAR 2285
ENCODING 8837
SWIDTH 720 0
DWIDTH 12 0
BBX 12 12 0 -2
BITMAP
0000
0000
0180
7F80
0340
0660
0E60
0C60
18C0
7F80
3000
0000
ENDCHAR
STARTCHAR 2286
ENCODING 8838
SWIDTH 720 0
DWIDTH 12 0
BBX 12 12 0 -2
BITMAP
0000
0000
1FE0
3000
6000
6000
3000
1FE0
0000
7FE0
0000
0000
ENDCHAR
STARTCHAR 2287
ENCODING 8839
SWIDTH 720 0
DWIDTH 12 0
BBX 12 12 0 -2
BITMAP
0000
0000
7F80
00C0
0060
0060
00C0
7F80
0000
7FE0
0000
0000
ENDCHAR
STARTCHAR 228A
ENCODING 8842
SWIDTH 720 0
DWIDTH 12 0
BBX 12 12 0 -2
BITMAP
0000
0000
1FE0
3000
6000
6000
3000
1FE0
0300
7FE0
0600
0600
ENDCHAR
STARTCHAR 228B
ENCODING 8843
SWIDTH 720 0
DWIDTH 12 0
BBX 12 12 0 -2
BITMAP
0000
0000
7F80
00C0
0060
0060
00C0
7F80
0300
7FE0
0600
0600
ENDCHAR
STARTCHAR 2295
ENCODING 8853
SWIDTH 720 0
DWIDTH 12 0
BBX 12 12 0 -2
BITMAP
0000
0F00
3AC0
6660
6660
C630
FFF0
C630
6660
6660
3AC0
0F00
ENDCHAR
STARTCHAR 2296
ENCODING 8854
SWIDTH 720 0
DWIDTH 12 0
BBX 12 12 0 -2
BITMAP
0000
0F00
39C0
6060
6060
C030
FFF0
C030
6060
6060
39C0
0F00
ENDCHAR
STARTCHAR 2297
ENCODING 8855
SWIDTH 720 0
DWIDTH 12 0
BBX 12 12 0 -2
BITMAP
0000
0F00
39C0
70E0
69A0
CD30
C630
CD30
69A0
70E0
39C0
0F00
ENDCHAR
STARTCHAR 22A5
ENCODING 8869
SWIDTH 720 0
DWIDTH 12 0
BBX 12 12 0 -2
BITMAP
0000
0000
0600
0600
0600
0600
0600
0600
0600
7FE0
0000
0000
ENDCHAR
STARTCHAR 22BF
ENCODING 8895
SWIDTH 720 0
DWIDTH 12 0
BBX 12 12 0 -2
BITMAP
0000
0000
0060
00E0
01A0
0360
0660
0C60
1860
3060
7FE0
0000
ENDCHAR
STARTCHAR 22DA
ENCODING 8922
SWIDTH 720 0
DWIDTH 12 0
BBX 12 12 0 -2
BITMAP
0000
01E0
0F00
7800
0F00
01E0
7FE0
7800
0F00
01E0
0F00
7800
ENDCHAR
STARTCHAR 22DB
ENCODING 8923
SWIDTH 720 0
DWIDTH 12 0
BBX 12 12 0 -2
BITMAP
0000
7800
0F00
01E0
0F00
7800
7FE0
01E0
0F00
7800
0F00
01E0
ENDCHAR
STARTCHAR 2305
ENCODING 8965
SWIDTH 720 0
DWIDTH 12 0
BBX 12 12 0 -2
BITMAP
0000
0000
0000
0000
7FE0
0600
0D00
1980
30C0
0000
0000
0000
ENDCHAR
STARTCHAR 2306
ENCODING 8966
SWIDTH 720 0
DWIDTH 12 0
BBX 12 12 0 -2
BITMAP
0000
0000
0000
7FE0
0000
7FE0
0600
0D00
1980
30C0
0000
0000
ENDCHAR
STARTCHAR 2312
ENCODING 8978
SWIDTH 720 0
DWIDTH 12 0
BBX 12 12 0 -2
BITMAP
0000
3FC0
E070
0000
0000
0000
0000
0000
0000
0000
0000
0000
ENDCHAR
STARTCHAR 2318
ENCODING 8984
SWIDTH 720 0
DWIDTH 12 0
BBX 12 12 0 -2
BITMAP
0000
71C0
DB60
DB60
7FE0
1B00
1B00
7FC0
DB60
DB60
71C0
0000
ENDCHAR
STARTCHAR 23BE
ENCODING 9150
SWIDTH 720 0
DWIDTH 12 0
BBX 12 12 0 -2
BITMAP
07F0
0600
0600
0600
0600
0600
0600
0600
0600
0600
0600
0600
ENDCHAR
STARTCHAR 23BF
ENCODING 9151
SWIDTH 720 0
DWIDTH 12 0
BBX 12 12 0 -2
BITMAP
0600
0600
0600
0600
0600
0600
0600
0600
0600
0600
0600
07F0
ENDCHAR
STARTCHAR 23C0
ENCODING 9152
SWIDTH 720 0
DWIDTH 12 0
BBX 12 12 0 -2
BITMAP
0600
0600
0600
0F00
1A80
36C0
36C0
36C0
1A80
0F00
0600
0600
ENDCHAR
STARTCHAR 23C1
ENCODING 9153
SWIDTH 720 0
DWIDTH 12 0
BBX 12 12 0 -2
BITMAP
FFF0
0600
0600
0F00
1A80
36C0
36C0
36C0
1A80
0F00
0600
0600
ENDCHAR
STARTCHAR 23C2
ENCODING 9154
SWIDTH 720 0
DWIDTH 12 0
BBX 12 12 0 -2
BITMAP
0600
0600
0600
0F00
1A80
36C0
36C0
36C0
1A80
0F00
0600
FFF0
ENDCHAR
STARTCHAR 23C3
ENCODING 9155
SWIDTH 720 0
DWIDTH 12 0
BBX 12 12 0 -2
BITMAP
0600
0600
0600
0600
0F00
0F00
1A80
36C0
36C0
7FE0
0600
0600
ENDCHAR
STARTCHAR 23C4
ENCODING 9156
SWIDTH 720 0
DWIDTH 12 0
BBX 12 12 0 -2
BITMAP
FFF0
0600
0600
0600
0F00
0F00
1A80
36C0
36C0
7FE0
0600
0600
ENDCHAR
STARTCHAR 23C5
ENCODING 9157
SWIDTH 720 0
DWIDTH 12 0
BBX 12 12 0 -2
BITMAP
0600
0600
0600
0600
0F00
0F00
1A80
36C0
36C0
7FE0
0600
FFF0
ENDCHAR
STARTCHAR 23C6
ENCODING 9158
SWIDTH 720 0
DWIDTH 12 0
BBX 12 12 0 -2
BITMAP
0600
0600
0600
0600
0600
3A00
6F60
06C0
0600
0600
0600
0600
ENDCHAR
STARTCHAR 23C7
ENCODING 9159
SWIDTH 720 0
DWIDTH 12 0
BBX 12 12 0 -2
BITMAP
FFF0
0600
0600
0600
0600
3A00
6F60
06C0
0600
0600
0600
0600
ENDCHAR
STARTCHAR 23C8
ENCODING 9160
SWIDTH 720 0
DWIDTH 12 0
BBX 12 12 0 -2
BITMAP
0600
0600
0600
0600
0600
3A00
6F60
06C0
0600
0600
0600
FFF0
ENDCHAR
STARTCHAR 23C9
ENCODING 9161
SWIDTH 720 0
DWIDTH 12 0
BBX 12 12 0 -2
BITMAP
FFF0
0600
0600
0600
0600
0600
0600
0600
0600
0600
0600
0600
ENDCHAR
STARTCHAR 23CA
ENCODING 9162
SWIDTH 720 0
DWIDTH 12 0
BBX 12 12 0 -2
BITMAP
0600
0600
0600
0600
0600
0600
0600
0600
0600
0600
0600
FFF0
ENDCHAR
STARTCHAR 23CB
ENCODING 9163
SWIDTH 720 0
DWIDTH 12 0
BBX 12 12 0 -2
BITMAP
FE00
0600
0600
0600
0600
0600
0600
0600
0600
0600
0600
0600
ENDCHAR
STARTCHAR 23CC
ENCODING 9164
SWIDTH 720 0
DWIDTH 12 0
BBX 12 12 0 -2
BITMAP
0600
0600
0600
0600
0600
0600
0600
0600
0600
0600
0600
FE00
ENDCHAR
STARTCHAR 23CE
ENCODING 9166
SWIDTH 720 0
DWIDTH 12 0
BBX 12 12 0 -2
BITMAP
0000
0000
01E0
01A0
01A0
19A0
3B60
6E60
C0C0
6F80
3800
1800
ENDCHAR
STARTCHAR 2423
ENCODING 9251
SWIDTH 720 0
DWIDTH 12 0
BBX 12 12 0 -2
BITMAP
0000
0000
0000
0000
0000
0000
0000
0000
0000
60C0
60C0
7FC0
ENDCHAR
STARTCHAR 2460
ENCODING 9312
SWIDTH 720 0
DWIDTH 12 0
BBX 12 12 0 -2
BITMAP
0000
1F80
30C0
6660
CE30
C630
C630
C630
C630
6FA0
30C0
1F80
ENDCHAR
STARTCHAR 2461
ENCODING 9313
SWIDTH 720 0
DWIDTH 12 0
BBX 12 12 0 -2
BITMAP
0000
1F80
30C0
6F60
D9B0
C330
C630
CC30
D830
6FA0
30C0
1F80
ENDCHAR
STARTCHAR 2462
ENCODING 9314
SWIDTH 720 0
DWIDTH 12 0
BBX 12 12 0 -2
BITMAP
0000
1F80
30C0
6F60
D9B0
C1B0
C730
C1B0
D9B0
6F60
30C0
1F80
ENDCHAR
STARTCHAR 2463
ENCODING 9315
SWIDTH 720 0
DWIDTH 12 0
BBX 12 12 0 -2
BITMAP
0000
1F80
30C0
6660
CE30
DA30
DA30
DFB0
C630
6F60
30C0
1F80
ENDCHAR
STARTCHAR 2464
ENCODING 9316
SWIDTH 720 0
DWIDTH 12 0
BBX 12 12 0 -2
BITMAP
0000
1F80
30C0
6FA0
D830
D830
DF30
C1B0
D9B0
6F60
30C0
1F80
ENDCHAR
STARTCHAR 2465
ENCODING 9317
SWIDTH 720 0
DWIDTH 12 0
BBX 12 12 0 -2
BITMAP
0000
1F80
30C0
6F60
D9B0
D830
DF30
D9B0
D9B0
6F60
30C0
1F80
ENDCHAR
STARTCHAR 2466
ENCODING 9318
SWIDTH 720 0
DWIDTH 12 0
BBX 12 12 0 -2
BITMAP
0000
1F80
30C0
6FA0
D9B0
C330
C330
C630
C630
6660
30C0
1F80
ENDCHAR
STARTCHAR 2467
ENCODING 9319
SWIDTH 720 0
DWIDTH 12 0
BBX 12 12 0 -2
BITMAP
0000
1F80
30C0
6F60
D9B0
D9B0
CF30
D9B0
D9B0
6F60
30C0
1F80
ENDCHAR
STARTCHAR 2468
ENCODING 9320
SWIDTH 720 0
DWIDTH 12 0
BBX 12 12 0 -2
BITMAP
0000
1F80
30C0
6F60
D9B0
D9B0
CFB0
C1B0
D9B0
6F60
30C0
1F80
ENDCHAR
STARTCHAR 2469
ENCODING 9321
SWIDTH 720 0
DWIDTH 12 0
BBX 12 12 0 -2
BITMAP
0000
3FC0
6060
DBB0
DAD0
DAD0
DAD0
DAD0
DAD0
DDB0
6060
3FC0
ENDCHAR
STARTCHAR 246A
ENCODING 9322
SWIDTH 720 0
DWIDTH 12 0
BBX 12 12 0 -2
BITMAP
0000
3FC0
6060
D9B0
DBB0
D9B0
D9B0
D9B0
D9B0
DDD0
6060
3FC0
ENDCHAR
STARTCHAR 246B
ENCODING 9323
SWIDTH 720 0
DWIDTH 12 0
BBX 12 12 0 -2
BITMAP
0000
3FC0
6060
DBB0
DAD0
D8D0
D9B0
DB30
DA30
DFD0
6060
3FC0
ENDCHAR
STARTCHAR 246C
ENCODING 9324
SWIDTH 720 0
DWIDTH 12 0
BBX 12 12 0 -2
BITMAP
0000
3FC0
6060
DBB0
DAD0
D8D0
DBB0
D8D0
DAD0
DDB0
6060
3FC0
ENDCHAR
STARTCHAR 246D
ENCODING 9325
SWIDTH 720 0
DWIDTH 12 0
BBX 12 12 0 -2
BITMAP
0000
3FC0
6060
D9B0
DBB0
DAB0
DDB0
DFD0
D9B0
DDD0
6060
3FC0
ENDCHAR
STARTCHAR 246E
ENCODING 9326
SWIDTH 720 0
DWIDTH 12 0
BBX 12 12 0 -2
BITMAP
0000
3FC0
6060
DBB0
DA30
DA30
DBB0
D8D0
DAD0
DDB0
6060
3FC0
ENDCHAR
STARTCHAR 246F
ENCODING 9327
SWIDTH 720 0
DWIDTH 12 0
BBX 12 12 0 -2
BITMAP
0000
3FC0
6060
DBB0
DAD0
DA30
DBB0
DAD0
DAD0
DDB0
6060
3FC0
ENDCHAR
STARTCHAR 2470
ENCODING 9328
SWIDTH 720 0
DWIDTH 12 0
BBX 12 12 0 -2
BITMAP
0000
3FC0
6060
DBD0
DAD0
D9B0
DBB0
DB30
DB30
DD30
6060
3FC0
ENDCHAR
STARTCHAR 2471
ENCODING 9329
SWIDTH 720 0
DWIDTH 12 0
BBX 12 12 0 -2
BITMAP
0000
3FC0
6060
DBB0
DAD0
DAD0
DBB0
DAD0
DAD0
DDB0
6060
3FC0
ENDCHAR
STARTCHAR 2472
ENCODING 9330
SWIDTH 720 0
DWIDTH 12 0
BBX 12 12 0 -2
BITMAP
0000
3FC0
6060
DBB0
DAD0
DAD0
DBD0
D8D0
DAD0
DFB0
6060
3FC0
ENDCHAR
STARTCHAR 2473
ENCODING 9331
SWIDTH 720 0
DWIDTH 12 0
BBX 12 12 0 -2
BITMAP
0000
3FC0
6060
DDD0
D750
CF50
DD50
DB50
D350
DFD0
6060
3FC0
ENDCHAR
STARTCHAR 24D0
ENCODING 9424
SWIDTH 720 0
DWIDTH 12 0
BBX 12 12 0 -2
BITMAP
0000
1F80
30C0
6E60
C330
C330
DF30
D330
D330
6EA0
30C0
1F80
ENDCHAR
STARTCHAR 24D1
ENCODING 9425
SWIDTH 720 0
DWIDTH 12 0
BBX 12 12 0 -2
BITMAP
0000
1F80
30C0
6860
D830
DBB0
DCD0
D8D0
DCD0
6BA0
30C0
1F80
ENDCHAR
STARTCHAR 24D2
ENCODING 9426
SWIDTH 720 0
DWIDTH 12 0
BBX 12 12 0 -2
BITMAP
0000
1F80
30C0
6060
CF30
D9B0
D030
D030
D9B0
6F60
30C0
1F80
ENDCHAR
STARTCHAR 24D3
ENCODING 9427
SWIDTH 720 0
DWIDTH 12 0
BBX 12 12 0 -2
BITMAP
0000
1F80
30C0
61A0
C1B0
DEB0
D3B0
D1B0
D3B0
6EA0
30C0
1F80
ENDCHAR
STARTCHAR 24D4
ENCODING 9428
SWIDTH 720 0
DWIDTH 12 0
BBX 12 12 0 -2
BITMAP
0000
1F80
30C0
6060
DF30
D1B0
DFB0
D030
D9B0
6F60
30C0
1F80
ENDCHAR
STARTCHAR 24D5
ENCODING 9429
SWIDTH 720 0
DWIDTH 12 0
BBX 12 12 0 -2
BITMAP
0000
1F80
30C0
63A0
C630
C630
DFB0
C630
C630
6F60
30C0
1F80
ENDCHAR
STARTCHAR 24D6
ENCODING 9430
SWIDTH 720 0
DWIDTH 12 0
BBX 12 12 0 -2
BITMAP
0000
1F80
30C0
6EA0
DB30
DB30
DE30
D330
D1B0
6F60
30C0
1F80
ENDCHAR
STARTCHAR 24D7
ENCODING 9431
SWIDTH 720 0
DWIDTH 12 0
BBX 12 12 0 -2
BITMAP
0000
1F80
30C0
6860
D830
DB30
DDB0
D9B0
D9B0
69A0
30C0
1F80
ENDCHAR
STARTCHAR 24D8
ENCODING 9432
SWIDTH 720 0
DWIDTH 12 0
BBX 12 12 0 -2
BITMAP
0000
1F80
30C0
6660
C030
CE30
C630
C630
C630
6F60
30C0
1F80
ENDCHAR
STARTCHAR 24D9
ENCODING 9433
SWIDTH 720 0
DWIDTH 12 0
BBX 12 12 0 -2
BITMAP
0000
1F80
30C0
6360
C030
C730
C330
C330
DB30
6B60
36C0
1F80
ENDCHAR
STARTCHAR 24DA
ENCODING 9434
SWIDTH 720 0
DWIDTH 12 0
BBX 12 12 0 -2
BITMAP
0000
1F80
30C0
6860
DBB0
DB30
DA30
DE30
DB30
6BE0
30C0
1F80
ENDCHAR
STARTCHAR 24DB
ENCODING 9435
SWIDTH 720 0
DWIDTH 12 0
BBX 12 12 0 -2
BITMAP
0000
1F80
30C0
6E60
C630
C630
C630
C630
C630
6F60
30C0
1F80
ENDCHAR
STARTCHAR 24DC
ENCODING 9436
SWIDTH 720 0
DWIDTH 12 0
BBX 12 12 0 -2
BITMAP
0000
1F80
30C0
6060
DDB0
D6D0
D6D0
D6D0
D6D0
7B60
30C0
1F80
ENDCHAR
STARTCHAR 24DD
ENCODING 9437
SWIDTH 720 0
DWIDTH 12 0
BBX 12 12 0 -2
BITMAP
0000
1F80
30C0
6060
DB30
DDB0
D9B0
D9B0
D9B0
7DE0
30C0
1F80
ENDCHAR
STARTCHAR 24DE
ENCODING 9438
SWIDTH 720 0
DWIDTH 12 0
BBX 12 12 0 -2
BITMAP
0000
1F80
30C0
6060
CF30
D9B0
D0D0
D0D0
D9B0
6F60
30C0
1F80
ENDCHAR
STARTCHAR 24DF
ENCODING 9439
SWIDTH 720 0
DWIDTH 12 0
BBX 12 12 0 -2
BITMAP
0000
1F80
30C0
6BA0
DCD0
D8D0
DCD0
DBB0
D830
7C60
30C0
1F80
ENDCHAR
STARTCHAR 24E0
ENCODING 9440
SWIDTH 720 0
DWIDTH 12 0
BBX 12 12 0 -2
BITMAP
0000
1F80
30C0
6EA0
D3B0
D1B0
D3B0
DEB0
C1B0
63E0
30C0
1F80
ENDCHAR
STARTCHAR 24E1
ENCODING 9441
SWIDTH 720 0
DWIDTH 12 0
BBX 12 12 0 -2
BITMAP
0000
1F80
30C0
6060
DDB0
CED0
CC30
CC30
CC30
6E60
30C0
1F80
ENDCHAR
STARTCHAR 24E2
ENCODING 9442
SWIDTH 720 0
DWIDTH 12 0
BBX 12 12 0 -2
BITMAP
0000
1F80
30C0
6F60
D9B0
D830
CF30
C1B0
D9B0
6F60
30C0
1F80
ENDCHAR
STARTCHAR 24E3
ENCODING 9443
SWIDTH 720 0
DWIDTH 12 0
BBX 12 12 0 -2
BITMAP
0000
1F80
30C0
6C60
CC30
DFB0
CC30
CC30
CDB0
6760
30C0
1F80
ENDCHAR
STARTCHAR 24E4
ENCODING 9444
SWIDTH 720 0
DWIDTH 12 0
BBX 12 12 0 -2
BITMAP
0000
1F80
30C0
6060
D9B0
D9B0
D9B0
D9B0
DBB0
6EA0
30C0
1F80
ENDCHAR
STARTCHAR 24E5
ENCODING 9445
SWIDTH 720 0
DWIDTH 12 0
BBX 12 12 0 -2
BITMAP
0000
1F80
30C0
6060
DBD0
D9B0
DB30
CD30
CE30
6660
30C0
1F80
ENDCHAR
STARTCHAR 24E6
ENCODING 9446
SWIDTH 720 0
DWIDTH 12 0
BBX 12 12 0 -2
BITMAP
0000
1F80
30C0
6060
FAF0
D6D0
D550
D550
D9B0
69A0
30C0
1F80
ENDCHAR
STARTCHAR 24E7
ENCODING 9447
SWIDTH 720 0
DWIDTH 12 0
BBX 12 12 0 -2
BITMAP
0000
1F80
30C0
6060
DDD0
D9B0
CF30
CD30
D9B0
7DE0
30C0
1F80
ENDCHAR
STARTCHAR 24E8
ENCODING 9448
SWIDTH 720 0
DWIDTH 12 0
BBX 12 12 0 -2
BITMAP
0000
1F80
30C0
6060
DDD0
D9B0
CDB0
C730
D630
6C60
30C0
1F80
ENDCHAR
STARTCHAR 24E9
ENCODING 9449
SWIDTH 720 0
DWIDTH 12 0
BBX 12 12 0 -2
BITMAP
0000
1F80
30C0
6060
DFB0
D330
C630
CCD0
D9B0
7FA0
30C0
1F80
ENDCHAR
STARTCHAR 24EB
ENCODING 9451
SWIDTH 720 0
DWIDTH 12 0
BBX 12 12 0 -2
BITMAP
0000
3FC0
7FE0
F770
EEF0
F770
F770
F770
F770
E670
7FE0
3FC0
ENDCHAR
STARTCHAR 24EC
ENCODING 9452
SWIDTH 720 0
DWIDTH 12 0
BBX 12 12 0 -2
BITMAP
0000
3FC0
7FE0
F6F0
EDB0
F7B0
F770
F6F0
F5F0
E070
7FE0
3FC0
ENDCHAR
STARTCHAR 24ED
ENCODING 9453
SWIDTH 720 0
DWIDTH 12 0
BBX 12 12 0 -2
BITMAP
0000
3FC0
7FE0
F6F0
EDB0
F7B0
F6F0
F7B0
F5B0
E6F0
7FE0
3FC0
ENDCHAR
STARTCHAR 24EE
ENCODING 9454
SWIDTH 720 0
DWIDTH 12 0
BBX 12 12 0 -2
BITMAP
0000
3FC0
7FE0
F770
EEF0
F570
F770
F070
F770
E670
7FE0
3FC0
ENDCHAR
STARTCHAR 24EF
ENCODING 9455
SWIDTH 720 0
DWIDTH 12 0
BBX 12 12 0 -2
BITMAP
0000
3FC0
7FE0
F4F0
EDF0
F5F0
F4F0
F7B0
F5B0
E6F0
7FE0
3FC0
ENDCHAR
STARTCHAR 24F0
ENCODING 9456
SWIDTH 720 0
DWIDTH 12 0
BBX 12 12 0 -2
BITMAP
0000
3FC0
7FE0
F6F0
EDB0
F5F0
F4F0
F5B0
F5B0
E6F0
7FE0
3FC0
ENDCHAR
STARTCHAR 24F1
ENCODING 9457
SWIDTH 720 0
DWIDTH 12 0
BBX 12 12 0 -2
BITMAP
0000
3FC0
7FE0
F470
EDB0
F770
F770
F6F0
F6F0
E6F0
7FE0
3FC0
ENDCHAR
STARTCHAR 24F2
ENCODING 9458
SWIDTH 720 0
DWIDTH 12 0
BBX 12 12 0 -2
BITMAP
0000
3FC0
7FE0
F6F0
EDB0
F5B0
F6F0
F5B0
F5B0
E6F0
7FE0
3FC0
ENDCHAR
STARTCHAR 24F3
ENCODING 9459
SWIDTH 720 0
DWIDTH 12 0
BBX 12 12 0 -2
BITMAP
0000
3FC0
7FE0
F6F0
EDB0
F5B0
F670
F7B0
F5B0
E6F0
7FE0
3FC0
ENDCHAR
STARTCHAR 24F4
ENCODING 9460
SWIDTH 720 0
DWIDTH 12 0
BBX 12 12 0 -2
BITMAP
0000
3FC0
7FE0
F670
EDB0
FDB0
FAB0
F6B0
EEB0
E070
7FE0
3FC0
ENDCHAR
STARTCHAR 24F5
ENCODING 9461
SWIDTH 720 0
DWIDTH 12 0
BBX 12 12 0 -2
BITMAP
0000
3FC0
6FA0
D0D0
EE70
E670
E670
E670
EF70
D0D0
6FA0
3FC0
ENDCHAR
STARTCHAR 24F6
ENCODING 9462
SWIDTH 720 0
DWIDTH 12 0
BBX 12 12 0 -2
BITMAP
0000
3FC0
6FA0
D0D0
EF70
E370
E670
EC70
EF70
D0D0
6FA0
3FC0
ENDCHAR
STARTCHAR 24F7
ENCODING 9463
SWIDTH 720 0
DWIDTH 12 0
BBX 12 12 0 -2
BITMAP
0000
3FC0
6FA0
D0D0
EF70
E370
EE70
E370
EF70
D0D0
6FA0
3FC0
ENDCHAR
STARTCHAR 24F8
ENCODING 9464
SWIDTH 720 0
DWIDTH 12 0
BBX 12 12 0 -2
BITMAP
0000
3FC0
6FA0
D0D0
E670
EE70
EA70
EF70
E670
D0D0
6FA0
3FC0
ENDCHAR
STARTCHAR 24F9
ENCODING 9465
SWIDTH 720 0
DWIDTH 12 0
BBX 12 12 0 -2
BITMAP
0000
3FC0
6FA0
D0D0
EF70
EC70
EF70
E370
EF70
D0D0
6FA0
3FC0
ENDCHAR
STARTCHAR 24FA
ENCODING 9466
SWIDTH 720 0
DWIDTH 12 0
BBX 12 12 0 -2
BITMAP
0000
3FC0
6FA0
D0D0
E770
EC70
EF70
ED70
EF70
D0D0
6FA0
3FC0
ENDCHAR
STARTCHAR 24FB
ENCODING 9467
SWIDTH 720 0
DWIDTH 12 0
BBX 12 12 0 -2
BITMAP
0000
3FC0
6FA0
D0D0
EF70
ED70
E370
E670
E670
D0D0
6FA0
3FC0
ENDCHAR
STARTCHAR 24FC
ENCODING 9468
SWIDTH 720 0
DWIDTH 12 0
BBX 12 12 0 -2
BITMAP
0000
3FC0
6FA0
D0D0
EF70
ED70
EF70
ED70
EF70
D0D0
6FA0
3FC0
ENDCHAR
STARTCHAR 24FD
ENCODING 9469
SWIDTH 720 0
DWIDTH 12 0
BBX 12 12 0 -2
BITMAP
0000
3FC0
6FA0
D0D0
EF70
ED70
EF70
E370
EE70
D0D0
6FA0
3FC0
ENDCHAR
STARTCHAR 24FE
ENCODING 9470
SWIDTH 720 0
DWIDTH 12 0
BBX 12 12 0 -2
BITMAP
0000
3FC0
6FA0
D0D0
EDB0
EDB0
EDB0
EDB0
EFB0
D0D0
6FA0
3FC0
ENDCHAR
STARTCHAR 2500
ENCODING 9472
SWIDTH 720 0
DWIDTH 12 0
BBX 12 12 0 -2
BITMAP
0000
0000
0000
0000
0000
0000
FFF0
0000
0000
0000
0000
0000
ENDCHAR
STARTCHAR 2501
ENCODING 9473
SWIDTH 720 0
DWIDTH 12 0
BBX 12 12 0 -2
BITMAP
0000
0000
0000
0000
0000
FFF0
FFF0
0000
0000
0000
0000
0000
ENDCHAR
STARTCHAR 2502
ENCODING 9474
SWIDTH 720 0
DWIDTH 12 0
BBX 12 12 0 -2
BITMAP
0600
0600
0600
0600
0600
0600
0600
0600
0600
0600
0600
0600
ENDCHAR
STARTCHAR 2503
ENCODING 9475
SWIDTH 720 0
DWIDTH 12 0
BBX 12 12 0 -2
BITMAP
0E00
0E00
0E00
0E00
0E00
0E00
0E00
0E00
0E00
0E00
0E00
0E00
ENDCHAR
STARTCHAR 250C
ENCODING 9484
SWIDTH 720 0
DWIDTH 12 0
BBX 12 12 0 -2
BITMAP
0000
0000
0000
0000
0000
0000
07F0
0600
0600
0600
0600
0600
ENDCHAR
STARTCHAR 250F
ENCODING 9487
SWIDTH 720 0
DWIDTH 12 0
BBX 12 12 0 -2
BITMAP
0000
0000
0000
0000
0000
0FF0
0FF0
0E00
0E00
0E00
0E00
0E00
ENDCHAR
STARTCHAR 2510
ENCODING 9488
SWIDTH 720 0
DWIDTH 12 0
BBX 12 12 0 -2
BITMAP
0000
0000
0000
0000
0000
0000
FE00
0600
0600
0600
0600
0600
ENDCHAR
STARTCHAR 2513
ENCODING 9491
SWIDTH 720 0
DWIDTH 12 0
BBX 12 12 0 -2
BITMAP
0000
0000
0000
0000
0000
FE00
FE00
0E00
0E00
0E00
0E00
0E00
ENDCHAR
STARTCHAR 2514
ENCODING 9492
SWIDTH 720 0
DWIDTH 12 0
BBX 12 12 0 -2
BITMAP
0600
0600
0600
0600
0600
0600
07F0
0000
0000
0000
0000
0000
ENDCHAR
STARTCHAR 2517
ENCODING 9495
SWIDTH 720 0
DWIDTH 12 0
BBX 12 12 0 -2
BITMAP
0E00
0E00
0E00
0E00
0E00
0FF0
0FF0
0000
0000
0000
0000
0000
ENDCHAR
STARTCHAR 2518
ENCODING 9496
SWIDTH 720 0
DWIDTH 12 0
BBX 12 12 0 -2
BITMAP
0600
0600
0600
0600
0600
0600
FE00
0000
0000
0000
0000
0000
ENDCHAR
STARTCHAR 251B
ENCODING 9499
SWIDTH 720 0
DWIDTH 12 0
BBX 12 12 0 -2
BITMAP
0E00
0E00
0E00
0E00
0E00
FE00
FE00
0000
0000
0000
0000
0000
ENDCHAR
STARTCHAR 251C
ENCODING 9500
SWIDTH 720 0
DWIDTH 12 0
BBX 12 12 0 -2
BITMAP
0600
0600
0600
0600
0600
0600
07F0
0600
0600
0600
0600
0600
ENDCHAR
STARTCHAR 251D
ENCODING 9501
SWIDTH 720 0
DWIDTH 12 0
BBX 12 12 0 -2
BITMAP
0600
0600
0600
0600
0600
07F0
07F0
0600
0600
0600
0600
0600
ENDCHAR
STARTCHAR 2520
ENCODING 9504
SWIDTH 720 0
DWIDTH 12 0
BBX 12 12 0 -2
BITMAP
0E00
0E00
0E00
0E00
0E00
0E00
0FF0
0E00
0E00
0E00
0E00
0E00
ENDCHAR
STARTCHAR 2523
ENCODING 9507
SWIDTH 720 0
DWIDTH 12 0
BBX 12 12 0 -2
BITMAP
0E00
0E00
0E00
0E00
0E00
0FF0
0FF0
0E00
0E00
0E00
0E00
0E00
ENDCHAR
STARTCHAR 2524
ENCODING 9508
SWIDTH 720 0
DWIDTH 12 0
BBX 12 12 0 -2
BITMAP
0600
0600
0600
0600
0600
0600
FE00
0600
0600
0600
0600
0600
ENDCHAR
STARTCHAR 2525
ENCODING 9509
SWIDTH 720 0
DWIDTH 12 0
BBX 12 12 0 -2
BITMAP
0600
0600
0600
0600
0600
FE00
FE00
0600
0600
0600
0600
0600
ENDCHAR
STARTCHAR 2528
ENCODING 9512
SWIDTH 720 0
DWIDTH 12 0
BBX 12 12 0 -2
BITMAP
0E00
0E00
0E00
0E00
0E00
0E00
FE00
0E00
0E00
0E00
0E00
0E00
ENDCHAR
STARTCHAR 252B
ENCODING 9515
SWIDTH 720 0
DWIDTH 12 0
BBX 12 12 0 -2
BITMAP
0E00
0E00
0E00
0E00
0E00
FE00
FE00
0E00
0E00
0E00
0E00
0E00
ENDCHAR
STARTCHAR 252C
ENCODING 9516
SWIDTH 720 0
DWIDTH 12 0
BBX 12 12 0 -2
BITMAP
0000
0000
0000
0000
0000
0000
FFF0
0600
0600
0600
0600
0600
ENDCHAR
STARTCHAR 252F
ENCODING 9519
SWIDTH 720 0
DWIDTH 12 0
BBX 12 12 0 -2
BITMAP
0000
0000
0000
0000
0000
FFF0
FFF0
0600
0600
0600
0600
0600
ENDCHAR
STARTCHAR 2530
ENCODING 9520
SWIDTH 720 0
DWIDTH 12 0
BBX 12 12 0 -2
BITMAP
0000
0000
0000
0000
0000
0000
FFF0
0E00
0E00
0E00
0E00
0E00
ENDCHAR
STARTCHAR 2533
ENCODING 9523
SWIDTH 720 0
DWIDTH 12 0
BBX 12 12 0 -2
BITMAP
0000
0000
0000
0000
0000
FFF0
FFF0
0E00
0E00
0E00
0E00
0E00
ENDCHAR
STARTCHAR 2534
ENCODING 9524
SWIDTH 720 0
DWIDTH 12 0
BBX 12 12 0 -2
BITMAP
0600
0600
0600
0600
0600
0600
FFF0
0000
0000
0000
0000
0000
ENDCHAR
STARTCHAR 2537
ENCODING 9527
SWIDTH 720 0
DWIDTH 12 0
BBX 12 12 0 -2
BITMAP
0600
0600
0600
0600
0600
FFF0
FFF0
0000
0000
0000
0000
0000
ENDCHAR
STARTCHAR 2538
ENCODING 9528
SWIDTH 720 0
DWIDTH 12 0
BBX 12 12 0 -2
BITMAP
0E00
0E00
0E00
0E00
0E00
0E00
FFF0
0000
0000
0000
0000
0000
ENDCHAR
STARTCHAR 253B
ENCODING 9531
SWIDTH 720 0
DWIDTH 12 0
BBX 12 12 0 -2
BITMAP
0E00
0E00
0E00
0E00
0E00
FFF0
FFF0
0000
0000
0000
0000
0000
ENDCHAR
STARTCHAR 253C
ENCODING 9532
SWIDTH 720 0
DWIDTH 12 0
BBX 12 12 0 -2
BITMAP
0600
0600
0600
0600
0600
0600
FFF0
0600
0600
0600
0600
0600
ENDCHAR
STARTCHAR 253F
ENCODING 9535
SWIDTH 720 0
DWIDTH 12 0
BBX 12 12 0 -2
BITMAP
0600
0600
0600
0600
0600
FFF0
FFF0
0600
0600
0600
0600
0600
ENDCHAR
STARTCHAR 2542
ENCODING 9538
SWIDTH 720 0
DWIDTH 12 0
BBX 12 12 0 -2
BITMAP
0E00
0E00
0E00
0E00
0E00
0E00
FFF0
0E00
0E00
0E00
0E00
0E00
ENDCHAR
STARTCHAR 254B
ENCODING 9547
SWIDTH 720 0
DWIDTH 12 0
BBX 12 12 0 -2
BITMAP
0E00
0E00
0E00
0E00
0E00
FFF0
FFF0
0E00
0E00
0E00
0E00
0E00
ENDCHAR
STARTCHAR 25A0
ENCODING 9632
SWIDTH 720 0
DWIDTH 12 0
BBX 12 12 0 -2
BITMAP
0000
FFE0
FFE0
FFE0
FFE0
FFE0
FFE0
FFE0
FFE0
FFE0
FFE0
0000
ENDCHAR
STARTCHAR 25A1
ENCODING 9633
SWIDTH 720 0
DWIDTH 12 0
BBX 12 12 0 -2
BITMAP
0000
FFE0
C060
C060
C060
C060
C060
C060
C060
C060
FFE0
0000
ENDCHAR
STARTCHAR 25B1
ENCODING 9649
SWIDTH 720 0
DWIDTH 12 0
BBX 12 12 0 -2
BITMAP
0000
0000
0000
1FF0
3030
3060
6060
60C0
C0C0
FF80
0000
0000
ENDCHAR
STARTCHAR 25B2
ENCODING 9650
SWIDTH 720 0
DWIDTH 12 0
BBX 12 12 0 -2
BITMAP
0000
0000
0600
0F00
0F00
1F80
1F80
3FC0
3FC0
7FE0
7FE0
0000
ENDCHAR
STARTCHAR 25B3
ENCODING 9651
SWIDTH 720 0
DWIDTH 12 0
BBX 12 12 0 -2
BITMAP
0000
0000
0600
0D00
0D00
1980
1980
30C0
30C0
6060
7FE0
0000
ENDCHAR
STARTCHAR 25B6
ENCODING 9654
SWIDTH 720 0
DWIDTH 12 0
BBX 12 12 0 -2
BITMAP
0000
0000
6000
7800
7E00
7F80
7FE0
7F80
7E00
7800
6000
0000
ENDCHAR
STARTCHAR 25B7
ENCODING 9655
SWIDTH 720 0
DWIDTH 12 0
BBX 12 12 0 -2
BITMAP
0000
0000
6000
7800
6E00
6380
60E0
6380
6E00
7800
6000
0000
ENDCHAR
STARTCHAR 25BC
ENCODING 9660
SWIDTH 720 0
DWIDTH 12 0
BBX 12 12 0 -2
BITMAP
0000
0000
7FE0
7FE0
3FC0
3FC0
1F80
1F80
0F00
0F00
0600
0000
ENDCHAR
STARTCHAR 25BD
ENCODING 9661
SWIDTH 720 0
DWIDTH 12 0
BBX 12 12 0 -2
BITMAP
0000
0000
7FE0
6060
30C0
30C0
1980
1980
0D00
0D00
0600
0000
ENDCHAR
STARTCHAR 25C0
ENCODING 9664
SWIDTH 720 0
DWIDTH 12 0
BBX 12 12 0 -2
BITMAP
0000
0000
0060
01E0
07E0
1FE0
7FE0
1FE0
07E0
01E0
0060
0000
ENDCHAR
STARTCHAR 25C1
ENCODING 9665
SWIDTH 720 0
DWIDTH 12 0
BBX 12 12 0 -2
BITMAP
0000
0000
0060
01E0
0760
1C60
7060
1C60
0760
01E0
0060
0000
ENDCHAR
STARTCHAR 25C6
ENCODING 9670
SWIDTH 720 0
DWIDTH 12 0
BBX 12 12 0 -2
BITMAP
0000
0600
0F00
1F80
3FC0
7FE0
FFF0
7FE0
3FC0
1F80
0F00
0600
ENDCHAR
STARTCHAR 25C7
ENCODING 9671
SWIDTH 720 0
DWIDTH 12 0
BBX 12 12 0 -2
BITMAP
0000
0600
0D00
1980
30C0
6060
C030
6060
30C0
1980
0D00
0600
ENDCHAR
STARTCHAR 25C9
ENCODING 9673
SWIDTH 720 0
DWIDTH 12 0
BBX 12 12 0 -2
BITMAP
0000
0F00
39C0
6F60
6FA0
DFD0
DFD0
DFD0
6FA0
6F60
39C0
0F00
ENDCHAR
STARTCHAR 25CB
ENCODING 9675
SWIDTH 720 0
DWIDTH 12 0
BBX 12 12 0 -2
BITMAP
0000
0E00
3B80
60C0
60C0
C060
C060
60C0
60C0
3B80
0E00
0000
ENDCHAR
STARTCHAR 25CE
ENCODING 9678
SWIDTH 720 0
DWIDTH 12 0
BBX 12 12 0 -2
BITMAP
0000
0E00
3B80
6EC0
6B40
D1A0
D1A0
6B40
6EC0
3B80
0E00
0000
ENDCHAR
STARTCHAR 25CF
ENCODING 9679
SWIDTH 720 0
DWIDTH 12 0
BBX 12 12 0 -2
BITMAP
0000
0E00
3F80
7FC0
7FC0
FFE0
FFE0
7FC0
7FC0
3F80
0E00
0000
ENDCHAR
STARTCHAR 25D0
ENCODING 9680
SWIDTH 720 0
DWIDTH 12 0
BBX 12 12 0 -2
BITMAP
0000
0F00
3EC0
7E60
7E60
FE30
FE30
FE30
7E60
7E60
3EC0
0F00
ENDCHAR
STARTCHAR 25D1
ENCODING 9681
SWIDTH 720 0
DWIDTH 12 0
BBX 12 12 0 -2
BITMAP
0000
0F00
3BC0
67E0
67E0
C7F0
C7F0
C7F0
67E0
67C0
3B80
0F00
ENDCHAR
STARTCHAR 25D2
ENCODING 9682
SWIDTH 720 0
DWIDTH 12 0
BBX 12 12 0 -2
BITMAP
0000
0F00
39C0
6060
6060
C030
FFF0
FFF0
7FE0
7FE0
3FC0
0F00
ENDCHAR
STARTCHAR 25D3
ENCODING 9683
SWIDTH 720 0
DWIDTH 12 0
BBX 12 12 0 -2
BITMAP
0000
0F00
3FC0
7FE0
7FE0
FFF0
FFF0
C030
6060
6060
39C0
0F00
ENDCHAR
STARTCHAR 25E6
ENCODING 9702
SWIDTH 720 0
DWIDTH 12 0
BBX 12 12 0 -2
BITMAP
0000
0000
0000
0F00
1D80
1980
1D80
0F00
0000
0000
0000
0000
ENDCHAR
STARTCHAR 25EF
ENCODING 9711
SWIDTH 720 0
DWIDTH 12 0
BBX 12 12 0 -2
BITMAP
0000
1F00
3180
60C0
C060
C060
C060
C060
60C0
3180
1F00
0000
ENDCHAR
STARTCHAR 2600
ENCODING 9728
SWIDTH 720 0
DWIDTH 12 0
BBX 12 12 0 -2
BITMAP
0000
0600
6660
30C0
0F00
1F80
EFB0
1F80
0F00
30C0
6660
0600
ENDCHAR
STARTCHAR 2601
ENCODING 9729
SWIDTH 720 0
DWIDTH 12 0
BBX 12 12 0 -2
BITMAP
0000
0000
1E00
3F00
7FE0
FFF0
FFE0
FFF0
7BE0
03C0
0000
0000
ENDCHAR
STARTCHAR 2602
ENCODING 9730
SWIDTH 720 0
DWIDTH 12 0
BBX 12 12 0 -2
BITMAP
0000
0600
0600
3FC0
7FE0
FFF0
DAB0
0600
0600
0600
3600
1C00
ENDCHAR
STARTCHAR 2603
ENCODING 9731
SWIDTH 720 0
DWIDTH 12 0
BBX 12 12 0 -2
BITMAP
0000
1BD0
6FE0
DBD0
6DE0
6DA0
D550
6660
C030
C630
C630
7FE0
ENDCHAR
STARTCHAR 2605
ENCODING 9733
SWIDTH 720 0
DWIDTH 12 0
BBX 12 12 0 -2
BITMAP
0000
0600
0600
0F00
FFF0
7FE0
1F80
3FC0
3DC0
79E0
6060
0000
ENDCHAR
STARTCHAR 2606
ENCODING 9734
SWIDTH 720 0
DWIDTH 12 0
BBX 12 12 0 -2
BITMAP
0000
0600
0600
0D00
F9F0
70E0
1980
36C0
3540
79E0
6060
0000
ENDCHAR
STARTCHAR 260E
ENCODING 9742
SWIDTH 720 0
DWIDTH 12 0
BBX 12 12 0 -2
BITMAP
0000
0000
7FE0
E9B0
EFB0
3FC0
79E0
79E0
F9F0
FFF0
FFF0
0000
ENDCHAR
STARTCHAR 2616
ENCODING 9750
SWIDTH 720 0
DWIDTH 12 0
BBX 12 12 0 -2
BITMAP
0000
0E00
3B80
3180
60C0
60C0
60C0
C060
C060
C060
FFE0
0000
ENDCHAR
STARTCHAR 2617
ENCODING 9751
SWIDTH 720 0
DWIDTH 12 0
BBX 12 12 0 -2
BITMAP
0000
0E00
3F80
3F80
7FC0
7FC0
7FC0
FFE0
FFE0
FFE0
FFE0
0000
ENDCHAR
STARTCHAR 261E
ENCODING 9758
SWIDTH 720 0
DWIDTH 12 0
BBX 12 12 0 -2
BITMAP
0000
0000
0000
7FE0
E830
DEE0
D300
ED00
6600
3C00
0000
0000
ENDCHAR
STARTCHAR 2640
ENCODING 9792
SWIDTH 720 0
DWIDTH 12 0
BBX 12 12 0 -2
BITMAP
0000
0F00
1980
30C0
30C0
1980
0F00
0600
3FC0
0600
0600
0600
ENDCHAR
STARTCHAR 2642
ENCODING 9794
SWIDTH 720 0
DWIDTH 12 0
BBX 12 12 0 -2
BITMAP
0000
0000
03E0
00E0
01A0
0360
3A00
6C00
C600
C600
6C00
3800
ENDCHAR
STARTCHAR 2660
ENCODING 9824
SWIDTH 720 0
DWIDTH 12 0
BBX 12 12 0 -2
BITMAP
0000
0600
0F00
1F80
3FC0
7FE0
7FE0
7FE0
3AC0
0600
0F00
0000
ENDCHAR
STARTCHAR 2661
ENCODING 9825
SWIDTH 720 0
DWIDTH 12 0
BBX 12 12 0 -2
BITMAP
0000
1D80
36C0
6660
6060
6060
30C0
1980
0D00
0600
0600
0000
ENDCHAR
STARTCHAR 2662
ENCODING 9826
SWIDTH 720 0
DWIDTH 12 0
BBX 12 12 0 -2
BITMAP
0000
0600
0D00
1980
30C0
6060
6060
30C0
1980
0D00
0600
0000
ENDCHAR
STARTCHAR 2663
ENCODING 9827
SWIDTH 720 0
DWIDTH 12 0
BBX 12 12 0 -2
BITMAP
0000
0F00
1F80
1F80
3740
7AE0
7FE0
7FE0
3AC0
0600
0F00
0000
ENDCHAR
STARTCHAR 2664
ENCODING 9828
SWIDTH 720 0
DWIDTH 12 0
BBX 12 12 0 -2
BITMAP
0000
0600
0D00
1980
30C0
6060
6060
6F60
3AC0
0600
0F00
0000
ENDCHAR
STARTCHAR 2665
ENCODING 9829
SWIDTH 720 0
DWIDTH 12 0
BBX 12 12 0 -2
BITMAP
0000
1D80
3FC0
7FE0
7FE0
7FE0
3FC0
1F80
0F00
0600
0600
0000
ENDCHAR
STARTCHAR 2666
ENCODING 9830
SWIDTH 720 0
DWIDTH 12 0
BBX 12 12 0 -2
BITMAP
0000
0600
0F00
1F80
3FC0
7FE0
7FE0
3FC0
1F80
0F00
0600
0000
ENDCHAR
STARTCHAR 2667
ENCODING 9831
SWIDTH 720 0
DWIDTH 12 0
BBX 12 12 0 -2
BITMAP
0000
0F00
1980
1980
39C0
6D60
6060
6F60
3AC0
0600
0F00
0000
ENDCHAR
STARTCHAR 2668
ENCODING 9832
SWIDTH 720 0
DWIDTH 12 0
BBX 12 12 0 -2
BITMAP
0000
0600
36C0
34C0
6D80
6D80
76E0
D6D0
D6D0
EDB0
6060
3FC0
ENDCHAR
STARTCHAR 2669
ENCODING 9833
SWIDTH 720 0
DWIDTH 12 0
BBX 12 12 0 -2
BITMAP
0000
0600
0600
0600
0600
0600
0600
0600
0600
3E00
7E00
3C00
ENDCHAR
STARTCHAR 266A
ENCODING 9834
SWIDTH 720 0
DWIDTH 12 0
BBX 12 12 0 -2
BITMAP
0000
0600
0700
0780
07C0
06E0
0660
06C0
0680
3E00
7E00
3C00
ENDCHAR
STARTCHAR 266B
ENCODING 9835
SWIDTH 720 0
DWIDTH 12 0
BBX 12 12 0 -2
BITMAP
0000
1F00
1FE0
19E0
1860
1860
1860
1860
7860
F9E0
73E0
03C0
ENDCHAR
STARTCHAR 266C
ENCODING 9836
SWIDTH 720 0
DWIDTH 12 0
BBX 12 12 0 -2
BITMAP
0000
1F00
1FE0
19E0
1E60
1FE0
1BE0
1860
7860
F9E0
73E0
03C0
ENDCHAR
STARTCHAR 266D
ENCODING 9837
SWIDTH 720 0
DWIDTH 12 0
BBX 12 12 0 -2
BITMAP
0000
1800
1800
1800
1800
1B80
1DC0
19C0
1B80
1B00
1A00
1C00
ENDCHAR
STARTCHAR 266E
ENCODING 9838
SWIDTH 720 0
DWIDTH 12 0
BBX 12 12 0 -2
BITMAP
0000
1800
18C0
1BC0
1FC0
1EC0
18C0
1BC0
1FC0
1EC0
18C0
00C0
ENDCHAR
STARTCHAR 266F
ENCODING 9839
SWIDTH 720 0
DWIDTH 12 0
BBX 12 12 0 -2
BITMAP
0000
0180
1980
1FE0
7FE0
7D80
1980
1DE0
7FE0
7F80
1980
1800
ENDCHAR
STARTCHAR 2713
ENCODING 10003
SWIDTH 720 0
DWIDTH 12 0
BBX 12 12 0 -2
BITMAP
0000
0000
0060
00C0
0180
0300
0600
E600
3400
1800
1800
0000
ENDCHAR
STARTCHAR 2756
ENCODING 10070
SWIDTH 720 0
DWIDTH 12 0
BBX 12 12 0 -2
BITMAP
0000
0E00
1F00
1F00
3680
7BC0
FFE0
7BC0
3680
1F00
1F00
0E00
ENDCHAR
STARTCHAR 2776
ENCODING 10102
SWIDTH 720 0
DWIDTH 12 0
BBX 12 12 0 -2
BITMAP
0000
3FC0
7FE0
FDF0
FBF0
FDF0
FDF0
FDF0
FDF0
F0F0
7FE0
3FC0
ENDCHAR
STARTCHAR 2777
ENCODING 10103
SWIDTH 720 0
DWIDTH 12 0
BBX 12 12 0 -2
BITMAP
0000
3FC0
7FE0
F9F0
F770
FEF0
FDF0
FBF0
F7F0
F0F0
7FE0
3FC0
ENDCHAR
STARTCHAR 2778
ENCODING 10104
SWIDTH 720 0
DWIDTH 12 0
BBX 12 12 0 -2
BITMAP
0000
3FC0
7FE0
F9F0
F770
FF70
FDF0
FF70
F770
F9F0
7FE0
3FC0
ENDCHAR
STARTCHAR 2779
ENCODING 10105
SWIDTH 720 0
DWIDTH 12 0
BBX 12 12 0 -2
BITMAP
0000
3FC0
7FE0
FDF0
FBF0
F5F0
EDF0
E0F0
FDF0
F9F0
7FE0
3FC0
ENDCHAR
STARTCHAR 277A
ENCODING 10106
SWIDTH 720 0
DWIDTH 12 0
BBX 12 12 0 -2
BITMAP
0000
3FC0
7FE0
F0F0
F7F0
F7F0
F1F0
FF70
F770
F9F0
7FE0
3FC0
ENDCHAR
STARTCHAR 277B
ENCODING 10107
SWIDTH 720 0
DWIDTH 12 0
BBX 12 12 0 -2
BITMAP
0000
3FC0
7FE0
F9F0
F770
F7F0
F1F0
F770
F770
F9F0
7FE0
3FC0
ENDCHAR
STARTCHAR 277C
ENCODING 10108
SWIDTH 720 0
DWIDTH 12 0
BBX 12 12 0 -2
BITMAP
0000
3FC0
7FE0
F0F0
F770
FEF0
FEF0
FDF0
FDF0
FDF0
7FE0
3FC0
ENDCHAR
STARTCHAR 277D
ENCODING 10109
SWIDTH 720 0
DWIDTH 12 0
BBX 12 12 0 -2
BITMAP
0000
3FC0
7FE0
F9F0
F770
F770
F9F0
F770
F770
F9F0
7FE0
3FC0
ENDCHAR
STARTCHAR 277E
ENCODING 10110
SWIDTH 720 0
DWIDTH 12 0
BBX 12 12 0 -2
BITMAP
0000
3FC0
7FE0
F9F0
F770
F770
F8F0
FF70
F770
F9F0
7FE0
3FC0
ENDCHAR
STARTCHAR 277F
ENCODING 10111
SWIDTH 720 0
DWIDTH 12 0
BBX 12 12 0 -2
BITMAP
0000
3FC0
7FE0
F6F0
EDB0
F5B0
F5B0
F5B0
F5B0
E6F0
7FE0
3FC0
ENDCHAR
STARTCHAR 2934
ENCODING 10548
SWIDTH 720 0
DWIDTH 12 0
BBX 12 12 0 -2
BITMAP
0000
00C0
00C0
01E0
0350
00C0
00C0
0180
0300
FE00
0000
0000
ENDCHAR
STARTCHAR 2935
ENCODING 10549
SWIDTH 720 0
DWIDTH 12 0
BBX 12 12 0 -2
BITMAP
0000
0000
7E00
0300
0180
00C0
00C0
0350
01E0
00C0
00C0
0000
ENDCHAR
STARTCHAR 29BF
ENCODING 10687
SWIDTH 720 0
DWIDTH 12 0
BBX 12 12 0 -2
BITMAP
0000
0F00
39C0
6060
6660
CF30
DFB0
CF30
6660
6060
39C0
0F00
ENDCHAR
STARTCHAR 29FA
ENCODING 10746
SWIDTH 720 0
DWIDTH 12 0
BBX 12 12 0 -2
BITMAP
0000
0000
1980
1980
1980
1980
7FE0
1980
1980
1980
1980
0000
ENDCHAR
STARTCHAR 29FB
ENCODING 10747
SWIDTH 720 0
DWIDTH 12 0
BBX 12 12 0 -2
BITMAP
0000
0000
1A80
1A80
1A80
1A80
7FE0
1A80
1A80
1A80
1A80
0000
ENDCHAR
STARTCHAR 3000
ENCODING 12288
SWIDTH 720 0
DWIDTH 12 0
BBX 12 12 0 -2
BITMAP
0000
0000
0000
0000
0000
0000
0000
0000
0000
0000
0000
0000
ENDCHAR
STARTCHAR 3001
ENCODING 12289
SWIDTH 720 0
DWIDTH 12 0
BBX 12 12 0 -2
BITMAP
0000
0000
0000
0000
0000
0000
0000
0000
C000
7000
3800
3800
ENDCHAR
STARTCHAR 3002
ENCODING 12290
SWIDTH 720 0
DWIDTH 12 0
BBX 12 12 0 -2
BITMAP
0000
0000
0000
0000
0000
0000
0000
0000
7000
D800
D800
7000
ENDCHAR
STARTCHAR 3003
ENCODING 12291
SWIDTH 720 0
DWIDTH 12 0
BBX 12 12 0 -2
BITMAP
0000
0000
0000
0D80
0D80
0D80
0D80
1B00
1B00
3600
0000
0000
ENDCHAR
STARTCHAR 3005
ENCODING 12293
SWIDTH 720 0
DWIDTH 12 0
BBX 12 12 0 -2
BITMAP
0000
0C00
0C00
0C00
1FC0
1980
3180
6D00
0600
0300
0180
0000
ENDCHAR
STARTCHAR 3006
ENCODING 12294
SWIDTH 720 0
DWIDTH 12 0
BBX 12 12 0 -2
BITMAP
0000
0060
0060
00C0
1D80
3700
6680
6C00
6800
7000
6000
0000
ENDCHAR
STARTCHAR 3007
ENCODING 12295
SWIDTH 720 0
DWIDTH 12 0
BBX 12 12 0 -2
BITMAP
0000
0000
1F80
30C0
6060
C030
C030
C030
6060
30C0
1F80
0000
ENDCHAR
STARTCHAR 3008
ENCODING 12296
SWIDTH 720 0
DWIDTH 12 0
BBX 12 12 0 -2
BITMAP
0000
00C0
0180
0180
0300
0300
0600
0300
0300
0180
0180
00C0
ENDCHAR
STARTCHAR 3009
ENCODING 12297
SWIDTH 720 0
DWIDTH 12 0
BBX 12 12 0 -2
BITMAP
0000
3000
1800
1800
0C00
0C00
0600
0C00
0C00
1800
1800
3000
ENDCHAR
STARTCHAR 300A
ENCODING 12298
SWIDTH 720 0
DWIDTH 12 0
BBX 12 12 0 -2
BITMAP
0000
01B0
0360
0360
06C0
06C0
0D80
06C0
06C0
0360
0360
01B0
ENDCHAR
STARTCHAR 300B
ENCODING 12299
SWIDTH 720 0
DWIDTH 12 0
BBX 12 12 0 -2
BITMAP
0000
D800
6C00
6C00
3600
3600
1B00
3600
3600
6C00
6C00
D800
ENDCHAR
STARTCHAR 300C
ENCODING 12300
SWIDTH 720 0
DWIDTH 12 0
BBX 12 12 0 -2
BITMAP
0000
07C0
0600
0600
0600
0600
0600
0600
0600
0600
0000
0000
ENDCHAR
STARTCHAR 300D
ENCODING 12301
SWIDTH 720 0
DWIDTH 12 0
BBX 12 12 0 -2
BITMAP
0000
0000
0000
0600
0600
0600
0600
0600
0600
0600
0600
3E00
ENDCHAR
STARTCHAR 300E
ENCODING 12302
SWIDTH 720 0
DWIDTH 12 0
BBX 12 12 0 -2
BITMAP
0000
07F0
0630
06F0
0680
0680
0680
0680
0680
0680
0780
0000
ENDCHAR
STARTCHAR 300F
ENCODING 12303
SWIDTH 720 0
DWIDTH 12 0
BBX 12 12 0 -2
BITMAP
0000
0000
1E00
1A00
1A00
1A00
1A00
1A00
1A00
FA00
C600
FE00
ENDCHAR
STARTCHAR 3010
ENCODING 12304
SWIDTH 720 0
DWIDTH 12 0
BBX 12 12 0 -2
BITMAP
0000
07C0
0780
0700
0700
0600
0600
0600
0700
0700
0780
07C0
ENDCHAR
STARTCHAR 3011
ENCODING 12305
SWIDTH 720 0
DWIDTH 12 0
BBX 12 12 0 -2
BITMAP
0000
3E00
1E00
0E00
0E00
0600
0600
0600
0E00
0E00
1E00
3E00
ENDCHAR
STARTCHAR 3012
ENCODING 12306
SWIDTH 720 0
DWIDTH 12 0
BBX 12 12 0 -2
BITMAP
0000
7FE0
7FE0
0000
FFF0
FFF0
0600
0600
0600
0600
0600
0600
ENDCHAR
STARTCHAR 3013
ENCODING 12307
SWIDTH 720 0
DWIDTH 12 0
BBX 12 12 0 -2
BITMAP
0000
0000
0000
7FE0
7FE0
0000
0000
7FE0
7FE0
0000
0000
0000
ENDCHAR
STARTCHAR 3014
ENCODING 12308
SWIDTH 720 0
DWIDTH 12 0
BBX 12 12 0 -2
BITMAP
0000
01C0
0700
0600
0600
0600
0600
0600
0600
0600
0700
01C0
ENDCHAR
STARTCHAR 3015
ENCODING 12309
SWIDTH 720 0
DWIDTH 12 0
BBX 12 12 0 -2
BITMAP
0000
3800
0E00
0600
0600
0600
0600
0600
0600
0600
0E00
3800
ENDCHAR
STARTCHAR 3016
ENCODING 12310
SWIDTH 720 0
DWIDTH 12 0
BBX 12 12 0 -2
BITMAP
07E0
06C0
0680
0680
0700
0700
0700
0700
0680
0680
06C0
07E0
ENDCHAR
STARTCHAR 3017
ENCODING 12311
SWIDTH 720 0
DWIDTH 12 0
BBX 12 12 0 -2
BITMAP
7E00
3600
1A00
1A00
0E00
0E00
0E00
0E00
1A00
1A00
3600
7E00
ENDCHAR
STARTCHAR 3018
ENCODING 12312
SWIDTH 720 0
DWIDTH 12 0
BBX 12 12 0 -2
BITMAP
00E0
0780
06E0
0680
0680
0680
0680
0680
0680
06E0
0780
00E0
ENDCHAR
STARTCHAR 3019
ENCODING 12313
SWIDTH 720 0
DWIDTH 12 0
BBX 12 12 0 -2
BITMAP
7000
1E00
7600
1A00
1A00
1A00
1A00
1A00
1A00
7600
1E00
7000
ENDCHAR
STARTCHAR 301C
ENCODING 12316
SWIDTH 720 0
DWIDTH 12 0
BBX 12 12 0 -2
BITMAP
0000
0000
0000
0000
0000
7800
CE60
03C0
0000
0000
0000
0000
ENDCHAR
STARTCHAR 301D
ENCODING 12317
SWIDTH 720 0
DWIDTH 12 0
BBX 12 12 0 -2
BITMAP
0000
01C0
0EC0
0660
0300
0000
0000
0000
0000
0000
0000
0000
ENDCHAR
STARTCHAR 301F
ENCODING 12319
SWIDTH 720 0
DWIDTH 12 0
BBX 12 12 0 -2
BITMAP
0000
0000
0000
0000
0000
0000
0000
0000
1800
CC00
6E00
7000
ENDCHAR
STARTCHAR 3020
ENCODING 12320
SWIDTH 720 0
DWIDTH 12 0
BBX 12 12 0 -2
BITMAP
0000
7FE0
0000
7FE0
6660
DAD0
EF70
DAD0
69A0
6F60
30C0
1F80
ENDCHAR
STARTCHAR 3033
ENCODING 12339
SWIDTH 720 0
DWIDTH 12 0
BBX 12 12 0 -2
BITMAP
0000
0000
0000
0000
3800
6E00
0380
00C0
0060
0030
0000
0000
ENDCHAR
STARTCHAR 3034
ENCODING 12340
SWIDTH 720 0
DWIDTH 12 0
BBX 12 12 0 -2
BITMAP
0000
0700
0C00
0380
3A00
6E00
0380
00C0
0060
0030
0000
0000
ENDCHAR
STARTCHAR 3035
ENCODING 12341
SWIDTH 720 0
DWIDTH 12 0
BBX 12 12 0 -2
BITMAP
0000
0000
0000
0000
03C0
0600
1C00
7000
C000
8000
0000
0000
ENDCHAR
STARTCHAR 303B
ENCODING 12347
SWIDTH 720 0
DWIDTH 12 0
BBX 12 12 0 -2
BITMAP
0000
0000
0C00
0600
0380
0600
0C00
0E00
0700
0380
0000
0000
ENDCHAR
STARTCHAR 303C
ENCODING 12348
SWIDTH 720 0
DWIDTH 12 0
BBX 12 12 0 -2
BITMAP
FFF0
8070
80D0
81B0
8330
8630
8C30
9830
B030
A030
C030
FFF0
ENDCHAR
STARTCHAR 303D
ENCODING 12349
SWIDTH 720 0
DWIDTH 12 0
BBX 12 12 0 -2
BITMAP
0000
3000
6B00
EA80
0D80
00C0
00C0
00C0
00E0
00E0
0060
0000
ENDCHAR
STARTCHAR 3041
ENCODING 12353
SWIDTH 720 0
DWIDTH 12 0
BBX 12 12 0 -2
BITMAP
0000
0000
0000
0C00
0780
3E00
0D00
0F80
1D40
36C0
36C0
1980
ENDCHAR
STARTCHAR 3042
ENCODING 12354
SWIDTH 720 0
DWIDTH 12 0
BBX 12 12 0 -2
BITMAP
0000
1800
0F80
7D00
1B00
1FC0
3A60
6A30
DC30
D460
60C0
0380
ENDCHAR
STARTCHAR 3043
ENCODING 12355
SWIDTH 720 0
DWIDTH 12 0
BBX 12 12 0 -2
BITMAP
0000
0000
0000
0000
6000
3180
30C0
30C0
31C0
3400
1800
0000
ENDCHAR
STARTCHAR 3044
ENCODING 12356
SWIDTH 720 0
DWIDTH 12 0
BBX 12 12 0 -2
BITMAP
0000
0000
C000
6380
60C0
6060
6060
60E0
3460
3800
1800
0000
ENDCHAR
STARTCHAR 3045
ENCODING 12357
SWIDTH 720 0
DWIDTH 12 0
BBX 12 12 0 -2
BITMAP
0000
0000
0000
0C00
0700
0000
3780
1CC0
00C0
00C0
0180
0700
ENDCHAR
STARTCHAR 3046
ENCODING 12358
SWIDTH 720 0
DWIDTH 12 0
BBX 12 12 0 -2
BITMAP
0000
1800
0F00
0000
6F80
38C0
00C0
00C0
0180
0180
0300
0600
ENDCHAR
STARTCHAR 3047
ENCODING 12359
SWIDTH 720 0
DWIDTH 12 0
BBX 12 12 0 -2
BITMAP
0000
0000
0000
0C00
0780
0000
3780
1D00
0600
0C00
1A00
33C0
ENDCHAR
STARTCHAR 3048
ENCODING 12360
SWIDTH 720 0
DWIDTH 12 0
BBX 12 12 0 -2
BITMAP
0000
1800
0F00
0000
6F80
3B00
0600
0C00
1E00
3300
6300
61E0
ENDCHAR
STARTCHAR 3049
ENCODING 12361
SWIDTH 720 0
DWIDTH 12 0
BBX 12 12 0 -2
BITMAP
0000
0000
0000
3000
1E80
78E0
18C0
1B80
3CC0
68C0
38C0
1B80
ENDCHAR
STARTCHAR 304A
ENCODING 12362
SWIDTH 720 0
DWIDTH 12 0
BBX 12 12 0 -2
BITMAP
0000
3000
1AC0
1C60
7870
19C0
1B60
1C30
3830
EB30
39E0
1800
ENDCHAR
STARTCHAR 304B
ENCODING 12363
SWIDTH 720 0
DWIDTH 12 0
BBX 12 12 0 -2
BITMAP
0000
1800
19C0
1E60
7B30
1B70
3300
3300
3300
6300
0600
0E00
ENDCHAR
STARTCHAR 304C
ENCODING 12364
SWIDTH 720 0
DWIDTH 12 0
BBX 12 12 0 -2
BITMAP
0000
31A0
30D0
3CD0
F7C0
3660
66E0
6600
6600
C600
0C00
1C00
ENDCHAR
STARTCHAR 304D
ENCODING 12365
SWIDTH 720 0
DWIDTH 12 0
BBX 12 12 0 -2
BITMAP
0000
0C00
37C0
1E00
67E0
3D00
0180
1F80
30C0
3000
1C00
0780
ENDCHAR
STARTCHAR 304E
ENCODING 12366
SWIDTH 720 0
DWIDTH 12 0
BBX 12 12 0 -2
BITMAP
0000
19A0
6F50
3CD0
0F80
FA00
0300
3F00
6180
6000
3800
0F00
ENDCHAR
STARTCHAR 304F
ENCODING 12367
SWIDTH 720 0
DWIDTH 12 0
BBX 12 12 0 -2
BITMAP
0000
0600
0300
0300
0600
1C00
3800
0C00
0600
0300
0300
0300
ENDCHAR
STARTCHAR 3050
ENCODING 12368
SWIDTH 720 0
DWIDTH 12 0
BBX 12 12 0 -2
BITMAP
0000
0DA0
06D0
06D0
0C00
3800
7000
1800
0C00
0600
0600
0600
ENDCHAR
STARTCHAR 3051
ENCODING 12369
SWIDTH 720 0
DWIDTH 12 0
BBX 12 12 0 -2
BITMAP
0000
0300
6180
30E0
37C0
60C0
60C0
60C0
68C0
3180
3180
0300
ENDCHAR
STARTCHAR 3052
ENCODING 12370
SWIDTH 720 0
DWIDTH 12 0
BBX 12 12 0 -2
BITMAP
0000
06A0
6350
31F0
37C0
60C0
60C0
60C0
68C0
3180
3180
0300
ENDCHAR
STARTCHAR 3053
ENCODING 12371
SWIDTH 720 0
DWIDTH 12 0
BBX 12 12 0 -2
BITMAP
0000
3000
1FC0
0180
0300
0000
0000
0000
6000
3060
1FC0
0000
ENDCHAR
STARTCHAR 3054
ENCODING 12372
SWIDTH 720 0
DWIDTH 12 0
BBX 12 12 0 -2
BITMAP
0000
31A0
1F50
0350
0600
0000
0000
0000
6000
3060
1FC0
0000
ENDCHAR
STARTCHAR 3055
ENCODING 12373
SWIDTH 720 0
DWIDTH 12 0
BBX 12 12 0 -2
BITMAP
0000
0C00
66C0
3F00
0300
0300
1F80
3180
6000
6000
3800
0F00
ENDCHAR
STARTCHAR 3056
ENCODING 12374
SWIDTH 720 0
DWIDTH 12 0
BBX 12 12 0 -2
BITMAP
0000
19A0
6D50
3ED0
0600
0300
1F80
3180
6000
6000
3800
0F00
ENDCHAR
STARTCHAR 3057
ENCODING 12375
SWIDTH 720 0
DWIDTH 12 0
BBX 12 12 0 -2
BITMAP
0000
3000
1800
1800
1800
1800
1800
1800
1860
18C0
0D80
0700
ENDCHAR
STARTCHAR 3058
ENCODING 12376
SWIDTH 720 0
DWIDTH 12 0
BBX 12 12 0 -2
BITMAP
0000
6340
31A0
31A0
3000
3000
3000
3000
30C0
3180
1B00
0E00
ENDCHAR
STARTCHAR 3059
ENCODING 12377
SWIDTH 720 0
DWIDTH 12 0
BBX 12 12 0 -2
BITMAP
0000
0C00
C7F0
7E00
0600
1E00
3300
3300
1F00
0300
0600
1C00
ENDCHAR
STARTCHAR 305A
ENCODING 12378
SWIDTH 720 0
DWIDTH 12 0
BBX 12 12 0 -2
BITMAP
0000
0DA0
C6D0
7F50
0600
1E00
3300
3300
1F00
0300
0600
1C00
ENDCHAR
STARTCHAR 305B
ENCODING 12379
SWIDTH 720 0
DWIDTH 12 0
BBX 12 12 0 -2
BITMAP
0000
0300
6180
3180
D3F0
7E80
3180
3180
3380
3180
1800
0FC0
ENDCHAR
STARTCHAR 305C
ENCODING 12380
SWIDTH 720 0
DWIDTH 12 0
BBX 12 12 0 -2
BITMAP
0000
06A0
6350
3350
D7E0
7D00
3300
3300
3700
3300
1800
0FC0
ENDCHAR
STARTCHAR 305D
ENCODING 12381
SWIDTH 720 0
DWIDTH 12 0
BBX 12 12 0 -2
BITMAP
0000
3780
1D00
0600
0CE0
1F80
7300
0600
0C00
0C00
0600
0380
ENDCHAR
STARTCHAR 305E
ENCODING 12382
SWIDTH 720 0
DWIDTH 12 0
BBX 12 12 0 -2
BITMAP
0000
6FA0
3AD0
06D0
0C00
1F80
7600
0C00
1800
1800
0C00
0700
ENDCHAR
STARTCHAR 305F
ENCODING 12383
SWIDTH 720 0
DWIDTH 12 0
BBX 12 12 0 -2
BITMAP
0000
3000
1B00
1E00
7800
1BC0
1860
30C0
3000
3600
6600
63E0
ENDCHAR
STARTCHAR 3060
ENCODING 12384
SWIDTH 720 0
DWIDTH 12 0
BBX 12 12 0 -2
BITMAP
0000
31A0
1AD0
1CD0
7800
1BC0
1860
30C0
3000
3600
6600
63E0
ENDCHAR
STARTCHAR 3061
ENCODING 12385
SWIDTH 720 0
DWIDTH 12 0
BBX 12 12 0 -2
BITMAP
0000
1800
6F80
3C00
1800
1B80
1CC0
3860
3060
00C0
01C0
0F00
ENDCHAR
STARTCHAR 3062
ENCODING 12386
SWIDTH 720 0
DWIDTH 12 0
BBX 12 12 0 -2
BITMAP
0000
19A0
6F50
3CD0
1800
1B80
1CC0
3860
3060
00C0
01C0
0F00
ENDCHAR
STARTCHAR 3063
ENCODING 12387
SWIDTH 720 0
DWIDTH 12 0
BBX 12 12 0 -2
BITMAP
0000
0000
0000
0000
0000
0000
0780
6CC0
38C0
00C0
0180
0700
ENDCHAR
STARTCHAR 3064
ENCODING 12388
SWIDTH 720 0
DWIDTH 12 0
BBX 12 12 0 -2
BITMAP
0000
0000
0000
0F80
D8C0
7060
0060
0060
00C0
0780
0000
0000
ENDCHAR
STARTCHAR 3065
ENCODING 12389
SWIDTH 720 0
DWIDTH 12 0
BBX 12 12 0 -2
BITMAP
0000
01A0
00D0
0F50
D980
70C0
00C0
00C0
0180
0F00
0000
0000
ENDCHAR
STARTCHAR 3066
ENCODING 12390
SWIDTH 720 0
DWIDTH 12 0
BBX 12 12 0 -2
BITMAP
0000
0060
67C0
3D00
0300
0600
0600
0600
0600
0600
0300
01C0
ENDCHAR
STARTCHAR 3067
ENCODING 12391
SWIDTH 720 0
DWIDTH 12 0
BBX 12 12 0 -2
BITMAP
0000
01A0
6F50
3AD0
0600
0600
0C00
0C00
0C00
0C00
0600
0380
ENDCHAR
STARTCHAR 3068
ENCODING 12392
SWIDTH 720 0
DWIDTH 12 0
BBX 12 12 0 -2
BITMAP
0000
3000
1800
1800
19C0
0F00
0C00
1800
3000
3000
3000
1FC0
ENDCHAR
STARTCHAR 3069
ENCODING 12393
SWIDTH 720 0
DWIDTH 12 0
BBX 12 12 0 -2
BITMAP
0000
31A0
18D0
18D0
1980
0F00
0C00
1800
3000
3000
3000
1FC0
ENDCHAR
STARTCHAR 306A
ENCODING 12394
SWIDTH 720 0
DWIDTH 12 0
BBX 12 12 0 -2
BITMAP
0000
3000
1A00
FDC0
1860
30C0
3180
6180
6F80
19C0
19A0
0F00
ENDCHAR
STARTCHAR 306B
ENCODING 12395
SWIDTH 720 0
DWIDTH 12 0
BBX 12 12 0 -2
BITMAP
0000
6000
37C0
30E0
6180
6000
6000
6000
6C00
6C00
37E0
3000
ENDCHAR
STARTCHAR 306C
ENCODING 12396
SWIDTH 720 0
DWIDTH 12 0
BBX 12 12 0 -2
BITMAP
0000
0C00
0600
3780
3EC0
7660
6A60
DC60
CDC0
DA60
76D0
0380
ENDCHAR
STARTCHAR 306D
ENCODING 12397
SWIDTH 720 0
DWIDTH 12 0
BBX 12 12 0 -2
BITMAP
0000
3000
1800
1BC0
6A60
3C60
1860
3860
3BE0
6A60
DAD0
1B80
ENDCHAR
STARTCHAR 306E
ENCODING 12398
SWIDTH 720 0
DWIDTH 12 0
BBX 12 12 0 -2
BITMAP
0000
0000
0F80
1AC0
3660
6660
6C60
6C60
6860
30C0
0380
0000
ENDCHAR
STARTCHAR 306F
ENCODING 12399
SWIDTH 720 0
DWIDTH 12 0
BBX 12 12 0 -2
BITMAP
0000
0300
6180
35F0
3780
6180
6180
6180
6BC0
75A0
35B0
3700
ENDCHAR
STARTCHAR 3070
ENCODING 12400
SWIDTH 720 0
DWIDTH 12 0
BBX 12 12 0 -2
BITMAP
0000
06A0
6350
3550
37E0
6180
6180
6180
6BC0
75A0
35B0
3700
ENDCHAR
STARTCHAR 3071
ENCODING 12401
SWIDTH 720 0
DWIDTH 12 0
BBX 12 12 0 -2
BITMAP
0000
06E0
63B0
35B0
37E0
6180
6180
6180
6BC0
75A0
35B0
3700
ENDCHAR
STARTCHAR 3072
ENCODING 12402
SWIDTH 720 0
DWIDTH 12 0
BBX 12 12 0 -2
BITMAP
0000
0180
1980
78C0
18E0
30D0
30C0
30C0
30C0
3180
1B00
0E00
ENDCHAR
STARTCHAR 3073
ENCODING 12403
SWIDTH 720 0
DWIDTH 12 0
BBX 12 12 0 -2
BITMAP
0000
03A0
1B50
7B50
1980
30E0
30D0
30C0
30C0
3180
1B00
0E00
ENDCHAR
STARTCHAR 3074
ENCODING 12404
SWIDTH 720 0
DWIDTH 12 0
BBX 12 12 0 -2
BITMAP
0000
0360
1BB0
79B0
19E0
30E0
30D0
30C0
30C0
3180
1B00
0E00
ENDCHAR
STARTCHAR 3075
ENCODING 12405
SWIDTH 720 0
DWIDTH 12 0
BBX 12 12 0 -2
BITMAP
0000
0C00
0700
0300
0600
0C00
06C0
CD60
6B30
7370
6D00
0600
ENDCHAR
STARTCHAR 3076
ENCODING 12406
SWIDTH 720 0
DWIDTH 12 0
BBX 12 12 0 -2
BITMAP
0000
0DA0
0750
0350
0600
0C00
06C0
CD60
6B30
7370
6D00
0600
ENDCHAR
STARTCHAR 3077
ENCODING 12407
SWIDTH 720 0
DWIDTH 12 0
BBX 12 12 0 -2
BITMAP
0000
0CE0
07B0
03B0
06E0
0C00
06C0
CD60
6B30
7370
6D00
0600
ENDCHAR
STARTCHAR 3078
ENCODING 12408
SWIDTH 720 0
DWIDTH 12 0
BBX 12 12 0 -2
BITMAP
0000
0000
0000
1800
1C00
3400
3600
6300
6180
00E0
0000
0000
ENDCHAR
STARTCHAR 3079
ENCODING 12409
SWIDTH 720 0
DWIDTH 12 0
BBX 12 12 0 -2
BITMAP
0000
0000
01A0
18D0
1CD0
3400
3600
6300
6180
00E0
0000
0000
ENDCHAR
STARTCHAR 307A
ENCODING 12410
SWIDTH 720 0
DWIDTH 12 0
BBX 12 12 0 -2
BITMAP
0000
0000
01C0
1B60
1D60
35C0
3600
6300
6180
00E0
0000
0000
ENDCHAR
STARTCHAR 307B
ENCODING 12411
SWIDTH 720 0
DWIDTH 12 0
BBX 12 12 0 -2
BITMAP
0000
0000
6DE0
3700
3180
6DF0
6780
6180
6BC0
75A0
35B0
3700
ENDCHAR
STARTCHAR 307C
ENCODING 12412
SWIDTH 720 0
DWIDTH 12 0
BBX 12 12 0 -2
BITMAP
0000
01A0
6CD0
37D0
3180
6DF0
6780
6180
6BC0
75A0
35B0
3700
ENDCHAR
STARTCHAR 307D
ENCODING 12413
SWIDTH 720 0
DWIDTH 12 0
BBX 12 12 0 -2
BITMAP
0000
00E0
6DB0
37B0
31E0
6DF0
6780
6180
6BC0
75A0
35B0
3700
ENDCHAR
STARTCHAR 307E
ENCODING 12414
SWIDTH 720 0
DWIDTH 12 0
BBX 12 12 0 -2
BITMAP
0000
0C00
67C0
3E00
0600
6780
3E00
0600
3E00
6780
66C0
3C00
ENDCHAR
STARTCHAR 307F
ENCODING 12415
SWIDTH 720 0
DWIDTH 12 0
BBX 12 12 0 -2
BITMAP
0000
3600
1E00
0600
0680
0CC0
3FC0
6CE0
D8D0
D980
7180
0300
ENDCHAR
STARTCHAR 3080
ENCODING 12416
SWIDTH 720 0
DWIDTH 12 0
BBX 12 12 0 -2
BITMAP
0000
1800
0C00
6EC0
3C60
0C70
3C00
6CC0
6C60
3860
1860
0FC0
ENDCHAR
STARTCHAR 3081
ENCODING 12417
SWIDTH 720 0
DWIDTH 12 0
BBX 12 12 0 -2
BITMAP
0000
0C00
0600
3780
3EC0
7660
6A60
DC60
CC60
DA60
70C0
0380
ENDCHAR
STARTCHAR 3082
ENCODING 12418
SWIDTH 720 0
DWIDTH 12 0
BBX 12 12 0 -2
BITMAP
0000
0C00
6600
3F00
0C00
6C00
3EC0
1860
1860
1860
0CC0
0780
ENDCHAR
STARTCHAR 3083
ENCODING 12419
SWIDTH 720 0
DWIDTH 12 0
BBX 12 12 0 -2
BITMAP
0000
0000
0000
0300
1980
1980
0DC0
6E60
3C60
06C0
0600
0600
ENDCHAR
STARTCHAR 3084
ENCODING 12420
SWIDTH 720 0
DWIDTH 12 0
BBX 12 12 0 -2
BITMAP
0000
0700
3180
30C0
1BC0
DC60
7460
0DC0
0C00
0600
0600
0600
ENDCHAR
STARTCHAR 3085
ENCODING 12421
SWIDTH 720 0
DWIDTH 12 0
BBX 12 12 0 -2
BITMAP
0000
0000
0000
0600
6300
37C0
3560
3B60
3360
37C0
0300
0600
ENDCHAR
STARTCHAR 3086
ENCODING 12422
SWIDTH 720 0
DWIDTH 12 0
BBX 12 12 0 -2
BITMAP
0000
0600
C300
67C0
6D60
7330
6330
6330
6D60
07C0
0300
0600
ENDCHAR
STARTCHAR 3087
ENCODING 12423
SWIDTH 720 0
DWIDTH 12 0
BBX 12 12 0 -2
BITMAP
0000
0000
0000
0000
0C00
06C0
0780
0600
0600
1E00
3780
1CC0
ENDCHAR
STARTCHAR 3088
ENCODING 12424
SWIDTH 720 0
DWIDTH 12 0
BBX 12 12 0 -2
BITMAP
0000
0C00
0600
06E0
0780
0600
0600
0600
3F00
66C0
6660
3C00
ENDCHAR
STARTCHAR 3089
ENCODING 12425
SWIDTH 720 0
DWIDTH 12 0
BBX 12 12 0 -2
BITMAP
0000
0C00
0780
1C00
1800
3000
37C0
3860
3060
0060
01C0
0700
ENDCHAR
STARTCHAR 308A
ENCODING 12426
SWIDTH 720 0
DWIDTH 12 0
BBX 12 12 0 -2
BITMAP
0000
0180
31C0
18C0
1CC0
18C0
18C0
18C0
0180
0180
0300
0600
ENDCHAR
STARTCHAR 308B
ENCODING 12427
SWIDTH 720 0
DWIDTH 12 0
BBX 12 12 0 -2
BITMAP
0000
3700
1D00
0600
0C00
1F00
1980
30C0
60C0
0EC0
1B80
0F00
ENDCHAR
STARTCHAR 308C
ENCODING 12428
SWIDTH 720 0
DWIDTH 12 0
BBX 12 12 0 -2
BITMAP
0000
3000
1800
1B80
7AC0
1CC0
18C0
38C0
68C0
18D0
3860
1800
ENDCHAR
STARTCHAR 308D
ENCODING 12429
SWIDTH 720 0
DWIDTH 12 0
BBX 12 12 0 -2
BITMAP
0000
3300
1E00
0600
0C00
1F00
1980
30C0
60C0
00C0
0180
0F00
ENDCHAR
STARTCHAR 308E
ENCODING 12430
SWIDTH 720 0
DWIDTH 12 0
BBX 12 12 0 -2
BITMAP
0000
0000
0000
3000
1800
1800
7B80
1CC0
18C0
38C0
6980
1B00
ENDCHAR
STARTCHAR 308F
ENCODING 12431
SWIDTH 720 0
DWIDTH 12 0
BBX 12 12 0 -2
BITMAP
0000
3000
1800
1BC0
7A60
1C30
1830
3830
6830
1860
39C0
1800
ENDCHAR
STARTCHAR 3090
ENCODING 12432
SWIDTH 720 0
DWIDTH 12 0
BBX 12 12 0 -2
BITMAP
0000
3700
1D00
0600
07C0
1C60
3430
6C30
6830
6BD0
3660
03C0
ENDCHAR
STARTCHAR 3091
ENCODING 12433
SWIDTH 720 0
DWIDTH 12 0
BBX 12 12 0 -2
BITMAP
0000
1B00
0E00
0600
1F80
70C0
0EC0
1B80
3600
3DE0
6730
C070
ENDCHAR
STARTCHAR 3092
ENCODING 12434
SWIDTH 720 0
DWIDTH 12 0
BBX 12 12 0 -2
BITMAP
0000
1800
6D80
3E00
1860
1EC0
3300
6700
0D00
1800
1800
0FC0
ENDCHAR
STARTCHAR 3093
ENCODING 12435
SWIDTH 720 0
DWIDTH 12 0
BBX 12 12 0 -2
BITMAP
0000
1800
0C00
0C00
1800
1800
1E00
3300
3300
3330
6360
61C0
ENDCHAR
STARTCHAR 3094
ENCODING 12436
SWIDTH 720 0
DWIDTH 12 0
BBX 12 12 0 -2
BITMAP
0000
19A0
0ED0
00D0
6F00
3980
0180
0180
0300
0300
0600
0C00
ENDCHAR
STARTCHAR 3095
ENCODING 12437
SWIDTH 720 0
DWIDTH 12 0
BBX 12 12 0 -2
BITMAP
0000
0000
0000
0000
0C00
0D80
3EC0
0D60
1B60
1B00
3600
0E00
ENDCHAR
STARTCHAR 3096
ENCODING 12438
SWIDTH 720 0
DWIDTH 12 0
BBX 12 12 0 -2
BITMAP
0000
0000
0000
0000
3300
1980
35E0
3780
3180
3580
1980
1B00
ENDCHAR
STARTCHAR 309B
ENCODING 12443
SWIDTH 720 0
DWIDTH 12 0
BBX 12 12 0 -2
BITMAP
0000
1800
6C00
3000
0000
0000
0000
0000
0000
0000
0000
0000
ENDCHAR
STARTCHAR 309C
ENCODING 12444
SWIDTH 720 0
DWIDTH 12 0
BBX 12 12 0 -2
BITMAP
0000
3800
6C00
6C00
3800
0000
0000
0000
0000
0000
0000
0000
ENDCHAR
STARTCHAR 309D
ENCODING 12445
SWIDTH 720 0
DWIDTH 12 0
BBX 12 12 0 -2
BITMAP
0000
0000
0000
0000
3800
0E00
0300
0380
0600
0000
0000
0000
ENDCHAR
STARTCHAR 309E
ENCODING 12446
SWIDTH 720 0
DWIDTH 12 0
BBX 12 12 0 -2
BITMAP
0000
0180
06C0
0340
3B00
0E00
0300
0380
0600
0000
0000
0000
ENDCHAR
STARTCHAR 309F
ENCODING 12447
SWIDTH 720 0
DWIDTH 12 0
BBX 12 12 0 -2
BITMAP
0000
0600
0600
07C0
0C00
0C00
0F80
18C0
18C0
38C0
3580
3700
ENDCHAR
STARTCHAR 30A0
ENCODING 12448
SWIDTH 720 0
DWIDTH 12 0
BBX 12 12 0 -2
BITMAP
0000
0000
0000
0000
1F80
0000
0000
1F80
0000
0000
0000
0000
ENDCHAR
STARTCHAR 30A1
ENCODING 12449
SWIDTH 720 0
DWIDTH 12 0
BBX 12 12 0 -2
BITMAP
0000
0000
0000
0000
0000
37C0
1CC0
0680
0600
0600
0C00
1800
ENDCHAR
STARTCHAR 30A2
ENCODING 12450
SWIDTH 720 0
DWIDTH 12 0
BBX 12 12 0 -2
BITMAP
0000
0000
67E0
3C60
06C0
0680
0600
0600
0C00
0C00
1800
3000
ENDCHAR
STARTCHAR 30A3
ENCODING 12451
SWIDTH 720 0
DWIDTH 12 0
BBX 12 12 0 -2
BITMAP
0000
0000
0000
0000
0000
0180
0300
0E00
3A00
0600
0600
0600
ENDCHAR
STARTCHAR 30A4
ENCODING 12452
SWIDTH 720 0
DWIDTH 12 0
BBX 12 12 0 -2
BITMAP
0000
00C0
00C0
0180
0300
0E00
7B00
0300
0300
0300
0300
0300
ENDCHAR
STARTCHAR 30A5
ENCODING 12453
SWIDTH 720 0
DWIDTH 12 0
BBX 12 12 0 -2
BITMAP
0000
0000
0000
0000
0C00
07C0
3EC0
18C0
0180
0180
0700
1C00
ENDCHAR
STARTCHAR 30A6
ENCODING 12454
SWIDTH 720 0
DWIDTH 12 0
BBX 12 12 0 -2
BITMAP
0000
0C00
0600
07E0
7E60
3060
3060
00C0
00C0
0180
0700
1C00
ENDCHAR
STARTCHAR 30A7
ENCODING 12455
SWIDTH 720 0
DWIDTH 12 0
BBX 12 12 0 -2
BITMAP
0000
0000
0000
0000
0000
0000
3380
1E00
0600
0600
0780
3CC0
ENDCHAR
STARTCHAR 30A8
ENCODING 12456
SWIDTH 720 0
DWIDTH 12 0
BBX 12 12 0 -2
BITMAP
0000
0000
0000
63E0
3E00
0600
0600
0600
0600
0FE0
F830
0000
ENDCHAR
STARTCHAR 30A9
ENCODING 12457
SWIDTH 720 0
DWIDTH 12 0
BBX 12 12 0 -2
BITMAP
0000
0000
0000
0000
0600
3300
1FE0
0700
0D00
1B00
7300
0700
ENDCHAR
STARTCHAR 30AA
ENCODING 12458
SWIDTH 720 0
DWIDTH 12 0
BBX 12 12 0 -2
BITMAP
0000
0600
0300
63E0
3F00
0700
0D00
1B00
3300
E300
0700
0300
ENDCHAR
STARTCHAR 30AB
ENCODING 12459
SWIDTH 720 0
DWIDTH 12 0
BBX 12 12 0 -2
BITMAP
0000
0C00
0600
67E0
3E60
0660
0C60
0C60
1860
30C0
6340
0180
ENDCHAR
STARTCHAR 30AC
ENCODING 12460
SWIDTH 720 0
DWIDTH 12 0
BBX 12 12 0 -2
BITMAP
0000
0DA0
06D0
67F0
3E60
0660
0C60
0C60
1860
30C0
6340
0180
ENDCHAR
STARTCHAR 30AD
ENCODING 12461
SWIDTH 720 0
DWIDTH 12 0
BBX 12 12 0 -2
BITMAP
0000
1800
0C00
0DC0
0F00
7A00
06E0
0F80
7B00
0300
0180
0180
ENDCHAR
STARTCHAR 30AE
ENCODING 12462
SWIDTH 720 0
DWIDTH 12 0
BBX 12 12 0 -2
BITMAP
0000
19A0
0CD0
0DD0
0F00
7A00
06E0
0F80
7B00
0300
0180
0180
ENDCHAR
STARTCHAR 30AF
ENCODING 12463
SWIDTH 720 0
DWIDTH 12 0
BBX 12 12 0 -2
BITMAP
0000
0600
0600
07C0
0CC0
18C0
3180
0180
0300
0600
0C00
3800
ENDCHAR
STARTCHAR 30B0
ENCODING 12464
SWIDTH 720 0
DWIDTH 12 0
BBX 12 12 0 -2
BITMAP
0000
06A0
06D0
07D0
0CC0
18C0
3180
0180
0300
0600
0C00
3800
ENDCHAR
STARTCHAR 30B1
ENCODING 12465
SWIDTH 720 0
DWIDTH 12 0
BBX 12 12 0 -2
BITMAP
0000
3000
1800
19E0
3F00
3180
6180
0180
0300
0300
0600
0C00
ENDCHAR
STARTCHAR 30B2
ENCODING 12466
SWIDTH 720 0
DWIDTH 12 0
BBX 12 12 0 -2
BITMAP
0000
31A0
18D0
19D0
3F00
3180
6180
0180
0300
0300
0600
0C00
ENDCHAR
STARTCHAR 30B3
ENCODING 12467
SWIDTH 720 0
DWIDTH 12 0
BBX 12 12 0 -2
BITMAP
0000
0000
0000
67C0
3CC0
00C0
00C0
00C0
00C0
0FC0
78C0
0000
ENDCHAR
STARTCHAR 30B4
ENCODING 12468
SWIDTH 720 0
DWIDTH 12 0
BBX 12 12 0 -2
BITMAP
0000
01A0
00D0
67D0
3CC0
00C0
00C0
00C0
00C0
0FC0
78C0
0000
ENDCHAR
STARTCHAR 30B5
ENCODING 12469
SWIDTH 720 0
DWIDTH 12 0
BBX 12 12 0 -2
BITMAP
0000
0300
3180
1980
DBF0
7E80
1980
1980
0300
0300
0600
1C00
ENDCHAR
STARTCHAR 30B6
ENCODING 12470
SWIDTH 720 0
DWIDTH 12 0
BBX 12 12 0 -2
BITMAP
0000
06A0
3350
1B50
DBE0
7F00
1B00
1B00
0300
0300
0600
1C00
ENDCHAR
STARTCHAR 30B7
ENCODING 12471
SWIDTH 720 0
DWIDTH 12 0
BBX 12 12 0 -2
BITMAP
0000
0000
3800
0C00
0000
7000
1860
00C0
0180
0300
6E00
3800
ENDCHAR
STARTCHAR 30B8
ENCODING 12472
SWIDTH 720 0
DWIDTH 12 0
BBX 12 12 0 -2
BITMAP
0000
0000
39A0
0CD0
00D0
7000
1860
00C0
0180
0300
6E00
3800
ENDCHAR
STARTCHAR 30B9
ENCODING 12473
SWIDTH 720 0
DWIDTH 12 0
BBX 12 12 0 -2
BITMAP
0000
0000
37C0
1CC0
0180
0180
0300
0300
0680
0CC0
1860
7060
ENDCHAR
STARTCHAR 30BA
ENCODING 12474
SWIDTH 720 0
DWIDTH 12 0
BBX 12 12 0 -2
BITMAP
0000
01A0
6F50
3B50
0300
0300
0600
0700
0D80
18C0
3060
6060
ENDCHAR
STARTCHAR 30BB
ENCODING 12475
SWIDTH 720 0
DWIDTH 12 0
BBX 12 12 0 -2
BITMAP
0000
6000
3000
33E0
D6C0
78C0
3180
3300
3000
1800
0FC0
0000
ENDCHAR
STARTCHAR 30BC
ENCODING 12476
SWIDTH 720 0
DWIDTH 12 0
BBX 12 12 0 -2
BITMAP
0000
61A0
30D0
33D0
D6C0
78C0
3180
3300
3000
1800
0FC0
0000
ENDCHAR
STARTCHAR 30BD
ENCODING 12477
SWIDTH 720 0
DWIDTH 12 0
BBX 12 12 0 -2
BITMAP
0000
0000
60C0
3060
1860
1860
00C0
00C0
0180
0300
0600
0C00
ENDCHAR
STARTCHAR 30BE
ENCODING 12478
SWIDTH 720 0
DWIDTH 12 0
BBX 12 12 0 -2
BITMAP
0000
01A0
60D0
30D0
1980
1980
0180
0300
0300
0600
0C00
1800
ENDCHAR
STARTCHAR 30BF
ENCODING 12479
SWIDTH 720 0
DWIDTH 12 0
BBX 12 12 0 -2
BITMAP
0000
0600
0600
07E0
0C60
1EC0
3340
01C0
0180
0300
0E00
3800
ENDCHAR
STARTCHAR 30C0
ENCODING 12480
SWIDTH 720 0
DWIDTH 12 0
BBX 12 12 0 -2
BITMAP
0000
0DA0
0CD0
0FD0
1980
3D80
6680
0300
0300
0600
1C00
7000
ENDCHAR
STARTCHAR 30C1
ENCODING 12481
SWIDTH 720 0
DWIDTH 12 0
BBX 12 12 0 -2
BITMAP
0000
00C0
0380
3E00
0600
C7F0
7D00
0300
0600
0600
0C00
1800
ENDCHAR
STARTCHAR 30C2
ENCODING 12482
SWIDTH 720 0
DWIDTH 12 0
BBX 12 12 0 -2
BITMAP
0000
01A0
0350
3ED0
0600
C7F0
7D00
0300
0600
0600
0C00
1800
ENDCHAR
STARTCHAR 30C3
ENCODING 12483
SWIDTH 720 0
DWIDTH 12 0
BBX 12 12 0 -2
BITMAP
0000
0000
0000
0000
0000
0C00
36C0
1AC0
1980
0180
0300
0600
ENDCHAR
STARTCHAR 30C4
ENCODING 12484
SWIDTH 720 0
DWIDTH 12 0
BBX 12 12 0 -2
BITMAP
0000
0000
18C0
CC60
6660
3660
30C0
00C0
0180
0300
0600
0C00
ENDCHAR
STARTCHAR 30C5
ENCODING 12485
SWIDTH 720 0
DWIDTH 12 0
BBX 12 12 0 -2
BITMAP
0000
01A0
18D0
CCD0
6680
36C0
30C0
0180
0180
0300
0600
0C00
ENDCHAR
STARTCHAR 30C6
ENCODING 12486
SWIDTH 720 0
DWIDTH 12 0
BBX 12 12 0 -2
BITMAP
0000
0000
37C0
1C00
0000
C3F0
7E00
0300
0600
0600
0C00
1800
ENDCHAR
STARTCHAR 30C7
ENCODING 12487
SWIDTH 720 0
DWIDTH 12 0
BBX 12 12 0 -2
BITMAP
0000
01A0
3750
1CD0
0000
C3F0
7E00
0300
0600
0600
0C00
1800
ENDCHAR
STARTCHAR 30C8
ENCODING 12488
SWIDTH 720 0
DWIDTH 12 0
BBX 12 12 0 -2
BITMAP
0000
1800
0C00
0C00
0C00
0F80
0CE0
0C00
0C00
0C00
0C00
0C00
ENDCHAR
STARTCHAR 30C9
ENCODING 12489
SWIDTH 720 0
DWIDTH 12 0
BBX 12 12 0 -2
BITMAP
0000
19A0
0CD0
0CD0
0C00
0F80
0CE0
0C00
0C00
0C00
0C00
0C00
ENDCHAR
STARTCHAR 30CA
ENCODING 12490
SWIDTH 720 0
DWIDTH 12 0
BBX 12 12 0 -2
BITMAP
0000
0C00
0600
0600
C7F0
7E00
0600
0600
0C00
0C00
1800
3000
ENDCHAR
STARTCHAR 30CB
ENCODING 12491
SWIDTH 720 0
DWIDTH 12 0
BBX 12 12 0 -2
BITMAP
0000
0000
0000
03C0
3E00
0000
0000
0000
03E0
FE30
0000
0000
ENDCHAR
STARTCHAR 30CC
ENCODING 12492
SWIDTH 720 0
DWIDTH 12 0
BBX 12 12 0 -2
BITMAP
0000
0000
33C0
1EC0
00C0
1D80
0680
0300
0680
1CC0
7060
0000
ENDCHAR
STARTCHAR 30CD
ENCODING 12493
SWIDTH 720 0
DWIDTH 12 0
BBX 12 12 0 -2
BITMAP
0000
0C00
0600
67C0
3D80
0300
0680
1EC0
7660
0600
0600
0600
ENDCHAR
STARTCHAR 30CE
ENCODING 12494
SWIDTH 720 0
DWIDTH 12 0
BBX 12 12 0 -2
BITMAP
0000
0000
0180
00C0
00C0
0180
0180
0300
0600
0C00
3800
0000
ENDCHAR
STARTCHAR 30CF
ENCODING 12495
SWIDTH 720 0
DWIDTH 12 0
BBX 12 12 0 -2
BITMAP
0000
0000
0000
0300
1980
18C0
18C0
1860
3060
3060
6060
0000
ENDCHAR
STARTCHAR 30D0
ENCODING 12496
SWIDTH 720 0
DWIDTH 12 0
BBX 12 12 0 -2
BITMAP
0000
01A0
00D0
0350
1980
18C0
18C0
1860
3060
3060
6060
0000
ENDCHAR
STARTCHAR 30D1
ENCODING 12497
SWIDTH 720 0
DWIDTH 12 0
BBX 12 12 0 -2
BITMAP
0000
00E0
01B0
03B0
19E0
18C0
18C0
1860
3060
3060
6060
0000
ENDCHAR
STARTCHAR 30D2
ENCODING 12498
SWIDTH 720 0
DWIDTH 12 0
BBX 12 12 0 -2
BITMAP
0000
6000
3000
30C0
3780
3C00
3000
3000
3000
1800
0FE0
0000
ENDCHAR
STARTCHAR 30D3
ENCODING 12499
SWIDTH 720 0
DWIDTH 12 0
BBX 12 12 0 -2
BITMAP
0000
61A0
30D0
31D0
3700
3C00
3000
3000
3000
1800
0FE0
0000
ENDCHAR
STARTCHAR 30D4
ENCODING 12500
SWIDTH 720 0
DWIDTH 12 0
BBX 12 12 0 -2
BITMAP
0000
60E0
31B0
31B0
3760
3C00
3000
3000
3000
1800
0FE0
0000
ENDCHAR
STARTCHAR 30D5
ENCODING 12501
SWIDTH 720 0
DWIDTH 12 0
BBX 12 12 0 -2
BITMAP
0000
0000
67E0
3C60
0060
00C0
00C0
0180
0300
0E00
3800
0000
ENDCHAR
STARTCHAR 30D6
ENCODING 12502
SWIDTH 720 0
DWIDTH 12 0
BBX 12 12 0 -2
BITMAP
0000
01A0
CF50
7B50
0300
0300
0300
0600
0600
0C00
3800
0000
ENDCHAR
STARTCHAR 30D7
ENCODING 12503
SWIDTH 720 0
DWIDTH 12 0
BBX 12 12 0 -2
BITMAP
0000
00E0
CFB0
7BB0
0360
0300
0300
0600
0600
0C00
3800
0000
ENDCHAR
STARTCHAR 30D8
ENCODING 12504
SWIDTH 720 0
DWIDTH 12 0
BBX 12 12 0 -2
BITMAP
0000
0000
0000
0C00
0C00
1A00
3300
E180
00C0
0070
0000
0000
ENDCHAR
STARTCHAR 30D9
ENCODING 12505
SWIDTH 720 0
DWIDTH 12 0
BBX 12 12 0 -2
BITMAP
0000
0000
0340
0DA0
0DA0
1A00
3300
E180
00C0
0070
0000
0000
ENDCHAR
STARTCHAR 30DA
ENCODING 12506
SWIDTH 720 0
DWIDTH 12 0
BBX 12 12 0 -2
BITMAP
0000
0000
00E0
0DB0
0DB0
1AE0
3300
E180
00C0
0070
0000
0000
ENDCHAR
STARTCHAR 30DB
ENCODING 12507
SWIDTH 720 0
DWIDTH 12 0
BBX 12 12 0 -2
BITMAP
0000
0C00
0600
67E0
3E00
0600
1A80
1AC0
3660
6660
0E00
0600
ENDCHAR
STARTCHAR 30DC
ENCODING 12508
SWIDTH 720 0
DWIDTH 12 0
BBX 12 12 0 -2
BITMAP
0000
0DA0
06D0
67D0
3E00
0600
1A80
1AC0
3660
6660
0E00
0600
ENDCHAR
STARTCHAR 30DD
ENCODING 12509
SWIDTH 720 0
DWIDTH 12 0
BBX 12 12 0 -2
BITMAP
0000
0CE0
06B0
67B0
3EE0
0600
1A80
1AC0
3660
6660
0E00
0600
ENDCHAR
STARTCHAR 30DE
ENCODING 12510
SWIDTH 720 0
DWIDTH 12 0
BBX 12 12 0 -2
BITMAP
0000
0000
0000
67E0
3CC0
0180
1B00
0E00
0300
0180
0180
0000
ENDCHAR
STARTCHAR 30DF
ENCODING 12511
SWIDTH 720 0
DWIDTH 12 0
BBX 12 12 0 -2
BITMAP
0000
1C00
0700
01C0
0000
1C00
0600
0380
0000
3800
0F00
01C0
ENDCHAR
STARTCHAR 30E0
ENCODING 12512
SWIDTH 720 0
DWIDTH 12 0
BBX 12 12 0 -2
BITMAP
0000
0C00
0600
0600
0C00
0C00
0D80
18C0
18C0
1FA0
7060
0000
ENDCHAR
STARTCHAR 30E1
ENCODING 12513
SWIDTH 720 0
DWIDTH 12 0
BBX 12 12 0 -2
BITMAP
0000
0000
0180
00C0
00C0
1D80
0680
0380
06C0
0C60
1860
7000
ENDCHAR
STARTCHAR 30E2
ENCODING 12514
SWIDTH 720 0
DWIDTH 12 0
BBX 12 12 0 -2
BITMAP
0000
0000
63C0
3E00
0C00
0C00
6FE0
3C00
0C00
0C00
07E0
0000
ENDCHAR
STARTCHAR 30E3
ENCODING 12515
SWIDTH 720 0
DWIDTH 12 0
BBX 12 12 0 -2
BITMAP
0000
0000
0000
0000
1800
0C00
07E0
3E60
06C0
0300
0300
0300
ENDCHAR
STARTCHAR 30E4
ENCODING 12516
SWIDTH 720 0
DWIDTH 12 0
BBX 12 12 0 -2
BITMAP
0000
1800
0C00
0DF0
DF60
74C0
06C0
0600
0600
0300
0300
0300
ENDCHAR
STARTCHAR 30E5
ENCODING 12517
SWIDTH 720 0
DWIDTH 12 0
BBX 12 12 0 -2
BITMAP
0000
0000
0000
0000
0000
0F00
3B00
0300
0300
0780
3CC0
0000
ENDCHAR
STARTCHAR 30E6
ENCODING 12518
SWIDTH 720 0
DWIDTH 12 0
BBX 12 12 0 -2
BITMAP
0000
0000
0000
3780
1D80
0180
0180
0180
07E0
FC30
0000
0000
ENDCHAR
STARTCHAR 30E7
ENCODING 12519
SWIDTH 720 0
DWIDTH 12 0
BBX 12 12 0 -2
BITMAP
0000
0000
0000
0000
03C0
1EC0
00C0
03C0
1EC0
00C0
03C0
1E60
ENDCHAR
STARTCHAR 30E8
ENCODING 12520
SWIDTH 720 0
DWIDTH 12 0
BBX 12 12 0 -2
BITMAP
0000
0000
67C0
3CC0
00C0
07C0
3CC0
00C0
00C0
07C0
3C60
0000
ENDCHAR
STARTCHAR 30E9
ENCODING 12521
SWIDTH 720 0
DWIDTH 12 0
BBX 12 12 0 -2
BITMAP
0000
0000
33C0
1E00
0000
63E0
3EC0
00C0
0180
0300
0600
1C00
ENDCHAR
STARTCHAR 30EA
ENCODING 12522
SWIDTH 720 0
DWIDTH 12 0
BBX 12 12 0 -2
BITMAP
0000
0180
30C0
18C0
18C0
18C0
18C0
18C0
0180
0180
0300
0600
ENDCHAR
STARTCHAR 30EB
ENCODING 12523
SWIDTH 720 0
DWIDTH 12 0
BBX 12 12 0 -2
BITMAP
0000
0600
3300
1B00
1B00
1B00
1B60
1B60
3340
3380
E300
0000
ENDCHAR
STARTCHAR 30EC
ENCODING 12524
SWIDTH 720 0
DWIDTH 12 0
BBX 12 12 0 -2
BITMAP
0000
3000
1800
1800
1800
1800
1860
18C0
1980
1B00
1C00
0000
ENDCHAR
STARTCHAR 30ED
ENCODING 12525
SWIDTH 720 0
DWIDTH 12 0
BBX 12 12 0 -2
BITMAP
0000
0000
0000
67C0
3CC0
30C0
30C0
30C0
33C0
3EC0
0000
0000
ENDCHAR
STARTCHAR 30EE
ENCODING 12526
SWIDTH 720 0
DWIDTH 12 0
BBX 12 12 0 -2
BITMAP
0000
0000
0000
0000
63C0
3EC0
30C0
1980
1980
0300
0300
0600
ENDCHAR
STARTCHAR 30EF
ENCODING 12527
SWIDTH 720 0
DWIDTH 12 0
BBX 12 12 0 -2
BITMAP
0000
0000
67E0
3C60
3060
18C0
18C0
0180
0300
0600
0C00
0000
ENDCHAR
STARTCHAR 30F0
ENCODING 12528
SWIDTH 720 0
DWIDTH 12 0
BBX 12 12 0 -2
BITMAP
0000
0600
0300
07E0
7D00
3300
1B00
1BC0
7D60
0300
0300
0300
ENDCHAR
STARTCHAR 30F1
ENCODING 12529
SWIDTH 720 0
DWIDTH 12 0
BBX 12 12 0 -2
BITMAP
0000
0000
0000
07E0
7CC0
0D80
0600
0600
07E0
FE30
0000
0000
ENDCHAR
STARTCHAR 30F2
ENCODING 12530
SWIDTH 720 0
DWIDTH 12 0
BBX 12 12 0 -2
BITMAP
0000
0000
63E0
3E60
0060
03E0
1EC0
00C0
0180
0700
1C00
0000
ENDCHAR
STARTCHAR 30F3
ENCODING 12531
SWIDTH 720 0
DWIDTH 12 0
BBX 12 12 0 -2
BITMAP
0000
0000
7000
1800
0C60
0060
00C0
0180
0300
3600
1C00
0000
ENDCHAR
STARTCHAR 30F4
ENCODING 12532
SWIDTH 720 0
DWIDTH 12 0
BBX 12 12 0 -2
BITMAP
0000
0DA0
06D0
07D0
7EC0
30C0
30C0
0180
0180
0300
0600
1C00
ENDCHAR
STARTCHAR 30F5
ENCODING 12533
SWIDTH 720 0
DWIDTH 12 0
BBX 12 12 0 -2
BITMAP
0000
0000
0000
0000
0C00
0600
37C0
1EC0
0CC0
0CC0
1B40
3180
ENDCHAR
STARTCHAR 30F6
ENCODING 12534
SWIDTH 720 0
DWIDTH 12 0
BBX 12 12 0 -2
BITMAP
0000
0000
0000
0000
3000
1800
1BC0
3600
6300
0300
0600
0C00
ENDCHAR
STARTCHAR 30F7
ENCODING 12535
SWIDTH 720 0
DWIDTH 12 0
BBX 12 12 0 -2
BITMAP
0000
01A0
CF50
7B50
6300
3300
3300
0600
0600
0C00
1800
0000
ENDCHAR
STARTCHAR 30F8
ENCODING 12536
SWIDTH 720 0
DWIDTH 12 0
BBX 12 12 0 -2
BITMAP
0000
06A0
0350
07D0
7D00
3300
1B00
1BC0
7D60
0300
0300
0300
ENDCHAR
STARTCHAR 30F9
ENCODING 12537
SWIDTH 720 0
DWIDTH 12 0
BBX 12 12 0 -2
BITMAP
0000
01A0
00D0
07D0
7CC0
0D80
0600
0600
07E0
FE30
0000
0000
ENDCHAR
STARTCHAR 30FA
ENCODING 12538
SWIDTH 720 0
DWIDTH 12 0
BBX 12 12 0 -2
BITMAP
0000
01A0
CF50
7B50
0300
0F00
7B00
0300
0600
0C00
3800
0000
ENDCHAR
STARTCHAR 30FB
ENCODING 12539
SWIDTH 720 0
DWIDTH 12 0
BBX 12 12 0 -2
BITMAP
0000
0000
0000
0000
0000
0E00
0E00
0000
0000
0000
0000
0000
ENDCHAR
STARTCHAR 30FC
ENCODING 12540
SWIDTH 720 0
DWIDTH 12 0
BBX 12 12 0 -2
BITMAP
0000
0000
0000
0000
0000
0000
C3E0
7E00
0000
0000
0000
0000
ENDCHAR
STARTCHAR 30FD
ENCODING 12541
SWIDTH 720 0
DWIDTH 12 0
BBX 12 12 0 -2
BITMAP
0000
0000
0000
0000
3800
0E00
0300
0180
0000
0000
0000
0000
ENDCHAR
STARTCHAR 30FE
ENCODING 12542
SWIDTH 720 0
DWIDTH 12 0
BBX 12 12 0 -2
BITMAP
0000
0180
06C0
0340
3B00
0E00
0300
0180
0000
0000
0000
0000
ENDCHAR
STARTCHAR 30FF
ENCODING 12543
SWIDTH 720 0
DWIDTH 12 0
BBX 12 12 0 -2
BITMAP
0000
3FC0
00C0
00C0
00C0
00C0
00C0
00C0
00C0
00C0
00C0
0000
ENDCHAR
STARTCHAR 31F0
ENCODING 12784
SWIDTH 720 0
DWIDTH 12 0
BBX 12 12 0 -2
BITMAP
0000
0000
0000
0000
0600
07C0
0CC0
38C0
0180
0300
0600
3C00
ENDCHAR
STARTCHAR 31F1
ENCODING 12785
SWIDTH 720 0
DWIDTH 12 0
BBX 12 12 0 -2
BITMAP
0000
0000
0000
0000
1C00
0600
3860
0C60
00C0
0180
3700
1C00
ENDCHAR
STARTCHAR 31F2
ENCODING 12786
SWIDTH 720 0
DWIDTH 12 0
BBX 12 12 0 -2
BITMAP
0000
0000
0000
0000
1BC0
0EC0
0180
0180
0300
0680
0CC0
3860
ENDCHAR
STARTCHAR 31F3
ENCODING 12787
SWIDTH 720 0
DWIDTH 12 0
BBX 12 12 0 -2
BITMAP
0000
0000
0000
0000
1800
0C00
0C00
0F00
0DC0
0C00
0C00
0C00
ENDCHAR
STARTCHAR 31F4
ENCODING 12788
SWIDTH 720 0
DWIDTH 12 0
BBX 12 12 0 -2
BITMAP
0000
0000
0000
0000
1BC0
0EC0
00C0
1980
0D00
0700
0D80
38C0
ENDCHAR
STARTCHAR 31F5
ENCODING 12789
SWIDTH 720 0
DWIDTH 12 0
BBX 12 12 0 -2
BITMAP
0000
0000
0000
0000
0000
1B00
0D80
0D80
0CC0
18C0
18C0
30C0
ENDCHAR
STARTCHAR 31F6
ENCODING 12790
SWIDTH 720 0
DWIDTH 12 0
BBX 12 12 0 -2
BITMAP
0000
0000
0000
0000
3000
1980
1B00
1E00
1800
1800
1800
0FC0
ENDCHAR
STARTCHAR 31F7
ENCODING 12791
SWIDTH 720 0
DWIDTH 12 0
BBX 12 12 0 -2
BITMAP
0000
0000
0000
0000
37C0
1CC0
00C0
0180
0180
0300
0600
1C00
ENDCHAR
STARTCHAR 31F8
ENCODING 12792
SWIDTH 720 0
DWIDTH 12 0
BBX 12 12 0 -2
BITMAP
0000
0000
0000
0000
0000
0C00
0C00
1A00
1B00
7180
00E0
0000
ENDCHAR
STARTCHAR 31F9
ENCODING 12793
SWIDTH 720 0
DWIDTH 12 0
BBX 12 12 0 -2
BITMAP
0000
0000
0000
0000
0C00
37C0
1E00
0600
1AC0
1A60
3660
0E00
ENDCHAR
STARTCHAR 31FA
ENCODING 12794
SWIDTH 720 0
DWIDTH 12 0
BBX 12 12 0 -2
BITMAP
0000
0000
0000
0000
0C00
0600
0600
0C00
0D80
18C0
1BC0
3CC0
ENDCHAR
STARTCHAR 31FB
ENCODING 12795
SWIDTH 720 0
DWIDTH 12 0
BBX 12 12 0 -2
BITMAP
0000
0000
0000
0000
1B80
0C00
33C0
1EC0
00C0
0180
0300
0E00
ENDCHAR
STARTCHAR 31FC
ENCODING 12796
SWIDTH 720 0
DWIDTH 12 0
BBX 12 12 0 -2
BITMAP
0000
0000
0000
0000
3300
1980
1980
1980
1980
0300
0300
0600
ENDCHAR
STARTCHAR 31FD
ENCODING 12797
SWIDTH 720 0
DWIDTH 12 0
BBX 12 12 0 -2
BITMAP
0000
0000
0000
0000
0600
3300
1B00
1B00
1B60
3360
3340
6380
ENDCHAR
STARTCHAR 31FE
ENCODING 12798
SWIDTH 720 0
DWIDTH 12 0
BBX 12 12 0 -2
BITMAP
0000
0000
0000
0000
3000
1800
1800
1800
18C0
1980
1B00
1C00
ENDCHAR
STARTCHAR 31FF
ENCODING 12799
SWIDTH 720 0
DWIDTH 12 0
BBX 12 12 0 -2
BITMAP
0000
0000
0000
0000
0000
67C0
3CC0
30C0
30C0
30C0
33C0
3EC0
ENDCHAR
STARTCHAR 3231
ENCODING 12849
SWIDTH 720 0
DWIDTH 12 0
BBX 12 12 0 -2
BITMAP
0000
6060
DB30
FFF0
DBB0
DEB0
DFF0
EBB0
EBD0
DAB0
DDB0
69A0
ENDCHAR
STARTCHAR 3232
ENCODING 12850
SWIDTH 720 0
DWIDTH 12 0
BBX 12 12 0 -2
BITMAP
0000
6C60
CC30
FFF0
CC30
DFD0
D8D0
DFD0
E8D0
DFD0
D8D0
71E0
ENDCHAR
STARTCHAR 3239
ENCODING 12857
SWIDTH 720 0
DWIDTH 12 0
BBX 12 12 0 -2
BITMAP
0000
6360
DBB0
DB50
D7F0
D330
F330
D1B0
D1B0
D1B0
D0D0
7060
ENDCHAR
STARTCHAR 3251
ENCODING 12881
SWIDTH 720 0
DWIDTH 12 0
BBX 12 12 0 -2
BITMAP
0000
3FC0
6060
DDB0
D7B0
C6B0
CDB0
D9B0
D1B0
DFD0
6060
3FC0
ENDCHAR
STARTCHAR 3252
ENCODING 12882
SWIDTH 720 0
DWIDTH 12 0
BBX 12 12 0 -2
BITMAP
0000
3FC0
6060
DDB0
D6D0
C6D0
CDB0
D9B0
D330
DFD0
6060
3FC0
ENDCHAR
STARTCHAR 3253
ENCODING 12883
SWIDTH 720 0
DWIDTH 12 0
BBX 12 12 0 -2
BITMAP
0000
3FC0
6060
DDB0
D750
C6D0
CDB0
D8D0
D350
DFB0
6060
3FC0
ENDCHAR
STARTCHAR 3254
ENCODING 12884
SWIDTH 720 0
DWIDTH 12 0
BBX 12 12 0 -2
BITMAP
0000
3FC0
6060
DCD0
D6D0
C750
CED0
DBD0
D0D0
DED0
6060
3FC0
ENDCHAR
STARTCHAR 3255
ENCODING 12885
SWIDTH 720 0
DWIDTH 12 0
BBX 12 12 0 -2
BITMAP
0000
3FC0
6060
DDD0
D730
C730
CDD0
D8D0
D350
DFB0
6060
3FC0
ENDCHAR
STARTCHAR 3256
ENCODING 12886
SWIDTH 720 0
DWIDTH 12 0
BBX 12 12 0 -2
BITMAP
0000
3FC0
6060
DDB0
D750
C730
CDD0
DB50
D350
DFD0
6060
3FC0
ENDCHAR
STARTCHAR 3257
ENCODING 12887
SWIDTH 720 0
DWIDTH 12 0
BBX 12 12 0 -2
BITMAP
0000
3FC0
6060
DFD0
D6D0
C6D0
CDB0
D9B0
D1B0
DEB0
6060
3FC0
ENDCHAR
STARTCHAR 3258
ENCODING 12888
SWIDTH 720 0
DWIDTH 12 0
BBX 12 12 0 -2
BITMAP
0000
3FC0
6060
DDB0
D750
C750
CDB0
DB50
D350
DFB0
6060
3FC0
ENDCHAR
STARTCHAR 3259
ENCODING 12889
SWIDTH 720 0
DWIDTH 12 0
BBX 12 12 0 -2
BITMAP
0000
3FC0
6060
DDB0
D750
C750
CDD0
D8D0
D350
DFB0
6060
3FC0
ENDCHAR
STARTCHAR 325A
ENCODING 12890
SWIDTH 720 0
DWIDTH 12 0
BBX 12 12 0 -2
BITMAP
0000
3FC0
6060
DDB0
D750
C750
DD50
C750
D750
DDB0
6060
3FC0
ENDCHAR
STARTCHAR 325B
ENCODING 12891
SWIDTH 720 0
DWIDTH 12 0
BBX 12 12 0 -2
BITMAP
0000
3FC0
6060
DDB0
D7B0
C6B0
DDB0
C6B0
D6B0
DDD0
6060
3FC0
ENDCHAR
STARTCHAR 325C
ENCODING 12892
SWIDTH 720 0
DWIDTH 12 0
BBX 12 12 0 -2
BITMAP
0000
3FC0
6060
DDB0
D6D0
C6D0
DDB0
C6B0
D730
DDD0
6060
3FC0
ENDCHAR
STARTCHAR 325D
ENCODING 12893
SWIDTH 720 0
DWIDTH 12 0
BBX 12 12 0 -2
BITMAP
0000
3FC0
6060
DDB0
D6D0
C6D0
DDB0
C6D0
D6D0
DDB0
6060
3FC0
ENDCHAR
STARTCHAR 325E
ENCODING 12894
SWIDTH 720 0
DWIDTH 12 0
BBX 12 12 0 -2
BITMAP
0000
3FC0
6060
DCD0
D6D0
C750
DD50
C7D0
D6D0
DDD0
6060
3FC0
ENDCHAR
STARTCHAR 325F
ENCODING 12895
SWIDTH 720 0
DWIDTH 12 0
BBX 12 12 0 -2
BITMAP
0000
3FC0
6060
DDD0
D730
C730
DDD0
C6D0
D750
DDD0
6060
3FC0
ENDCHAR
STARTCHAR 32A4
ENCODING 12964
SWIDTH 720 0
DWIDTH 12 0
BBX 12 12 0 -2
BITMAP
0000
1F80
36C0
6660
C630
C7D0
C630
C630
C630
7FE0
30C0
1F80
ENDCHAR
STARTCHAR 32A5
ENCODING 12965
SWIDTH 720 0
DWIDTH 12 0
BBX 12 12 0 -2
BITMAP
0000
1F80
36C0
6660
DFD0
D6D0
D6D0
DFD0
D6D0
6660
36C0
1F80
ENDCHAR
STARTCHAR 32A6
ENCODING 12966
SWIDTH 720 0
DWIDTH 12 0
BBX 12 12 0 -2
BITMAP
0000
1F80
30C0
7FE0
C630
C730
C6B0
C6D0
C630
6660
36C0
1F80
ENDCHAR
STARTCHAR 32A7
ENCODING 12967
SWIDTH 720 0
DWIDTH 12 0
BBX 12 12 0 -2
BITMAP
0000
1F80
34C0
6C60
FFF0
CC30
DFD0
D330
F330
6FE0
30C0
1F80
ENDCHAR
STARTCHAR 32A8
ENCODING 12968
SWIDTH 720 0
DWIDTH 12 0
BBX 12 12 0 -2
BITMAP
0000
1F80
34C0
6C60
FFF0
D830
DFD0
D4D0
F4D0
6FE0
30C0
1F80
ENDCHAR
STARTCHAR 32B1
ENCODING 12977
SWIDTH 720 0
DWIDTH 12 0
BBX 12 12 0 -2
BITMAP
0000
3FC0
6060
DDB0
D750
C730
DDD0
C750
D750
DDD0
6060
3FC0
ENDCHAR
STARTCHAR 32B2
ENCODING 12978
SWIDTH 720 0
DWIDTH 12 0
BBX 12 12 0 -2
BITMAP
0000
3FC0
6060
DDD0
D6D0
C6D0
DDB0
C6B0
D6B0
DDB0
6060
3FC0
ENDCHAR
STARTCHAR 32B3
ENCODING 12979
SWIDTH 720 0
DWIDTH 12 0
BBX 12 12 0 -2
BITMAP
0000
3FC0
6060
DDB0
D750
C750
DDB0
C750
D750
DDB0
6060
3FC0
ENDCHAR
STARTCHAR 32B4
ENCODING 12980
SWIDTH 720 0
DWIDTH 12 0
BBX 12 12 0 -2
BITMAP
0000
3FC0
6060
DDB0
D750
C750
DDD0
C6D0
D6D0
DDB0
6060
3FC0
ENDCHAR
STARTCHAR 32B5
ENCODING 12981
SWIDTH 720 0
DWIDTH 12 0
BBX 12 12 0 -2
BITMAP
0000
3FC0
6060
CDB0
DD50
D550
D550
DF50
CD50
DEB0
6060
3FC0
ENDCHAR
STARTCHAR 32B6
ENCODING 12982
SWIDTH 720 0
DWIDTH 12 0
BBX 12 12 0 -2
BITMAP
0000
3FC0
6060
CDB0
DDB0
D5B0
D5B0
DEB0
CDB0
DFD0
6060
3FC0
ENDCHAR
STARTCHAR 32B7
ENCODING 12983
SWIDTH 720 0
DWIDTH 12 0
BBX 12 12 0 -2
BITMAP
0000
3FC0
6060
CDB0
DED0
D4D0
D5B0
DEB0
CD30
DFD0
6060
3FC0
ENDCHAR
STARTCHAR 32B8
ENCODING 12984
SWIDTH 720 0
DWIDTH 12 0
BBX 12 12 0 -2
BITMAP
0000
3FC0
6060
CDB0
DED0
D4D0
D5B0
DED0
CD50
DFB0
6060
3FC0
ENDCHAR
STARTCHAR 32B9
ENCODING 12985
SWIDTH 720 0
DWIDTH 12 0
BBX 12 12 0 -2
BITMAP
0000
3FC0
6060
CCD0
DDD0
D550
D6D0
DFD0
CCD0
DED0
6060
3FC0
ENDCHAR
STARTCHAR 32BA
ENCODING 12986
SWIDTH 720 0
DWIDTH 12 0
BBX 12 12 0 -2
BITMAP
0000
3FC0
6060
CDD0
DD30
D530
D5D0
DED0
CD50
DFB0
6060
3FC0
ENDCHAR
STARTCHAR 32BB
ENCODING 12987
SWIDTH 720 0
DWIDTH 12 0
BBX 12 12 0 -2
BITMAP
0000
3FC0
6060
CDB0
DD50
D530
D5D0
DF50
CD50
DFD0
6060
3FC0
ENDCHAR
STARTCHAR 32BC
ENCODING 12988
SWIDTH 720 0
DWIDTH 12 0
BBX 12 12 0 -2
BITMAP
0000
3FC0
6060
CFD0
DED0
D4D0
D5B0
DEB0
CDB0
DEB0
6060
3FC0
ENDCHAR
STARTCHAR 32BD
ENCODING 12989
SWIDTH 720 0
DWIDTH 12 0
BBX 12 12 0 -2
BITMAP
0000
3FC0
6060
CDB0
DD50
D550
D5B0
DF50
CD50
DFB0
6060
3FC0
ENDCHAR
STARTCHAR 32BE
ENCODING 12990
SWIDTH 720 0
DWIDTH 12 0
BBX 12 12 0 -2
BITMAP
0000
3FC0
6060
CDB0
DD50
D550
D5D0
DED0
CD50
DFB0
6060
3FC0
ENDCHAR
STARTCHAR 32BF
ENCODING 12991
SWIDTH 720 0
DWIDTH 12 0
BBX 12 12 0 -2
BITMAP
0000
3FC0
6060
DEB0
D350
D350
DF50
C750
D750
DDB0
6060
3FC0
ENDCHAR
STARTCHAR 32D0
ENCODING 13008
SWIDTH 720 0
DWIDTH 12 0
BBX 12 12 0 -2
BITMAP
0000
1F80
30C0
67E0
DCD0
C6B0
C730
C630
CC30
6C60
38C0
1F80
ENDCHAR
STARTCHAR 32D1
ENCODING 13009
SWIDTH 720 0
DWIDTH 12 0
BBX 12 12 0 -2
BITMAP
0000
1F80
31C0
61A0
C330
C630
DC30
C630
C630
6660
36C0
1F80
ENDCHAR
STARTCHAR 32D2
ENCODING 13010
SWIDTH 720 0
DWIDTH 12 0
BBX 12 12 0 -2
BITMAP
0000
1F80
34C0
6660
C7D0
DCD0
D8D0
D9B0
C1B0
6360
36C0
1F80
ENDCHAR
STARTCHAR 32D3
ENCODING 13011
SWIDTH 720 0
DWIDTH 12 0
BBX 12 12 0 -2
BITMAP
0000
1F80
30C0
6060
D3D0
DE30
C630
C630
CFD0
7860
30C0
1F80
ENDCHAR
STARTCHAR 32D4
ENCODING 13012
SWIDTH 720 0
DWIDTH 12 0
BBX 12 12 0 -2
BITMAP
0000
1F80
36C0
6360
D3D0
DF30
C730
CD30
DB30
6760
3340
1F80
ENDCHAR
STARTCHAR 32D5
ENCODING 13013
SWIDTH 720 0
DWIDTH 12 0
BBX 12 12 0 -2
BITMAP
0000
1F80
34C0
6660
D7D0
DED0
CCD0
CCD0
D8D0
76A0
3340
1F80
ENDCHAR
STARTCHAR 32D6
ENCODING 13014
SWIDTH 720 0
DWIDTH 12 0
BBX 12 12 0 -2
BITMAP
0000
1F80
38C0
6C60
C7B0
CE30
DAD0
C730
DD30
6360
3340
1F80
ENDCHAR
STARTCHAR 32D7
ENCODING 13015
SWIDTH 720 0
DWIDTH 12 0
BBX 12 12 0 -2
BITMAP
0000
1F80
34C0
6660
C7B0
CDB0
D9B0
C330
C330
6660
3CC0
1F80
ENDCHAR
STARTCHAR 32D8
ENCODING 13016
SWIDTH 720 0
DWIDTH 12 0
BBX 12 12 0 -2
BITMAP
0000
1F80
38C0
6C60
CDD0
DF30
D330
C330
C630
6660
34C0
1F80
ENDCHAR
STARTCHAR 32D9
ENCODING 13017
SWIDTH 720 0
DWIDTH 12 0
BBX 12 12 0 -2
BITMAP
0000
1F80
30C0
60E0
D7B0
DDB0
C1B0
C1B0
C7B0
6DA0
30C0
1F80
ENDCHAR
STARTCHAR 32DA
ENCODING 13018
SWIDTH 720 0
DWIDTH 12 0
BBX 12 12 0 -2
BITMAP
0000
1F80
3340
69A0
CDB0
EDF0
DEB0
CDB0
C330
6360
36C0
1F80
ENDCHAR
STARTCHAR 32DB
ENCODING 13019
SWIDTH 720 0
DWIDTH 12 0
BBX 12 12 0 -2
BITMAP
0000
1F80
30C0
6060
DC30
C670
D8D0
CCD0
C1B0
6B60
36C0
1F80
ENDCHAR
STARTCHAR 32DC
ENCODING 13020
SWIDTH 720 0
DWIDTH 12 0
BBX 12 12 0 -2
BITMAP
0000
1F80
30C0
77A0
DDB0
C1B0
C330
C730
CDB0
68E0
30C0
1F80
ENDCHAR
STARTCHAR 32DD
ENCODING 13021
SWIDTH 720 0
DWIDTH 12 0
BBX 12 12 0 -2
BITMAP
0000
1F80
30C0
7060
DBD0
DDB0
DB30
D830
CC30
67A0
30C0
1F80
ENDCHAR
STARTCHAR 32DE
ENCODING 13022
SWIDTH 720 0
DWIDTH 12 0
BBX 12 12 0 -2
BITMAP
0000
1F80
30C0
6060
D8D0
CCD0
CDB0
C1B0
C330
6660
34C0
1F80
ENDCHAR
STARTCHAR 32DF
ENCODING 13023
SWIDTH 720 0
DWIDTH 12 0
BBX 12 12 0 -2
BITMAP
0000
1F80
34C0
6660
C7B0
CDB0
DAB0
C330
C630
6C60
38C0
1F80
ENDCHAR
STARTCHAR 32E0
ENCODING 13024
SWIDTH 720 0
DWIDTH 12 0
BBX 12 12 0 -2
BITMAP
0000
1F80
31C0
6360
DE30
E7F0
DD30
C330
C330
6660
34C0
1F80
ENDCHAR
STARTCHAR 32E1
ENCODING 13025
SWIDTH 720 0
DWIDTH 12 0
BBX 12 12 0 -2
BITMAP
0000
1F80
30C0
6DA0
D6D0
DAD0
D8D0
C1B0
C1B0
6360
36C0
1F80
ENDCHAR
STARTCHAR 32E2
ENCODING 13026
SWIDTH 720 0
DWIDTH 12 0
BBX 12 12 0 -2
BITMAP
0000
1F80
30C0
6BA0
CC30
E3F0
DE30
C330
C330
6660
34C0
1F80
ENDCHAR
STARTCHAR 32E3
ENCODING 13027
SWIDTH 720 0
DWIDTH 12 0
BBX 12 12 0 -2
BITMAP
0000
1F80
38C0
6C60
CC30
CF30
CDD0
CC30
CC30
6C60
34C0
1F80
ENDCHAR
STARTCHAR 32E5
ENCODING 13029
SWIDTH 720 0
DWIDTH 12 0
BBX 12 12 0 -2
BITMAP
0000
1F80
30C0
6060
D7B0
DC30
C030
C030
C7D0
7C60
30C0
1F80
ENDCHAR
STARTCHAR 32E9
ENCODING 13033
SWIDTH 720 0
DWIDTH 12 0
BBX 12 12 0 -2
BITMAP
0000
1F80
30C0
6060
C330
D9B0
D9B0
D8D0
D0D0
7060
30C0
1F80
ENDCHAR
STARTCHAR 32EC
ENCODING 13036
SWIDTH 720 0
DWIDTH 12 0
BBX 12 12 0 -2
BITMAP
0000
1F80
30C0
6C60
CC30
DA30
D330
E1B0
C0F0
6060
30C0
1F80
ENDCHAR
STARTCHAR 32ED
ENCODING 13037
SWIDTH 720 0
DWIDTH 12 0
BBX 12 12 0 -2
BITMAP
0000
1F80
34C0
6660
D7D0
DE30
DAB0
DAD0
D6D0
6E60
36C0
1F80
ENDCHAR
STARTCHAR 32FA
ENCODING 13050
SWIDTH 720 0
DWIDTH 12 0
BBX 12 12 0 -2
BITMAP
0000
1F80
30C0
6060
E7D0
DCD0
D0D0
D3D0
DED0
6060
30C0
1F80
ENDCHAR
STARTCHAR 3303
ENCODING 13059
SWIDTH 720 0
DWIDTH 12 0
BBX 12 12 0 -2
BITMAP
0000
FE00
3600
3400
3BE0
6000
C000
1800
6B00
6B00
6A00
DC00
ENDCHAR
STARTCHAR 330D
ENCODING 13069
SWIDTH 720 0
DWIDTH 12 0
BBX 12 12 0 -2
BITMAP
0000
6000
FDE0
6D60
6D60
DBE0
0000
D800
D800
DBF0
1800
3000
ENDCHAR
STARTCHAR 3314
ENCODING 13076
SWIDTH 720 0
DWIDTH 12 0
BBX 12 12 0 -2
BITMAP
0000
3000
3C00
F000
1E00
F800
1BE0
1B60
0360
0360
03E0
0000
ENDCHAR
STARTCHAR 3318
ENCODING 13080
SWIDTH 720 0
DWIDTH 12 0
BBX 12 12 0 -2
BITMAP
0000
1AE0
7A00
6BF0
D830
3060
61C0
3000
3000
6C00
6A00
F600
ENDCHAR
STARTCHAR 3322
ENCODING 13090
SWIDTH 720 0
DWIDTH 12 0
BBX 12 12 0 -2
BITMAP
0000
6000
7D00
EDB0
6830
6060
3DC0
0C00
7800
FE00
1800
3000
ENDCHAR
STARTCHAR 3323
ENCODING 13091
SWIDTH 720 0
DWIDTH 12 0
BBX 12 12 0 -2
BITMAP
0000
6000
7D00
EDB0
6830
6060
3DC0
6000
7800
6C00
6000
6000
ENDCHAR
STARTCHAR 3326
ENCODING 13094
SWIDTH 720 0
DWIDTH 12 0
BBX 12 12 0 -2
BITMAP
0000
6A00
6A00
7800
6C00
6000
6680
0680
06B0
06A0
06C0
0D80
ENDCHAR
STARTCHAR 3327
ENCODING 13095
SWIDTH 720 0
DWIDTH 12 0
BBX 12 12 0 -2
BITMAP
0000
6000
6000
7800
6C00
6000
6600
0300
0330
0060
00C0
0380
ENDCHAR
STARTCHAR 332B
ENCODING 13099
SWIDTH 720 0
DWIDTH 12 0
BBX 12 12 0 -2
BITMAP
0000
0600
6D00
6A00
CDE0
CC00
00C0
DCC0
EAE0
D1D0
C340
7AC0
ENDCHAR
STARTCHAR 3336
ENCODING 13110
SWIDTH 720 0
DWIDTH 12 0
BBX 12 12 0 -2
BITMAP
0000
31F0
31B0
6B30
6C60
0660
78C0
6B40
EB50
3F50
3360
E6C0
ENDCHAR
STARTCHAR 333B
ENCODING 13115
SWIDTH 720 0
DWIDTH 12 0
BBX 12 12 0 -2
BITMAP
0000
0C00
6A00
D5E0
D800
0E00
0680
E680
0000
EC00
1800
7000
ENDCHAR
STARTCHAR 3349
ENCODING 13129
SWIDTH 720 0
DWIDTH 12 0
BBX 12 12 0 -2
BITMAP
0000
0000
7000
1C00
7000
1D60
7360
1D60
0360
0060
00C0
0180
ENDCHAR
STARTCHAR 334A
ENCODING 13130
SWIDTH 720 0
DWIDTH 12 0
BBX 12 12 0 -2
BITMAP
0000
E360
3B60
E360
38C0
E0C0
3D80
74C0
61C0
D7D0
D9E0
DB40
ENDCHAR
STARTCHAR 334D
ENCODING 13133
SWIDTH 720 0
DWIDTH 12 0
BBX 12 12 0 -2
BITMAP
0000
0C00
7400
1BE0
3800
EC00
6000
6180
7680
6AB0
66A0
6DC0
ENDCHAR
STARTCHAR 3351
ENCODING 13137
SWIDTH 720 0
DWIDTH 12 0
BBX 12 12 0 -2
BITMAP
0000
D800
D800
DB50
1B50
3060
61C0
6680
7A80
6EB0
66A0
6DC0
ENDCHAR
STARTCHAR 3357
ENCODING 13143
SWIDTH 720 0
DWIDTH 12 0
BBX 12 12 0 -2
BITMAP
0000
FC00
CC00
CD50
1B50
3060
61C0
6000
7800
6C00
6000
6000
ENDCHAR
STARTCHAR 337B
ENCODING 13179
SWIDTH 720 0
DWIDTH 12 0
BBX 12 12 0 -2
BITMAP
0000
FEC0
31A0
D5A0
D7F0
7AC0
FED0
37D0
36A0
36B0
35D0
35B0
ENDCHAR
STARTCHAR 337C
ENCODING 13180
SWIDTH 720 0
DWIDTH 12 0
BBX 12 12 0 -2
BITMAP
0000
3D80
F770
D550
D7D0
F550
DBD0
DFD0
D750
F550
DD70
3550
ENDCHAR
STARTCHAR 337D
ENCODING 13181
SWIDTH 720 0
DWIDTH 12 0
BBX 12 12 0 -2
BITMAP
0000
37F0
30C0
30C0
FD40
3340
3370
3340
6B40
6D40
6F40
C7F0
ENDCHAR
STARTCHAR 337E
ENCODING 13182
SWIDTH 720 0
DWIDTH 12 0
BBX 12 12 0 -2
BITMAP
0000
3CC0
F6C0
D560
DDB0
F6F0
D530
DC00
F5F0
D5B0
36F0
6EB0
ENDCHAR
STARTCHAR 338E
ENCODING 13198
SWIDTH 720 0
DWIDTH 12 0
BBX 12 12 0 -2
BITMAP
0000
0000
0000
0000
0030
E9F0
D560
D560
D5C0
D5E0
D730
07E0
ENDCHAR
STARTCHAR 338F
ENCODING 13199
SWIDTH 720 0
DWIDTH 12 0
BBX 12 12 0 -2
BITMAP
0000
6000
E000
6000
6030
6EF0
6D60
7B60
79C0
6DE0
6F30
07E0
ENDCHAR
STARTCHAR 339C
ENCODING 13212
SWIDTH 720 0
DWIDTH 12 0
BBX 12 12 0 -2
BITMAP
0000
0000
0000
0000
0000
EBA0
D550
D550
D550
D550
D550
0000
ENDCHAR
STARTCHAR 339D
ENCODING 13213
SWIDTH 720 0
DWIDTH 12 0
BBX 12 12 0 -2
BITMAP
0000
0000
0000
0000
0000
75A0
ED50
C350
C350
6D50
3B50
0000
ENDCHAR
STARTCHAR 339E
ENCODING 13214
SWIDTH 720 0
DWIDTH 12 0
BBX 12 12 0 -2
BITMAP
0000
6000
E000
6000
6000
6FA0
6D50
7B50
7B50
6D50
6D50
0000
ENDCHAR
STARTCHAR 33A1
ENCODING 13217
SWIDTH 720 0
DWIDTH 12 0
BBX 12 12 0 -2
BITMAP
0000
01E0
0030
00E0
0180
EDF0
7680
76C0
76C0
76C0
F6E0
0000
ENDCHAR
STARTCHAR 33C4
ENCODING 13252
SWIDTH 720 0
DWIDTH 12 0
BBX 12 12 0 -2
BITMAP
0000
0000
0000
0000
0000
75D0
EDB0
CD30
C300
6DB0
38E0
0000
ENDCHAR
STARTCHAR 33CB
ENCODING 13259
SWIDTH 720 0
DWIDTH 12 0
BBX 12 12 0 -2
BITMAP
0000
F7C0
7760
7770
7770
7F60
77C0
7700
7700
7700
F780
0000
ENDCHAR
STARTCHAR 33CD
ENCODING 13261
SWIDTH 720 0
DWIDTH 12 0
BBX 12 12 0 -2
BITMAP
0000
DD70
DB60
D340
D340
E380
F3C0
DB60
DB60
DD70
DD70
0000
ENDCHAR
STARTCHAR 3402
ENCODING 13314
SWIDTH 720 0
DWIDTH 12 0
BBX 12 12 0 -2
BITMAP
0000
18E0
1B80
FC00
1860
0FE0
6180
6EB0
69E0
F380
6EB0
3CF0
ENDCHAR
STARTCHAR 3406
ENCODING 13318
SWIDTH 720 0
DWIDTH 12 0
BBX 12 12 0 -2
BITMAP
0000
01C0
1F00
1FC0
18C0
1FC0
1FC0
1800
3FC0
30C0
60C0
C380
ENDCHAR
STARTCHAR 342C
ENCODING 13356
SWIDTH 720 0
DWIDTH 12 0
BBX 12 12 0 -2
BITMAP
0000
0600
FFF0
0CC0
1BC0
3E60
1A80
1A80
1A80
36B0
36B0
E0F0
ENDCHAR
STARTCHAR 342E
ENCODING 13358
SWIDTH 720 0
DWIDTH 12 0
BBX 12 12 0 -2
BITMAP
0000
0600
FFF0
39C0
E9B0
7FE0
3FC0
1980
FFF0
3B60
EEC0
3870
ENDCHAR
STARTCHAR 3468
ENCODING 13416
SWIDTH 720 0
DWIDTH 12 0
BBX 12 12 0 -2
BITMAP
0000
1BE0
1A60
37E0
3660
7600
D7E0
3580
37F0
3180
3340
3670
ENDCHAR
STARTCHAR 346A
ENCODING 13418
SWIDTH 720 0
DWIDTH 12 0
BBX 12 12 0 -2
BITMAP
0000
1980
1FF0
3660
33C0
7340
D670
37E0
3660
37E0
3460
3860
ENDCHAR
STARTCHAR 3492
ENCODING 13458
SWIDTH 720 0
DWIDTH 12 0
BBX 12 12 0 -2
BITMAP
0000
1D50
1B60
37F0
3340
77F0
D180
37E0
3180
37F0
36A0
35B0
ENDCHAR
STARTCHAR 34B5
ENCODING 13493
SWIDTH 720 0
DWIDTH 12 0
BBX 12 12 0 -2
BITMAP
0000
0E00
7FE0
6060
7FE0
6060
6060
7FE0
6060
1980
30C0
E070
ENDCHAR
STARTCHAR 34BC
ENCODING 13500
SWIDTH 720 0
DWIDTH 12 0
BBX 12 12 0 -2
BITMAP
0000
1980
FFF0
1980
1F80
0600
7FE0
7BA0
6AA0
7760
6660
66E0
ENDCHAR
STARTCHAR 34C1
ENCODING 13505
SWIDTH 720 0
DWIDTH 12 0
BBX 12 12 0 -2
BITMAP
0000
0000
0000
7FF0
6B30
DB30
1B00
3360
3360
61E0
0000
0000
ENDCHAR
STARTCHAR 34C7
ENCODING 13511
SWIDTH 720 0
DWIDTH 12 0
BBX 12 12 0 -2
BITMAP
0000
6070
37C0
3180
0180
1FF0
3180
61C0
6340
C360
C660
DC30
ENDCHAR
STARTCHAR 34DB
ENCODING 13531
SWIDTH 720 0
DWIDTH 12 0
BBX 12 12 0 -2
BITMAP
0000
0FF0
0330
FB30
3330
3330
3330
3330
3A30
E630
0C30
18E0
ENDCHAR
STARTCHAR 351F
ENCODING 13599
SWIDTH 720 0
DWIDTH 12 0
BBX 12 12 0 -2
BITMAP
0000
6980
7E80
DBE0
7EA0
1BA0
1EF0
F370
0630
FFF0
0C30
78E0
ENDCHAR
STARTCHAR 355D
ENCODING 13661
SWIDTH 720 0
DWIDTH 12 0
BBX 12 12 0 -2
BITMAP
0000
0600
FFF0
0600
3FC0
30C0
3FC0
0000
7FE0
1DC0
3FC0
FDF0
ENDCHAR
STARTCHAR 355E
ENCODING 13662
SWIDTH 720 0
DWIDTH 12 0
BBX 12 12 0 -2
BITMAP
0000
7FE0
FFF0
FFB0
FFB0
EDF0
FEE0
FAE0
FAC0
FAE0
DEE0
DBB0
ENDCHAR
STARTCHAR 3563
ENCODING 13667
SWIDTH 720 0
DWIDTH 12 0
BBX 12 12 0 -2
BITMAP
0000
0F00
0300
1980
1980
30C0
E070
3FC0
30C0
30C0
3FC0
30C0
ENDCHAR
STARTCHAR 356E
ENCODING 13678
SWIDTH 720 0
DWIDTH 12 0
BBX 12 12 0 -2
BITMAP
0000
06C0
FAE0
DE60
DEF0
DAC0
DBC0
DDC0
F980
DBC0
07E0
1EF0
ENDCHAR
STARTCHAR 35A6
ENCODING 13734
SWIDTH 720 0
DWIDTH 12 0
BBX 12 12 0 -2
BITMAP
0000
0180
FFF0
D980
DBE0
DAA0
DBE0
DAA0
FBE0
DBC0
06A0
0DB0
ENDCHAR
STARTCHAR 35A8
ENCODING 13736
SWIDTH 720 0
DWIDTH 12 0
BBX 12 12 0 -2
BITMAP
0000
03E0
FA60
DBC0
D8C0
DFF0
D980
DEB0
FBE0
DAA0
0DB0
0380
ENDCHAR
STARTCHAR 35C5
ENCODING 13765
SWIDTH 720 0
DWIDTH 12 0
BBX 12 12 0 -2
BITMAP
0000
06F0
F6D0
DFD0
D6F0
D6D0
D750
D570
F550
CD50
0FB0
0DB0
ENDCHAR
STARTCHAR 35DA
ENCODING 13786
SWIDTH 720 0
DWIDTH 12 0
BBX 12 12 0 -2
BITMAP
0000
0FF0
F340
D7F0
D550
D550
D7F0
D180
F7F0
C3C0
06A0
0DB0
ENDCHAR
STARTCHAR 35F4
ENCODING 13812
SWIDTH 720 0
DWIDTH 12 0
BBX 12 12 0 -2
BITMAP
0000
0F70
F550
D770
D550
D770
D5D0
D550
F5D0
CD50
0DD0
0D70
ENDCHAR
STARTCHAR 3605
ENCODING 13829
SWIDTH 720 0
DWIDTH 12 0
BBX 12 12 0 -2
BITMAP
0000
1B70
FBF0
DFC0
DFF0
DB70
DFF0
DD70
FF70
DFF0
3FF0
3E70
ENDCHAR
STARTCHAR 364A
ENCODING 13898
SWIDTH 720 0
DWIDTH 12 0
BBX 12 12 0 -2
BITMAP
0000
37E0
3600
37E0
FA00
37E0
3600
37F0
3AA0
E6C0
07A0
0E30
ENDCHAR
STARTCHAR 3691
ENCODING 13969
SWIDTH 720 0
DWIDTH 12 0
BBX 12 12 0 -2
BITMAP
0000
3FC0
00C0
FFF0
00C0
00C0
3FC0
0600
FFF0
0600
1D80
F0F0
ENDCHAR
STARTCHAR 3696
ENCODING 13974
SWIDTH 720 0
DWIDTH 12 0
BBX 12 12 0 -2
BITMAP
0000
0600
3FC0
30C0
3FC0
3FC0
30C0
3FC0
0660
FFF0
1D80
F0F0
ENDCHAR
STARTCHAR 3699
ENCODING 13977
SWIDTH 720 0
DWIDTH 12 0
BBX 12 12 0 -2
BITMAP
0000
31F0
FEB0
36B0
36B0
66F0
DDB0
0600
FFF0
0600
1D80
F0F0
ENDCHAR
STARTCHAR 36CF
ENCODING 14031
SWIDTH 720 0
DWIDTH 12 0
BBX 12 12 0 -2
BITMAP
0000
61A0
61B0
FFF0
6980
6DA0
6AA0
DBC0
F6C0
6DA0
69B0
C780
ENDCHAR
STARTCHAR 3761
ENCODING 14177
SWIDTH 720 0
DWIDTH 12 0
BBX 12 12 0 -2
BITMAP
0000
0600
7FF0
6030
FE00
6DF0
7D70
7D70
7DE0
6DC0
FDF0
ED70
ENDCHAR
STARTCHAR 3762
ENCODING 14178
SWIDTH 720 0
DWIDTH 12 0
BBX 12 12 0 -2
BITMAP
0000
0600
7FF0
63D0
DFC0
3F00
3FC0
3FC0
7FE0
7FE0
6FE0
6CE0
ENDCHAR
STARTCHAR 376B
ENCODING 14187
SWIDTH 720 0
DWIDTH 12 0
BBX 12 12 0 -2
BITMAP
0000
0600
7FE0
E370
7BE0
FFC0
FBE0
FFF0
FBE0
FFC0
FBE0
EFF0
ENDCHAR
STARTCHAR 376C
ENCODING 14188
SWIDTH 720 0
DWIDTH 12 0
BBX 12 12 0 -2
BITMAP
0000
31C0
FDC0
D7F0
FDC0
79C0
7BF0
FDC0
79C0
FBE0
EB60
FF70
ENDCHAR
STARTCHAR 3775
ENCODING 14197
SWIDTH 720 0
DWIDTH 12 0
BBX 12 12 0 -2
BITMAP
0000
3FC0
30C0
3FC0
30C0
3FC0
7FE0
0180
FFF0
3180
1980
0780
ENDCHAR
STARTCHAR 378D
ENCODING 14221
SWIDTH 720 0
DWIDTH 12 0
BBX 12 12 0 -2
BITMAP
0000
7FF0
6030
7FF0
6630
6600
7FC0
66C0
6AC0
6CD0
CED0
DB70
ENDCHAR
STARTCHAR 37C1
ENCODING 14273
SWIDTH 720 0
DWIDTH 12 0
BBX 12 12 0 -2
BITMAP
0000
37F0
3400
DDE0
DFE0
DDC0
DFF0
DDC0
FDC0
CDC0
19C0
19C0
ENDCHAR
STARTCHAR 37E2
ENCODING 14306
SWIDTH 720 0
DWIDTH 12 0
BBX 12 12 0 -2
BITMAP
0000
0600
6660
7FE0
0600
7FE0
0D00
39C0
FFF0
36C0
3EC0
33C0
ENDCHAR
STARTCHAR 37E8
ENCODING 14312
SWIDTH 720 0
DWIDTH 12 0
BBX 12 12 0 -2
BITMAP
0000
3180
36B0
D7F0
D400
D7F0
D500
D7F0
FED0
C6D0
06D0
0670
ENDCHAR
STARTCHAR 37F4
ENCODING 14324
SWIDTH 720 0
DWIDTH 12 0
BBX 12 12 0 -2
BITMAP
0000
3180
37F0
D6B0
D7F0
D6B0
D7F0
D5A0
FDD0
C3F0
06B0
0CF0
ENDCHAR
STARTCHAR 37FD
ENCODING 14333
SWIDTH 720 0
DWIDTH 12 0
BBX 12 12 0 -2
BITMAP
0000
6FF0
6FF0
6FF0
FEF0
FFF0
FFE0
FFE0
FFF0
F6A0
1EB0
0FB0
ENDCHAR
STARTCHAR 3800
ENCODING 14336
SWIDTH 720 0
DWIDTH 12 0
BBX 12 12 0 -2
BITMAP
0000
3F80
3FC0
3FC0
3FC0
3FC0
3FF0
3FF0
EAB0
C660
6660
7FE0
ENDCHAR
STARTCHAR 382F
ENCODING 14383
SWIDTH 720 0
DWIDTH 12 0
BBX 12 12 0 -2
BITMAP
0000
3FC0
30C0
30C0
3FC0
30C0
3000
3FE0
3060
3060
3FE0
3060
ENDCHAR
STARTCHAR 3836
ENCODING 14390
SWIDTH 720 0
DWIDTH 12 0
BBX 12 12 0 -2
BITMAP
0000
31C0
3180
FDE0
D560
D560
D560
D560
DB60
3360
3770
3670
ENDCHAR
STARTCHAR 3840
ENCODING 14400
SWIDTH 720 0
DWIDTH 12 0
BBX 12 12 0 -2
BITMAP
0000
0600
3A80
76E0
6660
7FE0
6F60
6FA0
7EA0
7AE0
6660
61E0
ENDCHAR
STARTCHAR 385C
ENCODING 14428
SWIDTH 720 0
DWIDTH 12 0
BBX 12 12 0 -2
BITMAP
0000
37F0
36D0
FDA0
D760
D6D0
D7F0
D400
DBF0
36A0
36B0
35B0
ENDCHAR
STARTCHAR 3861
ENCODING 14433
SWIDTH 720 0
DWIDTH 12 0
BBX 12 12 0 -2
BITMAP
0000
37F0
37F0
FFB0
D7B0
D7F0
D6F0
D7F0
DAF0
36B0
37B0
37F0
ENDCHAR
STARTCHAR 38FA
ENCODING 14586
SWIDTH 720 0
DWIDTH 12 0
BBX 12 12 0 -2
BITMAP
0000
0000
0C00
0C00
0CC0
6E60
6D30
6DB0
CD80
CC00
1C00
0000
ENDCHAR
STARTCHAR 3917
ENCODING 14615
SWIDTH 720 0
DWIDTH 12 0
BBX 12 12 0 -2
BITMAP
0000
0600
7FE0
7FE0
7FE0
FFF0
7AE0
E670
36E0
37F0
76E0
6E00
ENDCHAR
STARTCHAR 391A
ENCODING 14618
SWIDTH 720 0
DWIDTH 12 0
BBX 12 12 0 -2
BITMAP
0000
3360
3300
3A00
DDF0
DB60
D660
3660
3660
3660
3660
36E0
ENDCHAR
STARTCHAR 396F
ENCODING 14703
SWIDTH 720 0
DWIDTH 12 0
BBX 12 12 0 -2
BITMAP
0000
3FE0
7FC0
FFE0
3FA0
FFF0
FFF0
7FE0
7FE0
6A60
6B50
CFD0
ENDCHAR
STARTCHAR 3A6E
ENCODING 14958
SWIDTH 720 0
DWIDTH 12 0
BBX 12 12 0 -2
BITMAP
0000
37A0
35B0
FFF0
37F0
37F0
3FF0
F7F0
37F0
37E0
37E0
7780
ENDCHAR
STARTCHAR 3A73
ENCODING 14963
SWIDTH 720 0
DWIDTH 12 0
BBX 12 12 0 -2
BITMAP
0000
35F0
37F0
FFE0
37E0
37F0
3FF0
F7F0
37E0
37C0
37E0
7770
ENDCHAR
STARTCHAR 3AD6
ENCODING 15062
SWIDTH 720 0
DWIDTH 12 0
BBX 12 12 0 -2
BITMAP
0000
0600
0600
07E0
0600
FFF0
0000
3FC0
30C0
3FC0
30C0
3FC0
ENDCHAR
STARTCHAR 3AD7
ENCODING 15063
SWIDTH 720 0
DWIDTH 12 0
BBX 12 12 0 -2
BITMAP
0000
3FC0
3FC0
3FC0
3FC0
3FC0
7FC0
0700
FFF0
FFF0
0600
1E00
ENDCHAR
STARTCHAR 3AEA
ENCODING 15082
SWIDTH 720 0
DWIDTH 12 0
BBX 12 12 0 -2
BITMAP
0000
0600
7FE0
7FE0
0D00
FFF0
1980
37C0
F4F0
37C0
34C0
37C0
ENDCHAR
STARTCHAR 3B0E
ENCODING 15118
SWIDTH 720 0
DWIDTH 12 0
BBX 12 12 0 -2
BITMAP
0000
3FC0
3FC0
3FC0
3FC0
3580
7DE0
39C0
7FE0
7BF0
6DA0
EDB0
ENDCHAR
STARTCHAR 3B1A
ENCODING 15130
SWIDTH 720 0
DWIDTH 12 0
BBX 12 12 0 -2
BITMAP
0000
06C0
FFC0
D4F0
DFF0
DF70
FF70
DF70
DF60
FF70
1B70
1BF0
ENDCHAR
STARTCHAR 3B1C
ENCODING 15132
SWIDTH 720 0
DWIDTH 12 0
BBX 12 12 0 -2
BITMAP
0000
FDE0
FDE0
FDF0
FFF0
FBF0
FFF0
3FC0
3FC0
3FC0
30C0
3FC0
ENDCHAR
STARTCHAR 3B22
ENCODING 15138
SWIDTH 720 0
DWIDTH 12 0
BBX 12 12 0 -2
BITMAP
0000
0360
FFF0
D980
DBE0
F980
DFF0
DB50
FFF0
DAE0
0750
0EB0
ENDCHAR
STARTCHAR 3B6D
ENCODING 15213
SWIDTH 720 0
DWIDTH 12 0
BBX 12 12 0 -2
BITMAP
0000
3750
3550
FD50
3750
76D0
7B50
D550
D550
3530
3B30
3770
ENDCHAR
STARTCHAR 3B77
ENCODING 15223
SWIDTH 720 0
DWIDTH 12 0
BBX 12 12 0 -2
BITMAP
0000
37F0
36B0
FFF0
36B0
7BF0
76B0
D580
D7F0
31B0
3330
36E0
ENDCHAR
STARTCHAR 3B87
ENCODING 15239
SWIDTH 720 0
DWIDTH 12 0
BBX 12 12 0 -2
BITMAP
0000
30E0
3780
FD80
37F0
7B40
7660
D5B0
D680
36E0
35D0
33B0
ENDCHAR
STARTCHAR 3B88
ENCODING 15240
SWIDTH 720 0
DWIDTH 12 0
BBX 12 12 0 -2
BITMAP
0000
3180
37F0
FD40
3660
7A30
77E0
D000
D7F0
36A0
36B0
35B0
ENDCHAR
STARTCHAR 3B8D
ENCODING 15245
SWIDTH 720 0
DWIDTH 12 0
BBX 12 12 0 -2
BITMAP
0000
FFF0
FFF0
7D60
7D60
7D60
6DE0
66E0
FFF0
0F00
3AC0
E670
ENDCHAR
STARTCHAR 3BA4
ENCODING 15268
SWIDTH 720 0
DWIDTH 12 0
BBX 12 12 0 -2
BITMAP
0000
0600
7FE0
F9F0
7F60
7FE0
FFF0
39C0
1F80
FFF0
7FC0
F6F0
ENDCHAR
STARTCHAR 3BB6
ENCODING 15286
SWIDTH 720 0
DWIDTH 12 0
BBX 12 12 0 -2
BITMAP
0000
3B70
36D0
FFD0
36F0
7AD0
7AD0
DFF0
DAD0
36D0
35B0
39B0
ENDCHAR
STARTCHAR 3BC3
ENCODING 15299
SWIDTH 720 0
DWIDTH 12 0
BBX 12 12 0 -2
BITMAP
0000
3180
37F0
FBC0
36B0
7340
7EB0
DAA0
D3C0
36C0
35B0
3380
ENDCHAR
STARTCHAR 3BCD
ENCODING 15309
SWIDTH 720 0
DWIDTH 12 0
BBX 12 12 0 -2
BITMAP
0000
36F0
37F0
FFF0
3760
7BC0
77B0
D7F0
D670
36F0
36F0
36F0
ENDCHAR
STARTCHAR 3BF0
ENCODING 15344
SWIDTH 720 0
DWIDTH 12 0
BBX 12 12 0 -2
BITMAP
0000
37E0
37F0
FFF0
37F0
7BE0
77F0
D7F0
D7F0
37F0
37E0
37F0
ENDCHAR
STARTCHAR 3C0F
ENCODING 15375
SWIDTH 720 0
DWIDTH 12 0
BBX 12 12 0 -2
BITMAP
0000
36C0
37F0
FEA0
33B0
7FF0
7BC0
D340
D7F0
35D0
3550
35F0
ENDCHAR
STARTCHAR 3C26
ENCODING 15398
SWIDTH 720 0
DWIDTH 12 0
BBX 12 12 0 -2
BITMAP
0000
3B00
3B00
FDF0
3B30
3AA0
FD80
3180
75C0
7540
7D60
FE30
ENDCHAR
STARTCHAR 3CC3
ENCODING 15555
SWIDTH 720 0
DWIDTH 12 0
BBX 12 12 0 -2
BITMAP
0000
6300
37C0
3340
C750
6ED0
6EB0
0380
37E0
6180
C180
C180
ENDCHAR
STARTCHAR 3CD2
ENCODING 15570
SWIDTH 720 0
DWIDTH 12 0
BBX 12 12 0 -2
BITMAP
0000
6300
3300
3FF0
C6C0
6EC0
6F60
1D70
3760
6660
C7F0
DFB0
ENDCHAR
STARTCHAR 3D11
ENCODING 15633
SWIDTH 720 0
DWIDTH 12 0
BBX 12 12 0 -2
BITMAP
0000
6180
3FF0
3B70
DB60
6FF0
6AC0
1AF0
3BF0
6BE0
DB80
DB00
ENDCHAR
STARTCHAR 3D1E
ENCODING 15646
SWIDTH 720 0
DWIDTH 12 0
BBX 12 12 0 -2
BITMAP
0000
61F0
37E0
3500
CFB0
6EA0
6DE0
0D70
35F0
6DF0
CD70
CDF0
ENDCHAR
STARTCHAR 3D64
ENCODING 15716
SWIDTH 720 0
DWIDTH 12 0
BBX 12 12 0 -2
BITMAP
0000
6FF0
3570
3BF0
DFF0
6DC0
6FE0
0EA0
3FF0
63C0
C7E0
DEF0
ENDCHAR
STARTCHAR 3D9A
ENCODING 15770
SWIDTH 720 0
DWIDTH 12 0
BBX 12 12 0 -2
BITMAP
0000
6FF0
3FF0
3FF0
DFF0
6FF0
6F50
0F70
3FD0
6FF0
DFD0
CFF0
ENDCHAR
STARTCHAR 3DC0
ENCODING 15808
SWIDTH 720 0
DWIDTH 12 0
BBX 12 12 0 -2
BITMAP
0000
3BC0
7DE0
39C0
7DE0
6D00
7FC0
19C0
7FC0
3FC0
19D0
18F0
ENDCHAR
STARTCHAR 3DD4
ENCODING 15828
SWIDTH 720 0
DWIDTH 12 0
BBX 12 12 0 -2
BITMAP
0000
30F0
3780
36B0
DAD0
D360
D6F0
36B0
3AF0
6AB0
6AF0
C6B0
ENDCHAR
STARTCHAR 3E05
ENCODING 15877
SWIDTH 720 0
DWIDTH 12 0
BBX 12 12 0 -2
BITMAP
0000
36C0
37F0
36E0
D680
DBF0
D7D0
37D0
3BD0
6BD0
6BF0
C7C0
ENDCHAR
STARTCHAR 3E3F
ENCODING 15935
SWIDTH 720 0
DWIDTH 12 0
BBX 12 12 0 -2
BITMAP
0000
6980
6BF0
7D80
DBE0
D800
1FF0
3B50
ED40
1B50
1B50
1A70
ENDCHAR
STARTCHAR 3E60
ENCODING 15968
SWIDTH 720 0
DWIDTH 12 0
BBX 12 12 0 -2
BITMAP
0000
1B60
DBC0
7700
7360
D560
3560
7560
D7E0
3300
3330
E1F0
ENDCHAR
STARTCHAR 3E66
ENCODING 15974
SWIDTH 720 0
DWIDTH 12 0
BBX 12 12 0 -2
BITMAP
0000
1BF0
DB30
7330
7330
D630
34E0
77F0
D630
3630
37F0
E630
ENDCHAR
STARTCHAR 3E68
ENCODING 15976
SWIDTH 720 0
DWIDTH 12 0
BBX 12 12 0 -2
BITMAP
0000
1980
D980
77F0
75B0
D5B0
37F0
75B0
D5B0
35B0
37F0
EC30
ENDCHAR
STARTCHAR 3E83
ENCODING 16003
SWIDTH 720 0
DWIDTH 12 0
BBX 12 12 0 -2
BITMAP
0000
1AC0
DFF0
7740
76C0
D7F0
37B0
77F0
D6F0
37F0
3070
E1E0
ENDCHAR
STARTCHAR 3E94
ENCODING 16020
SWIDTH 720 0
DWIDTH 12 0
BBX 12 12 0 -2
BITMAP
0000
1FC0
DFA0
77F0
77E0
D4E0
37F0
7470
D7F0
35F0
37B0
ED70
ENDCHAR
STARTCHAR 3F57
ENCODING 16215
SWIDTH 720 0
DWIDTH 12 0
BBX 12 12 0 -2
BITMAP
0000
0180
FD80
D580
D580
FD80
D580
D540
FD40
C660
0660
0C30
ENDCHAR
STARTCHAR 3F72
ENCODING 16242
SWIDTH 720 0
DWIDTH 12 0
BBX 12 12 0 -2
BITMAP
0000
0300
3FF0
D000
7FF0
3600
7600
D7E0
3460
3060
6060
C1C0
ENDCHAR
STARTCHAR 3F75
ENCODING 16245
SWIDTH 720 0
DWIDTH 12 0
BBX 12 12 0 -2
BITMAP
0000
0300
3FF0
D000
7300
3300
7FE0
D300
3300
3300
6300
DFF0
ENDCHAR
STARTCHAR 3F77
ENCODING 16247
SWIDTH 720 0
DWIDTH 12 0
BBX 12 12 0 -2
BITMAP
0000
0300
3FF0
D000
7660
3F70
77E0
DFC0
3BC0
3AC0
6AF0
D670
ENDCHAR
STARTCHAR 3FAE
ENCODING 16302
SWIDTH 720 0
DWIDTH 12 0
BBX 12 12 0 -2
BITMAP
0000
0600
7FF0
E300
6FE0
6FE0
6FE0
EFE0
6FE0
EFE0
EFE0
3FF0
ENDCHAR
STARTCHAR 3FC9
ENCODING 16329
SWIDTH 720 0
DWIDTH 12 0
BBX 12 12 0 -2
BITMAP
0000
0600
7FF0
EFE0
6FE0
6FE0
7FF0
FFE0
6FE0
EFE0
EFE0
1FF0
ENDCHAR
STARTCHAR 3FD7
ENCODING 16343
SWIDTH 720 0
DWIDTH 12 0
BBX 12 12 0 -2
BITMAP
0000
3FF0
7FF0
EFF0
6DF0
7FF0
6FF0
F5B0
6AF0
EEB0
EFF0
3BB0
ENDCHAR
STARTCHAR 4039
ENCODING 16441
SWIDTH 720 0
DWIDTH 12 0
BBX 12 12 0 -2
BITMAP
0000
F980
DFF0
D9A0
FAA0
DEA0
FFF0
DDD0
DBC0
FB40
DEE0
0C70
ENDCHAR
STARTCHAR 4058
ENCODING 16472
SWIDTH 720 0
DWIDTH 12 0
BBX 12 12 0 -2
BITMAP
0000
FBC0
DBE0
DF60
FFC0
DF80
FFE0
DD80
DFF0
FFF0
DDB0
0FF0
ENDCHAR
STARTCHAR 4093
ENCODING 16531
SWIDTH 720 0
DWIDTH 12 0
BBX 12 12 0 -2
BITMAP
0000
63E0
7BF0
D7F0
D7F0
3770
FFF0
3770
77E0
69C0
6BD0
CF70
ENDCHAR
STARTCHAR 4105
ENCODING 16645
SWIDTH 720 0
DWIDTH 12 0
BBX 12 12 0 -2
BITMAP
0000
36C0
3AC0
7FE0
1D80
FFF0
39C0
7FE0
FFF0
3FC0
76E0
FEF0
ENDCHAR
STARTCHAR 4148
ENCODING 16712
SWIDTH 720 0
DWIDTH 12 0
BBX 12 12 0 -2
BITMAP
0000
36C0
3AC0
7FE0
0F00
FFF0
3BC0
7F60
FFF0
3FC0
3EC0
F6F0
ENDCHAR
STARTCHAR 414F
ENCODING 16719
SWIDTH 720 0
DWIDTH 12 0
BBX 12 12 0 -2
BITMAP
0000
1FE0
F7F0
37F0
FFE0
36F0
7BC0
76F0
D7F0
D7F0
36D0
30F0
ENDCHAR
STARTCHAR 4163
ENCODING 16739
SWIDTH 720 0
DWIDTH 12 0
BBX 12 12 0 -2
BITMAP
0000
1D80
F7E0
37E0
FFE0
36E0
7BE0
77F0
D7E0
D7C0
37F0
37F0
ENDCHAR
STARTCHAR 41B4
ENCODING 16820
SWIDTH 720 0
DWIDTH 12 0
BBX 12 12 0 -2
BITMAP
0000
7FE0
FFF0
F7F0
3FC0
7FC0
DFC0
7FE0
7FE0
7FE0
7FF0
07F0
ENDCHAR
STARTCHAR 41BF
ENCODING 16831
SWIDTH 720 0
DWIDTH 12 0
BBX 12 12 0 -2
BITMAP
0000
7FE0
FFF0
F9F0
6BE0
EBF0
7BF0
1BF0
FFF0
6BF0
EBE0
EFF0
ENDCHAR
STARTCHAR 41E6
ENCODING 16870
SWIDTH 720 0
DWIDTH 12 0
BBX 12 12 0 -2
BITMAP
0000
3180
3EF0
6B40
CE60
7FE0
6660
6E60
FFF0
1D80
79E0
F0F0
ENDCHAR
STARTCHAR 41EE
ENCODING 16878
SWIDTH 720 0
DWIDTH 12 0
BBX 12 12 0 -2
BITMAP
0000
3180
3EF0
6B40
CE60
3BC0
3F80
7380
EFF0
6180
6180
6FF0
ENDCHAR
STARTCHAR 41F3
ENCODING 16883
SWIDTH 720 0
DWIDTH 12 0
BBX 12 12 0 -2
BITMAP
0000
3180
3EF0
6B40
CE60
FFF0
7FE0
7FE0
7FE0
0780
0FB0
7DF0
ENDCHAR
STARTCHAR 4207
ENCODING 16903
SWIDTH 720 0
DWIDTH 12 0
BBX 12 12 0 -2
BITMAP
0000
3180
7DF0
DA60
07E0
0600
3FC0
3FC0
3FC0
3FC0
FFF0
0600
ENDCHAR
STARTCHAR 420E
ENCODING 16910
SWIDTH 720 0
DWIDTH 12 0
BBX 12 12 0 -2
BITMAP
0000
3180
7DF0
DA60
FFF0
37C0
37C0
3FF0
FFF0
FFF0
FEF0
F6F0
ENDCHAR
STARTCHAR 4264
ENCODING 16996
SWIDTH 720 0
DWIDTH 12 0
BBX 12 12 0 -2
BITMAP
0000
3180
7DF0
DA60
D540
7BF0
FD60
7AA0
FEC0
6CE0
39B0
EF30
ENDCHAR
STARTCHAR 42C6
ENCODING 17094
SWIDTH 720 0
DWIDTH 12 0
BBX 12 12 0 -2
BITMAP
0000
37F0
6000
EBF0
3630
6A30
F7F0
3630
DA00
D600
D600
3400
ENDCHAR
STARTCHAR 42D6
ENCODING 17110
SWIDTH 720 0
DWIDTH 12 0
BBX 12 12 0 -2
BITMAP
0000
3180
6FE0
E9A0
37F0
69A0
F7E0
3180
DBE0
D580
D7F0
3180
ENDCHAR
STARTCHAR 42DD
ENCODING 17117
SWIDTH 720 0
DWIDTH 12 0
BBX 12 12 0 -2
BITMAP
0000
3330
67B0
EAB0
3660
6B00
F7F0
3760
DAE0
D7C0
D5E0
3770
ENDCHAR
STARTCHAR 4302
ENCODING 17154
SWIDTH 720 0
DWIDTH 12 0
BBX 12 12 0 -2
BITMAP
0000
37E0
67F0
EBF0
37E0
6BF0
F5A0
37F0
D9E0
D7F0
D5C0
37F0
ENDCHAR
STARTCHAR 432B
ENCODING 17195
SWIDTH 720 0
DWIDTH 12 0
BBX 12 12 0 -2
BITMAP
0000
37F0
67F0
EBE0
37E0
6BE0
F7E0
37E0
DBE0
D7E0
D5D0
3770
ENDCHAR
STARTCHAR 4343
ENCODING 17219
SWIDTH 720 0
DWIDTH 12 0
BBX 12 12 0 -2
BITMAP
0000
0FC0
1FC0
7EC0
1F80
3F00
7FE0
7600
FFF0
FFF0
6660
7FE0
ENDCHAR
STARTCHAR 43EE
ENCODING 17390
SWIDTH 720 0
DWIDTH 12 0
BBX 12 12 0 -2
BITMAP
0000
7B00
6FE0
6B70
7B70
6EF0
6EE0
7E70
6AE0
6BC0
DEE0
DC70
ENDCHAR
STARTCHAR 43F0
ENCODING 17392
SWIDTH 720 0
DWIDTH 12 0
BBX 12 12 0 -2
BITMAP
0000
7BE0
6BF0
6BB0
7BB0
6BA0
6AE0
7980
6BC0
6B70
DF70
DDE0
ENDCHAR
STARTCHAR 4408
ENCODING 17416
SWIDTH 720 0
DWIDTH 12 0
BBX 12 12 0 -2
BITMAP
0000
79C0
6FF0
6BE0
7BF0
6B70
6BF0
7B70
6BF0
6B70
DBE0
DBF0
ENDCHAR
STARTCHAR 4417
ENCODING 17431
SWIDTH 720 0
DWIDTH 12 0
BBX 12 12 0 -2
BITMAP
0000
7B00
6FF0
6B60
7B60
6FF0
6BE0
7FE0
6E60
6BE0
DA60
DBE0
ENDCHAR
STARTCHAR 441C
ENCODING 17436
SWIDTH 720 0
DWIDTH 12 0
BBX 12 12 0 -2
BITMAP
0000
7BE0
6BE0
6BF0
7FE0
6FE0
6FE0
7FE0
6FE0
6DE0
DFF0
DEF0
ENDCHAR
STARTCHAR 4422
ENCODING 17442
SWIDTH 720 0
DWIDTH 12 0
BBX 12 12 0 -2
BITMAP
0000
7BF0
6FF0
6FD0
7BD0
6B70
6A60
7FF0
6FD0
6FD0
DBD0
DB70
ENDCHAR
STARTCHAR 4453
ENCODING 17491
SWIDTH 720 0
DWIDTH 12 0
BBX 12 12 0 -2
BITMAP
0000
1980
FFF0
1F80
1980
7FF0
7FD0
D980
7F60
3FC0
0600
FFF0
ENDCHAR
STARTCHAR 445B
ENCODING 17499
SWIDTH 720 0
DWIDTH 12 0
BBX 12 12 0 -2
BITMAP
0000
1CE0
F780
3680
3680
FFF0
3680
FAC0
DAC0
DB50
FC70
DBB0
ENDCHAR
STARTCHAR 4476
ENCODING 17526
SWIDTH 720 0
DWIDTH 12 0
BBX 12 12 0 -2
BITMAP
0000
31C0
7FF0
6DE0
77E0
6FF0
FFE0
6FF0
6EF0
6FF0
6E70
DEF0
ENDCHAR
STARTCHAR 447A
ENCODING 17530
SWIDTH 720 0
DWIDTH 12 0
BBX 12 12 0 -2
BITMAP
0000
37F0
7FF0
6FF0
77D0
6FF0
FFF0
6FF0
6ED0
6EF0
6FF0
DDB0
ENDCHAR
STARTCHAR 4491
ENCODING 17553
SWIDTH 720 0
DWIDTH 12 0
BBX 12 12 0 -2
BITMAP
0000
0000
0000
1980
1980
1980
FFF0
0000
0000
0000
0000
0000
ENDCHAR
STARTCHAR 44B3
ENCODING 17587
SWIDTH 720 0
DWIDTH 12 0
BBX 12 12 0 -2
BITMAP
0000
1980
FFF0
1980
7FC0
1DC0
79F0
F070
FFF0
FFF0
7FE0
F6F0
ENDCHAR
STARTCHAR 44BE
ENCODING 17598
SWIDTH 720 0
DWIDTH 12 0
BBX 12 12 0 -2
BITMAP
0000
1980
FFF0
1980
0600
0E00
FFF0
1F60
7B60
FBC0
3DE0
FCF0
ENDCHAR
STARTCHAR 44D4
ENCODING 17620
SWIDTH 720 0
DWIDTH 12 0
BBX 12 12 0 -2
BITMAP
0000
1980
FFF0
1980
7FE0
0FC0
FFF0
FFC0
FFC0
FFF0
0600
0E00
ENDCHAR
STARTCHAR 4508
ENCODING 17672
SWIDTH 720 0
DWIDTH 12 0
BBX 12 12 0 -2
BITMAP
0000
1980
FFF0
7FE0
7FE0
FFF0
3FC0
3FC0
3FC0
3FC0
3FC0
FFF0
ENDCHAR
STARTCHAR 450D
ENCODING 17677
SWIDTH 720 0
DWIDTH 12 0
BBX 12 12 0 -2
BITMAP
0000
1980
FFF0
1980
7FE0
7FE0
7FE0
7FE0
7FF0
3FF0
FEB0
DBF0
ENDCHAR
STARTCHAR 4525
ENCODING 17701
SWIDTH 720 0
DWIDTH 12 0
BBX 12 12 0 -2
BITMAP
0000
FFF0
FFF0
3FC0
7FE0
FFF0
7FE0
3F80
6FA0
6FA0
FFA0
F6A0
ENDCHAR
STARTCHAR 4543
ENCODING 17731
SWIDTH 720 0
DWIDTH 12 0
BBX 12 12 0 -2
BITMAP
0000
FFF0
FFF0
7BC0
FFF0
FBE0
FBE0
EBC0
EBE0
FFF0
E360
E7F0
ENDCHAR
STARTCHAR 459D
ENCODING 17821
SWIDTH 720 0
DWIDTH 12 0
BBX 12 12 0 -2
BITMAP
0000
03C0
7E00
0600
7FE0
6660
6660
7FE0
6680
06C0
0FA0
F860
ENDCHAR
STARTCHAR 45B8
ENCODING 17848
SWIDTH 720 0
DWIDTH 12 0
BBX 12 12 0 -2
BITMAP
0000
FD60
FFF0
33E0
3DE0
F3C0
77F0
7660
7FE0
7FE0
07E0
FFF0
ENDCHAR
STARTCHAR 45E5
ENCODING 17893
SWIDTH 720 0
DWIDTH 12 0
BBX 12 12 0 -2
BITMAP
0000
66B0
6EB0
FDF0
EF70
EEC0
FF40
ED70
7540
6D40
7DC0
DF70
ENDCHAR
STARTCHAR 45EA
ENCODING 17898
SWIDTH 720 0
DWIDTH 12 0
BBX 12 12 0 -2
BITMAP
0000
0600
7FF0
6D80
7FF0
6F80
D6A0
7FD0
36C0
3FC0
0660
FFD0
ENDCHAR
STARTCHAR 460F
ENCODING 17935
SWIDTH 720 0
DWIDTH 12 0
BBX 12 12 0 -2
BITMAP
0000
19F0
31F0
FEB0
DAB0
DAA0
DAB0
DAB0
DAB0
DEB0
E1B0
0180
ENDCHAR
STARTCHAR 4641
ENCODING 17985
SWIDTH 720 0
DWIDTH 12 0
BBX 12 12 0 -2
BITMAP
0000
3340
33E0
FBA0
19E0
33F0
36F0
7B60
D7E0
37F0
33F0
3770
ENDCHAR
STARTCHAR 4665
ENCODING 18021
SWIDTH 720 0
DWIDTH 12 0
BBX 12 12 0 -2
BITMAP
0000
6FE0
6FE0
FFF0
1FF0
36D0
37E0
6FE0
F5B0
6FF0
61B0
61A0
ENDCHAR
STARTCHAR 46A1
ENCODING 18081
SWIDTH 720 0
DWIDTH 12 0
BBX 12 12 0 -2
BITMAP
0000
7BE0
6BF0
D7F0
FFF0
D6B0
FFF0
D5C0
FDC0
CF70
CF70
DDF0
ENDCHAR
STARTCHAR 46AF
ENCODING 18095
SWIDTH 720 0
DWIDTH 12 0
BBX 12 12 0 -2
BITMAP
0000
7B60
0360
FD60
7B60
0360
7B60
0360
7B60
6860
7860
69E0
ENDCHAR
STARTCHAR 470C
ENCODING 18188
SWIDTH 720 0
DWIDTH 12 0
BBX 12 12 0 -2
BITMAP
0000
3770
7760
FFD0
7770
6060
FFF0
78F0
EF70
FFF0
FDF0
6F60
ENDCHAR
STARTCHAR 4764
ENCODING 18276
SWIDTH 720 0
DWIDTH 12 0
BBX 12 12 0 -2
BITMAP
0000
3980
F7F0
6B40
7760
EBF0
3BF0
EBE0
3BE0
EBA0
1BB0
73B0
ENDCHAR
STARTCHAR 47FD
ENCODING 18429
SWIDTH 720 0
DWIDTH 12 0
BBX 12 12 0 -2
BITMAP
0000
F980
DFF0
DB60
DBE0
FFF0
36A0
DBA0
D7A0
D7A0
DBB0
EE70
ENDCHAR
STARTCHAR 4816
ENCODING 18454
SWIDTH 720 0
DWIDTH 12 0
BBX 12 12 0 -2
BITMAP
0000
F9C0
DFF0
D9D0
DBE0
FBE0
37B0
DBB0
D7F0
D670
DA70
E7F0
ENDCHAR
STARTCHAR 4844
ENCODING 18500
SWIDTH 720 0
DWIDTH 12 0
BBX 12 12 0 -2
BITMAP
0000
33C0
FD40
3340
FD40
D540
FD40
D540
FD40
3350
FD50
3670
ENDCHAR
STARTCHAR 484E
ENCODING 18510
SWIDTH 720 0
DWIDTH 12 0
BBX 12 12 0 -2
BITMAP
0000
37F0
FFF0
33E0
FFF0
D770
FFE0
D600
FE00
3600
FE00
3600
ENDCHAR
STARTCHAR 48B5
ENCODING 18613
SWIDTH 720 0
DWIDTH 12 0
BBX 12 12 0 -2
BITMAP
0000
3DF0
7DB0
01B0
01A0
FFE0
31B0
31B0
76B0
6EE0
7F80
F780
ENDCHAR
STARTCHAR 49B0
ENCODING 18864
SWIDTH 720 0
DWIDTH 12 0
BBX 12 12 0 -2
BITMAP
0000
FDF0
FDF0
CD30
FDF0
DF30
DFB0
DFD0
DFD0
D6D0
DFD0
C7F0
ENDCHAR
STARTCHAR 49E7
ENCODING 18919
SWIDTH 720 0
DWIDTH 12 0
BBX 12 12 0 -2
BITMAP
0000
FAE0
DFE0
DBE0
D7E0
F7F0
DFA0
DFC0
DFF0
F7E0
CEF0
C7B0
ENDCHAR
STARTCHAR 49FA
ENCODING 18938
SWIDTH 720 0
DWIDTH 12 0
BBX 12 12 0 -2
BITMAP
0000
31B0
3360
FDF0
7760
6360
7BF0
EB60
EBF0
EB60
FB60
7BF0
ENDCHAR
STARTCHAR 4A04
ENCODING 18948
SWIDTH 720 0
DWIDTH 12 0
BBX 12 12 0 -2
BITMAP
0000
31B0
7B60
FDF0
7B60
FB60
FDF0
FD60
FDF0
DD60
FD60
FDF0
ENDCHAR
STARTCHAR 4A29
ENCODING 18985
SWIDTH 720 0
DWIDTH 12 0
BBX 12 12 0 -2
BITMAP
0000
7FE0
FFF0
FFF0
FFF0
FBF0
79C0
7BF0
FFF0
FBF0
FBE0
D1C0
ENDCHAR
STARTCHAR 4ABC
ENCODING 19132
SWIDTH 720 0
DWIDTH 12 0
BBX 12 12 0 -2
BITMAP
0000
33F0
D4C0
D5F0
D530
FDF0
3330
33F0
D530
D5F0
FDA0
FD30
ENDCHAR
STARTCHAR 4B3B
ENCODING 19259
SWIDTH 720 0
DWIDTH 12 0
BBX 12 12 0 -2
BITMAP
0000
31C0
6BF0
D980
FBE0
DB80
FFF0
DBF0
F9F0
F9E0
CDF0
FF70
ENDCHAR
STARTCHAR 4BC2
ENCODING 19394
SWIDTH 720 0
DWIDTH 12 0
BBX 12 12 0 -2
BITMAP
0000
3FC0
3F80
3FC0
3FC0
FFF0
FDE0
FDE0
FFF0
EEB0
FFF0
F6F0
ENDCHAR
STARTCHAR 4BCA
ENCODING 19402
SWIDTH 720 0
DWIDTH 12 0
BBX 12 12 0 -2
BITMAP
0000
7DF0
6DF0
7DB0
77F0
FEF0
EEF0
7FF0
6FB0
7C70
6C70
6CF0
ENDCHAR
STARTCHAR 4BD2
ENCODING 19410
SWIDTH 720 0
DWIDTH 12 0
BBX 12 12 0 -2
BITMAP
0000
7DF0
6DF0
7F00
7680
FDF0
EF70
7F70
6D70
7D70
6D70
6D70
ENDCHAR
STARTCHAR 4BE8
ENCODING 19432
SWIDTH 720 0
DWIDTH 12 0
BBX 12 12 0 -2
BITMAP
0000
FFF0
FFF0
3FC0
39C0
FFF0
EFB0
FFF0
6FA0
FFF0
3DC0
F9F0
ENDCHAR
STARTCHAR 4C17
ENCODING 19479
SWIDTH 720 0
DWIDTH 12 0
BBX 12 12 0 -2
BITMAP
0000
DDD0
DDD0
D9B0
DDD0
CF30
DAB0
FFD0
D6D0
DFD0
DFD0
C3F0
ENDCHAR
STARTCHAR 4C20
ENCODING 19488
SWIDTH 720 0
DWIDTH 12 0
BBX 12 12 0 -2
BITMAP
0000
38C0
7FF0
FF50
FFF0
FF50
FF50
7DF0
7CC0
7EC0
FED0
EFF0
ENDCHAR
STARTCHAR 4CC4
ENCODING 19652
SWIDTH 720 0
DWIDTH 12 0
BBX 12 12 0 -2
BITMAP
0000
3980
3BE0
FB60
FBE0
FD60
FDF0
FB00
FBF0
FDB0
FED0
F6E0
ENDCHAR
STARTCHAR 4CD1
ENCODING 19665
SWIDTH 720 0
DWIDTH 12 0
BBX 12 12 0 -2
BITMAP
0000
3180
FDE0
3360
7DE0
6D60
FDF0
F500
7DF0
7DB0
66D0
6EE0
ENDCHAR
STARTCHAR 4D07
ENCODING 19719
SWIDTH 720 0
DWIDTH 12 0
BBX 12 12 0 -2
BITMAP
0000
7EC0
7EE0
FFF0
FFF0
DFF0
7DF0
7FF0
EBF0
FFF0
3FB0
3C70
ENDCHAR
STARTCHAR 4D77
ENCODING 19831
SWIDTH 720 0
DWIDTH 12 0
BBX 12 12 0 -2
BITMAP
0000
6FE0
7FF0
6FF0
6FE0
FFF0
6DF0
6FF0
7DF0
6FF0
7BB0
F3F0
ENDCHAR
STARTCHAR 4E00
ENCODING 19968
SWIDTH 720 0
DWIDTH 12 0
BBX 12 12 0 -2
BITMAP
0000
0000
0000
0000
0000
0000
7FE0
0000
0000
0000
0000
0000
ENDCHAR
STARTCHAR 4E01
ENCODING 19969
SWIDTH 720 0
DWIDTH 12 0
BBX 12 12 0 -2
BITMAP
0000
0000
FFF0
0600
0600
0600
0600
0600
0600
0600
0600
1E00
ENDCHAR
STARTCHAR 4E02
ENCODING 19970
SWIDTH 720 0
DWIDTH 12 0
BBX 12 12 0 -2
BITMAP
0000
FFF0
0600
0600
0C00
0FC0
18C0
00C0
00C0
00C0
0180
0700
ENDCHAR
STARTCHAR 4E03
ENCODING 19971
SWIDTH 720 0
DWIDTH 12 0
BBX 12 12 0 -2
BITMAP
0000
1800
1800
1870
1BC0
1E00
F800
1800
1800
1860
1860
0FE0
ENDCHAR
STARTCHAR 4E07
ENCODING 19975
SWIDTH 720 0
DWIDTH 12 0
BBX 12 12 0 -2
BITMAP
0000
FFF0
0C00
0C00
0FC0
0CC0
0CC0
18C0
18C0
30C0
60C0
C380
ENDCHAR
STARTCHAR 4E08
ENCODING 19976
SWIDTH 720 0
DWIDTH 12 0
BBX 12 12 0 -2
BITMAP
0000
0600
0600
FFF0
0600
3600
1A00
0E00
0E00
0D00
39C0
E070
ENDCHAR
STARTCHAR 4E09
ENCODING 19977
SWIDTH 720 0
DWIDTH 12 0
BBX 12 12 0 -2
BITMAP
0000
0000
7FE0
0000
0000
0000
3FC0
0000
0000
0000
FFF0
0000
ENDCHAR
STARTCHAR 4E0A
ENCODING 19978
SWIDTH 720 0
DWIDTH 12 0
BBX 12 12 0 -2
BITMAP
0000
0600
0600
0600
0600
07E0
0600
0600
0600
0600
0600
FFF0
ENDCHAR
STARTCHAR 4E0B
ENCODING 19979
SWIDTH 720 0
DWIDTH 12 0
BBX 12 12 0 -2
BITMAP
0000
FFF0
0600
0600
0700
0680
06C0
06C0
0600
0600
0600
0600
ENDCHAR
STARTCHAR 4E0D
ENCODING 19981
SWIDTH 720 0
DWIDTH 12 0
BBX 12 12 0 -2
BITMAP
0000
FFF0
0300
0600
0780
0EC0
1A60
3630
E630
0600
0600
0600
ENDCHAR
STARTCHAR 4E0E
ENCODING 19982
SWIDTH 720 0
DWIDTH 12 0
BBX 12 12 0 -2
BITMAP
0000
3000
3F80
3000
3F80
0180
FFF0
0180
0180
0180
0300
1E00
ENDCHAR
STARTCHAR 4E0F
ENCODING 19983
SWIDTH 720 0
DWIDTH 12 0
BBX 12 12 0 -2
BITMAP
0000
FFF0
0600
67E0
6660
6660
7FE0
6060
0060
0060
00C0
0380
ENDCHAR
STARTCHAR 4E10
ENCODING 19984
SWIDTH 720 0
DWIDTH 12 0
BBX 12 12 0 -2
BITMAP
0000
FFF0
0600
67E0
6600
6600
7FE0
6060
0060
0060
00C0
0380
ENDCHAR
STARTCHAR 4E11
ENCODING 19985
SWIDTH 720 0
DWIDTH 12 0
BBX 12 12 0 -2
BITMAP
0000
7F80
0D80
0D80
0D80
1980
FFF0
1980
1980
3180
3180
FFF0
ENDCHAR
STARTCHAR 4E12
ENCODING 19986
SWIDTH 720 0
DWIDTH 12 0
BBX 12 12 0 -2
BITMAP
0000
7FE0
0660
3660
1A60
0C60
0E60
1A60
30C0
E380
0000
FFF0
ENDCHAR
STARTCHAR 4E14
ENCODING 19988
SWIDTH 720 0
DWIDTH 12 0
BBX 12 12 0 -2
BITMAP
0000
3FC0
30C0
30C0
3FC0
30C0
30C0
3FC0
30C0
30C0
30C0
FFF0
ENDCHAR
STARTCHAR 4E15
ENCODING 19989
SWIDTH 720 0
DWIDTH 12 0
BBX 12 12 0 -2
BITMAP
0000
7FE0
0300
0600
0F00
1A80
36C0
E670
0600
0600
0000
FFF0
ENDCHAR
STARTCHAR 4E16
ENCODING 19990
SWIDTH 720 0
DWIDTH 12 0
BBX 12 12 0 -2
BITMAP
0000
36C0
36C0
36C0
FFF0
36C0
36C0
37C0
36C0
3000
3FE0
3000
ENDCHAR
STARTCHAR 4E17
ENCODING 19991
SWIDTH 720 0
DWIDTH 12 0
BBX 12 12 0 -2
BITMAP
0000
36C0
36C0
36C0
36C0
FFF0
36C0
36C0
36C0
36C0
3FC0
30C0
ENDCHAR
STARTCHAR 4E18
ENCODING 19992
SWIDTH 720 0
DWIDTH 12 0
BBX 12 12 0 -2
BITMAP
0000
01C0
3F00
3000
3000
3FE0
3180
3180
3180
3180
3180
FFF0
ENDCHAR
STARTCHAR 4E19
ENCODING 19993
SWIDTH 720 0
DWIDTH 12 0
BBX 12 12 0 -2
BITMAP
0000
FFF0
0600
0600
7FE0
6660
6D60
69A0
70E0
6060
6060
61E0
ENDCHAR
STARTCHAR 4E1E
ENCODING 19998
SWIDTH 720 0
DWIDTH 12 0
BBX 12 12 0 -2
BITMAP
0000
3FC0
0180
0700
FA60
1B60
1B40
3680
66C0
C670
1E00
7FE0
ENDCHAR
STARTCHAR 4E21
ENCODING 20001
SWIDTH 720 0
DWIDTH 12 0
BBX 12 12 0 -2
BITMAP
0000
FFF0
0600
7FE0
6660
6AA0
6AA0
6FA0
69A0
6060
6060
61E0
ENDCHAR
STARTCHAR 4E26
ENCODING 20006
SWIDTH 720 0
DWIDTH 12 0
BBX 12 12 0 -2
BITMAP
0000
30C0
1980
7FE0
1980
1980
D9B0
69B0
69A0
1980
1980
FFF0
ENDCHAR
STARTCHAR 4E28
ENCODING 20008
SWIDTH 720 0
DWIDTH 12 0
BBX 12 12 0 -2
BITMAP
0000
0000
0600
0600
0600
0600
0600
0600
0600
0600
0600
0000
ENDCHAR
STARTCHAR 4E29
ENCODING 20009
SWIDTH 720 0
DWIDTH 12 0
BBX 12 12 0 -2
BITMAP
0000
00C0
18C0
18C0
18C0
18C0
18C0
1BC0
1EC0
38C0
00C0
00C0
ENDCHAR
STARTCHAR 4E2A
ENCODING 20010
SWIDTH 720 0
DWIDTH 12 0
BBX 12 12 0 -2
BITMAP
0000
0600
0600
0D00
1980
36C0
E670
0600
0600
0600
0600
0600
ENDCHAR
STARTCHAR 4E2B
ENCODING 20011
SWIDTH 720 0
DWIDTH 12 0
BBX 12 12 0 -2
BITMAP
0000
30C0
18C0
0D80
0D00
0600
0600
0600
0600
0600
0600
0600
ENDCHAR
STARTCHAR 4E2C
ENCODING 20012
SWIDTH 720 0
DWIDTH 12 0
BBX 12 12 0 -2
BITMAP
0000
0180
0180
0D80
0680
0680
0380
0680
0D80
0D80
0180
0180
ENDCHAR
STARTCHAR 4E2D
ENCODING 20013
SWIDTH 720 0
DWIDTH 12 0
BBX 12 12 0 -2
BITMAP
0000
0600
0600
FFF0
C630
C630
C630
FFF0
C630
0600
0600
0600
ENDCHAR
STARTCHAR 4E2E
ENCODING 20014
SWIDTH 720 0
DWIDTH 12 0
BBX 12 12 0 -2
BITMAP
0000
FF80
0180
1980
1980
FF80
1980
1980
FF40
18D0
1870
1830
ENDCHAR
STARTCHAR 4E2F
ENCODING 20015
SWIDTH 720 0
DWIDTH 12 0
BBX 12 12 0 -2
BITMAP
0000
06E0
0780
3E00
06E0
0F80
7A00
0670
07C0
7E00
0600
0600
ENDCHAR
STARTCHAR 4E30
ENCODING 20016
SWIDTH 720 0
DWIDTH 12 0
BBX 12 12 0 -2
BITMAP
0000
0600
0600
FFF0
0600
0600
7FE0
0600
0600
FFF0
0600
0600
ENDCHAR
STARTCHAR 4E31
ENCODING 20017
SWIDTH 720 0
DWIDTH 12 0
BBX 12 12 0 -2
BITMAP
0000
1980
D9B0
D9B0
D9B0
D9B0
D9B0
F9F0
D9B0
1980
3180
E180
ENDCHAR
STARTCHAR 4E32
ENCODING 20018
SWIDTH 720 0
DWIDTH 12 0
BBX 12 12 0 -2
BITMAP
0000
0600
3FC0
36C0
3FC0
0600
7FE0
6660
6660
7FE0
6660
0600
ENDCHAR
STARTCHAR 4E36
ENCODING 20022
SWIDTH 720 0
DWIDTH 12 0
BBX 12 12 0 -2
BITMAP
0000
0000
0000
1C00
0600
0300
0300
0300
0000
0000
0000
0000
ENDCHAR
STARTCHAR 4E38
ENCODING 20024
SWIDTH 720 0
DWIDTH 12 0
BBX 12 12 0 -2
BITMAP
0000
0C00
0C00
0C00
7FC0
0CC0
34C0
1CC0
0CC0
1AD0
36D0
E070
ENDCHAR
STARTCHAR 4E39
ENCODING 20025
SWIDTH 720 0
DWIDTH 12 0
BBX 12 12 0 -2
BITMAP
0000
3FC0
30C0
34C0
36C0
36C0
FFF0
30C0
30C0
60C0
60C0
C3C0
ENDCHAR
STARTCHAR 4E3B
ENCODING 20027
SWIDTH 720 0
DWIDTH 12 0
BBX 12 12 0 -2
BITMAP
0000
0C00
0600
FFF0
0600
0600
0600
3FC0
0600
0600
0600
FFF0
ENDCHAR
STARTCHAR 4E3C
ENCODING 20028
SWIDTH 720 0
DWIDTH 12 0
BBX 12 12 0 -2
BITMAP
0000
30C0
30C0
FFF0
30C0
34C0
36C0
36C0
FFF0
30C0
60C0
C0C0
ENDCHAR
STARTCHAR 4E3F
ENCODING 20031
SWIDTH 720 0
DWIDTH 12 0
BBX 12 12 0 -2
BITMAP
0000
0180
0180
0180
0180
0180
0180
0300
0300
0600
0C00
3800
ENDCHAR
STARTCHAR 4E40
ENCODING 20032
SWIDTH 720 0
DWIDTH 12 0
BBX 12 12 0 -2
BITMAP
0000
0000
1800
1800
3400
6C00
0600
0600
0300
0180
00C0
0070
ENDCHAR
STARTCHAR 4E42
ENCODING 20034
SWIDTH 720 0
DWIDTH 12 0
BBX 12 12 0 -2
BITMAP
0000
30C0
30C0
30C0
1980
1980
0D00
0600
0700
0D80
38C0
E070
ENDCHAR
STARTCHAR 4E43
ENCODING 20035
SWIDTH 720 0
DWIDTH 12 0
BBX 12 12 0 -2
BITMAP
0000
7F80
1980
1980
1980
19F0
1830
3030
3030
3030
6060
C1C0
ENDCHAR
STARTCHAR 4E45
ENCODING 20037
SWIDTH 720 0
DWIDTH 12 0
BBX 12 12 0 -2
BITMAP
0000
0C00
0F80
1D80
1980
3300
6300
0700
0D80
1980
30C0
E070
ENDCHAR
STARTCHAR 4E47
ENCODING 20039
SWIDTH 720 0
DWIDTH 12 0
BBX 12 12 0 -2
BITMAP
0000
0380
7E00
0C00
0C00
0C00
FFF0
0C00
0C00
0C00
0C30
07F0
ENDCHAR
STARTCHAR 4E48
ENCODING 20040
SWIDTH 720 0
DWIDTH 12 0
BBX 12 12 0 -2
BITMAP
0000
1800
1800
3300
3300
6600
C600
0D80
0CC0
19C0
1F60
7060
ENDCHAR
STARTCHAR 4E4B
ENCODING 20043
SWIDTH 720 0
DWIDTH 12 0
BBX 12 12 0 -2
BITMAP
0000
0600
0600
7FE0
0060
00C0
0180
0300
6600
6C00
7C00
C7F0
ENDCHAR
STARTCHAR 4E4D
ENCODING 20045
SWIDTH 720 0
DWIDTH 12 0
BBX 12 12 0 -2
BITMAP
0000
3000
3000
3FF0
6600
C600
07E0
0600
07E0
0600
0600
0600
ENDCHAR
STARTCHAR 4E4E
ENCODING 20046
SWIDTH 720 0
DWIDTH 12 0
BBX 12 12 0 -2
BITMAP
0000
03C0
7E00
66C0
36C0
3680
FFF0
0600
0600
0600
0600
1E00
ENDCHAR
STARTCHAR 4E4F
ENCODING 20047
SWIDTH 720 0
DWIDTH 12 0
BBX 12 12 0 -2
BITMAP
0000
01E0
7F00
0600
0600
3FC0
00C0
0180
6300
6E00
7800
CFF0
ENDCHAR
STARTCHAR 4E51
ENCODING 20049
SWIDTH 720 0
DWIDTH 12 0
BBX 12 12 0 -2
BITMAP
0000
00C0
0780
7E00
0660
1B40
3780
E700
1A80
36C0
E670
0600
ENDCHAR
STARTCHAR 4E55
ENCODING 20053
SWIDTH 720 0
DWIDTH 12 0
BBX 12 12 0 -2
BITMAP
0000
01E0
7F00
6300
7FF0
6300
7FF0
6300
6FF0
6B30
DB60
C300
ENDCHAR
STARTCHAR 4E56
ENCODING 20054
SWIDTH 720 0
DWIDTH 12 0
BBX 12 12 0 -2
BITMAP
0000
03C0
3E00
0600
FFF0
0600
1AB0
FAE0
1A80
3AB0
EAF0
0600
ENDCHAR
STARTCHAR 4E57
ENCODING 20055
SWIDTH 720 0
DWIDTH 12 0
BBX 12 12 0 -2
BITMAP
0000
03C0
3E00
FFF0
36C0
FFF0
36C0
FFF0
0F00
1A80
36C0
E670
ENDCHAR
STARTCHAR 4E58
ENCODING 20056
SWIDTH 720 0
DWIDTH 12 0
BBX 12 12 0 -2
BITMAP
0000
03C0
3E00
FFF0
1AB0
FAE0
1A80
3AB0
EAF0
0F00
3AC0
E670
ENDCHAR
STARTCHAR 4E59
ENCODING 20057
SWIDTH 720 0
DWIDTH 12 0
BBX 12 12 0 -2
BITMAP
0000
7FC0
00C0
0380
0700
0C00
1800
3000
6030
C030
6030
3FE0
ENDCHAR
STARTCHAR 4E5A
ENCODING 20058
SWIDTH 720 0
DWIDTH 12 0
BBX 12 12 0 -2
BITMAP
0000
3000
3000
3000
3000
3000
3000
3000
3000
3060
3060
1FC0
ENDCHAR
STARTCHAR 4E5D
ENCODING 20061
SWIDTH 720 0
DWIDTH 12 0
BBX 12 12 0 -2
BITMAP
0000
0C00
0C00
0C00
FF80
0D80
1980
1980
1980
31B0
61B0
C0F0
ENDCHAR
STARTCHAR 4E5E
ENCODING 20062
SWIDTH 720 0
DWIDTH 12 0
BBX 12 12 0 -2
BITMAP
0000
1800
1800
3FF0
6000
DF80
0300
0E00
1800
3060
6060
3FE0
ENDCHAR
STARTCHAR 4E5F
ENCODING 20063
SWIDTH 720 0
DWIDTH 12 0
BBX 12 12 0 -2
BITMAP
0000
0600
3600
36E0
37A0
3E60
F660
3660
36E0
3030
3030
1FF0
ENDCHAR
STARTCHAR 4E62
ENCODING 20066
SWIDTH 720 0
DWIDTH 12 0
BBX 12 12 0 -2
BITMAP
0000
3300
3300
D500
D500
D500
D500
D500
FD00
CD30
0330
01F0
ENDCHAR
STARTCHAR 4E69
ENCODING 20073
SWIDTH 720 0
DWIDTH 12 0
BBX 12 12 0 -2
BITMAP
0000
3180
3180
3E80
3180
3180
FE80
C680
C680
C6B0
FEB0
C6F0
ENDCHAR
STARTCHAR 4E71
ENCODING 20081
SWIDTH 720 0
DWIDTH 12 0
BBX 12 12 0 -2
BITMAP
0000
0E80
7980
1980
1980
FF80
1980
7E80
6680
66B0
7EB0
66F0
ENDCHAR
STARTCHAR 4E73
ENCODING 20083
SWIDTH 720 0
DWIDTH 12 0
BBX 12 12 0 -2
BITMAP
0000
1E80
F680
D580
6980
FE80
0D80
1F80
F980
19B0
19B0
78F0
ENDCHAR
STARTCHAR 4E7E
ENCODING 20094
SWIDTH 720 0
DWIDTH 12 0
BBX 12 12 0 -2
BITMAP
0000
3300
FD00
33F0
FE00
CDE0
FCC0
CD80
FD00
3630
FE30
33F0
ENDCHAR
STARTCHAR 4E80
ENCODING 20096
SWIDTH 720 0
DWIDTH 12 0
BBX 12 12 0 -2
BITMAP
0000
1F00
3FC0
F6C0
3FC0
36C0
7FE0
6660
7FE0
6660
7FF0
03F0
ENDCHAR
STARTCHAR 4E82
ENCODING 20098
SWIDTH 720 0
DWIDTH 12 0
BBX 12 12 0 -2
BITMAP
0000
1E80
F580
D680
FE80
6D80
FE80
D680
FE80
D6B0
DAB0
EEF0
ENDCHAR
STARTCHAR 4E85
ENCODING 20101
SWIDTH 720 0
DWIDTH 12 0
BBX 12 12 0 -2
BITMAP
0000
0600
0600
0600
0600
0600
0600
0600
0600
0600
0600
1E00
ENDCHAR
STARTCHAR 4E86
ENCODING 20102
SWIDTH 720 0
DWIDTH 12 0
BBX 12 12 0 -2
BITMAP
0000
7FE0
00C0
0180
0700
0600
0600
0600
0600
0600
0600
1E00
ENDCHAR
STARTCHAR 4E88
ENCODING 20104
SWIDTH 720 0
DWIDTH 12 0
BBX 12 12 0 -2
BITMAP
0000
3FC0
18C0
0D80
0700
FFF0
0630
0660
0600
0600
0600
1E00
ENDCHAR
STARTCHAR 4E89
ENCODING 20105
SWIDTH 720 0
DWIDTH 12 0
BBX 12 12 0 -2
BITMAP
0000
1800
3F80
6300
FFE0
0660
FFF0
0660
7FE0
0600
0600
1E00
ENDCHAR
ENDFONT
